<?xml version="1.0" encoding="UTF-8"?><svg xmlns="http://www.w3.org/2000/svg" xmlns:xlink="http://www.w3.org/1999/xlink" viewBox="0 0 450.28 425.68"><defs><style>.cls-1{clip-path:url(#clippath-6);}.cls-2{clip-path:url(#clippath-7);}.cls-3{clip-path:url(#clippath-15);}.cls-4{clip-path:url(#clippath-4);}.cls-5{fill:url(#linear-gradient-2);}.cls-6{opacity:.42;}.cls-6,.cls-7,.cls-8{mix-blend-mode:screen;}.cls-9{clip-path:url(#clippath-9);}.cls-10{clip-path:url(#clippath-10);}.cls-11{clip-path:url(#clippath-11);}.cls-12{fill:none;}.cls-13{fill:url(#linear-gradient-4);}.cls-14{fill:#96d0ba;}.cls-7{opacity:.31;}.cls-15{fill:url(#linear-gradient-3);}.cls-16{clip-path:url(#clippath-1);}.cls-17{fill:url(#linear-gradient-5);}.cls-18{isolation:isolate;}.cls-19{clip-path:url(#clippath-5);}.cls-20{clip-path:url(#clippath-8);}.cls-21{fill:url(#linear-gradient-8);}.cls-22{clip-path:url(#clippath-3);}.cls-23{fill:#50b18c;}.cls-24{clip-path:url(#clippath-12);}.cls-25{clip-path:url(#clippath-14);}.cls-26{mix-blend-mode:multiply;opacity:.22;}.cls-27{fill:url(#linear-gradient-7);}.cls-28{fill:url(#linear-gradient-9);}.cls-29{fill:url(#linear-gradient-6);}.cls-8{opacity:.1;}.cls-30{clip-path:url(#clippath-16);}.cls-31{clip-path:url(#clippath-2);}.cls-32{clip-path:url(#clippath-13);}.cls-33{fill:url(#linear-gradient);}.cls-34{clip-path:url(#clippath);}</style><clipPath id="clippath"><path class="cls-12" d="M131.14,0c-8.47.01-18.09,4.16-26.62,12.23h-.01c-1.57,1.51-3.11,3.13-4.6,4.9-12.66,15.02-26,29.52-30.68,34.54-.57.61-1.14,1.21-1.7,1.82-.03.03-.05.05-.05.05-11.03,11.99-19.37,23.83-25.68,34.96-6.3,11.12-10.56,21.53-13.43,30.63-10.07,31.95-5.9,55.27-5.73,56.25.9,4.77,5.07,8.09,9.75,8.09.61,0,1.24-.05,1.85-.17,5.38-1,8.94-6.19,7.92-11.58-.08-.48-5.23-30.72,14.35-68.65h0c8.4-16.25,21.31-33.87,41.07-51.17,4.76-3.56,12.77-8.1,24.41-10.06,20.46-3.45,36.13-22.06,25.58-34.55C143.46,2.42,137.69.02,131.23,0h-.09Z"/></clipPath><linearGradient id="linear-gradient" x1="-4273.32" y1="1084.83" x2="-4260.03" y2="1084.83" gradientTransform="translate(-63942.74 -16189) rotate(-180) scale(15.01 -15.01)" gradientUnits="userSpaceOnUse"><stop offset="0" stop-color="#2b5463"/><stop offset="0" stop-color="#2b5463"/><stop offset="1" stop-color="#003143"/></linearGradient><clipPath id="clippath-1"><path class="cls-12" d="M302.69,7.31c-10.55,12.49,5.14,31.1,25.61,34.55,11.64,1.95,19.65,6.5,24.4,10.04,66,57.77,55.54,119.14,55.42,119.84-1.01,5.38,2.54,10.57,7.93,11.57.61.12,1.22.17,1.82.17,4.69,0,8.86-3.32,9.75-8.09.19-.98,4.37-24.31-5.71-56.25-5.74-18.2-17.03-41.63-39.12-65.59,0,0-.01-.01-.04-.05-.56-.61-1.13-1.21-1.7-1.82-4.68-5.02-18.04-19.51-30.68-34.54C340.83,5.81,329.15,0,319.1,0c-6.47,0-12.27,2.4-16.4,7.31"/></clipPath><linearGradient id="linear-gradient-2" x1="-3965.77" y1="1144.28" x2="-3952.49" y2="1144.28" gradientTransform="translate(-17383.03 61491.1) rotate(90) scale(15.51 -15.51)" xlink:href="#linear-gradient"/><clipPath id="clippath-2"><path class="cls-12" d="M5.58,189.17c-3.1,1.82-5.05,5.1-5.18,8.69-.32,7.76-.7,22.66-.01,40.37.62,16.38,2.17,35.12,5.5,52.8.73,3.89,3.53,7.04,7.31,8.21l18.01,5.58c2.68-16.46,3.77-35.9,4-54.69.5-39.7-2.79-76.56-2.79-76.56,0,0-17.36,10-26.83,15.61"/></clipPath><linearGradient id="linear-gradient-3" x1="-3214.73" y1="1564.64" x2="-3201.45" y2="1564.64" gradientTransform="translate(-5830.57 12221.69) rotate(90) scale(3.74 -3.74)" gradientUnits="userSpaceOnUse"><stop offset="0" stop-color="#9cafb6"/><stop offset="0" stop-color="#9cafb6"/><stop offset="1" stop-color="#547581"/></linearGradient><clipPath id="clippath-3"><rect class="cls-12" y="173.57" width="35.26" height="76.56"/></clipPath><clipPath id="clippath-4"><path class="cls-12" d="M419.08,304.81l18.01-5.57c3.76-1.18,6.56-4.34,7.31-8.22,6.95-36.79,6.1-78.25,5.49-93.17-.15-3.59-2.11-6.85-5.19-8.69-9.47-5.61-26.82-15.61-26.82-15.61,0,0-7.17,80.03,1.21,131.25"/></clipPath><linearGradient id="linear-gradient-4" x1="-4884.11" y1="1185.85" x2="-4870.82" y2="1185.85" gradientTransform="translate(-25231.76 -6004.66) rotate(-180) scale(5.27 -5.27)" xlink:href="#linear-gradient-3"/><clipPath id="clippath-5"><path class="cls-12" d="M158.49,63.63c-1.37.36-2.76.7-4.16,1.08-47.04,12.34-103.17,39.86-119.91,101.14C-7.61,319.72,68.02,425.68,225.14,425.68s232.75-105.96,190.7-259.83c-16.72-61.28-72.86-88.8-119.9-101.14-1.39-.37-2.78-.72-4.16-1.08-36.49-9.01-66.51-9.01-66.64-9.01s-30.17,0-66.66,9.01"/></clipPath><linearGradient id="linear-gradient-5" x1="-4051.23" y1="726.77" x2="-4037.95" y2="726.77" gradientTransform="translate(112292.13 20376.06) scale(27.71 -27.71)" gradientUnits="userSpaceOnUse"><stop offset="0" stop-color="#78c3a6"/><stop offset="0" stop-color="#78c3a6"/><stop offset="1" stop-color="#dcefe8"/></linearGradient><clipPath id="clippath-6"><rect class="cls-12" x="65.89" y="142.92" width="318.49" height="221.51"/></clipPath><clipPath id="clippath-7"><path class="cls-12" d="M296.66,148.64c-43.05,10.16-71.52,10.16-71.52,10.16,0,0-28.48,0-71.53-10.16-37.27-8.78-83.59,18.15-83.59,94.17s77.55,117.48,155.12,117.48,155.11-41.46,155.11-117.48c0-66.87-35.84-95.76-69.83-95.76-4.66,0-9.27.54-13.76,1.59"/></clipPath><linearGradient id="linear-gradient-6" x1="-4147.58" y1="1152.9" x2="-4134.3" y2="1152.9" gradientTransform="translate(-63435.35 -17471.89) rotate(-180) scale(15.37 -15.37)" xlink:href="#linear-gradient"/><clipPath id="clippath-8"><path class="cls-12" d="M138.96,204.88c-13.35,0-24.16,10.83-24.16,24.16v38.51c0,13.34,10.81,24.16,24.16,24.16h1.12c13.35,0,24.16-10.83,24.16-24.16v-38.51c0-13.34-10.81-24.16-24.16-24.16h-1.12Z"/></clipPath><linearGradient id="linear-gradient-7" x1="-3979.66" y1="214.59" x2="-3966.38" y2="214.59" gradientTransform="translate(25184.33 1600.97) scale(6.3 -6.3)" gradientUnits="userSpaceOnUse"><stop offset="0" stop-color="#547581"/><stop offset=".99" stop-color="#9cafb6"/><stop offset="1" stop-color="#9cafb6"/></linearGradient><clipPath id="clippath-9"><path class="cls-12" d="M310.2,204.88c-13.34,0-24.16,10.83-24.16,24.16v38.51c0,13.34,10.83,24.16,24.16,24.16h1.13c13.34,0,24.15-10.83,24.15-24.16v-38.51c0-13.34-10.81-24.16-24.15-24.16h-1.13Z"/></clipPath><linearGradient id="linear-gradient-8" x1="-4025.44" y1="178.68" x2="-4012.16" y2="178.68" gradientTransform="translate(1428.18 -24885.13) rotate(-90) scale(6.25 -6.25)" xlink:href="#linear-gradient-7"/><clipPath id="clippath-10"><rect class="cls-12" x="154.34" y="54.62" width="141.61" height="75.37"/></clipPath><clipPath id="clippath-11"><path class="cls-12" d="M158.49,63.63l24.07,42.8c6.75,11.99,19.43,19.42,33.21,19.42h18.74c13.76,0,26.47-7.43,33.21-19.42l24.07-42.8c-36.49-9.01-66.51-9.01-66.64-9.01s-30.17,0-66.66,9.01"/></clipPath><linearGradient id="linear-gradient-9" x1="-4348.07" y1="1677.89" x2="-4334.78" y2="1677.89" gradientTransform="translate(-22185.26 -8571.08) rotate(-180) scale(5.16 -5.16)" xlink:href="#linear-gradient-3"/><clipPath id="clippath-12"><rect class="cls-12" x="166.04" y="59.58" width="118.19" height="27.36"/></clipPath><clipPath id="clippath-13"><rect class="cls-12" x="78.3" y="155.32" width="290.51" height="112.77"/></clipPath><clipPath id="clippath-14"><rect class="cls-12" x="415.01" y="173.57" width="35.26" height="76.56"/></clipPath><clipPath id="clippath-15"><rect class="cls-12" x="56.51" width="94.45" height="103.06"/></clipPath><clipPath id="clippath-16"><rect class="cls-12" x="299.32" width="94.45" height="103.06"/></clipPath></defs><g class="cls-18"><g id="Layer_2"><g id="Layer_1-2"><g class="cls-34"><rect class="cls-33" x="-26.83" y="-16.95" width="230.07" height="217.38" transform="translate(-36.84 115.45) rotate(-56.86)"/></g><g class="cls-16"><rect class="cls-5" x="253.46" y="-23.28" width="217.21" height="230.05" transform="translate(8.43 211.95) rotate(-32.99)"/></g><g class="cls-31"><rect class="cls-15" x="-48.17" y="190.9" width="131.76" height="96.58" transform="translate(-198.55 135.46) rotate(-60.14)"/></g><g class="cls-7"><g class="cls-22"><path class="cls-14" d="M35.21,250.13c-13.27-2.92-24.84-7.11-34.83-11.9-.69-17.71-.31-32.61.01-40.37.15-3.59,2.1-6.85,5.19-8.69,9.46-5.61,26.82-15.61,26.82-15.61,0,0,3.29,36.86,2.8,76.56"/></g></g><g class="cls-4"><rect class="cls-13" x="381.75" y="171.84" width="98.53" height="134.69" transform="translate(-61.91 235.6) rotate(-28.61)"/></g><g class="cls-19"><rect class="cls-17" x="28.73" y="-1.18" width="392.82" height="482.66" transform="translate(-25.47 453.59) rotate(-87.27)"/></g><g class="cls-6"><g class="cls-1"><path class="cls-14" d="M225.14,364.43c-40.46,0-80.18-11.28-108.98-30.95-32.89-22.48-50.26-53.82-50.26-90.67,0-31.61,8-57.77,23.14-75.64,13.27-15.63,31.31-24.26,50.82-24.26,4.94,0,9.88.57,14.69,1.71,42.11,9.94,70.31,10.06,70.59,10.06s28.57-.15,70.59-10.06c4.81-1.14,9.75-1.71,14.69-1.71,19.51,0,37.55,8.62,50.82,24.27,15.14,17.85,23.14,44.01,23.14,75.62,0,36.85-17.37,68.2-50.26,90.67-28.8,19.67-68.52,30.95-108.98,30.95"/></g></g><g class="cls-2"><rect class="cls-29" x="99.37" y="84.32" width="251.53" height="331.5" transform="translate(-47.02 447.94) rotate(-84.02)"/></g><g class="cls-20"><rect class="cls-27" x="95.87" y="223.17" width="87.3" height="50.27" transform="translate(-110.1 385.45) rotate(-89.45)"/></g><g class="cls-9"><rect class="cls-21" x="283.57" y="203.53" width="54.36" height="89.54" transform="translate(-13.79 18.31) rotate(-3.3)"/></g><g class="cls-26"><g class="cls-10"><path class="cls-23" d="M295.94,64.7l-24.61,43.74c-7.47,13.3-21.57,21.55-36.82,21.55h-18.74c-15.25,0-29.36-8.25-36.82-21.55l-24.61-43.74c1.39-.36,2.79-.72,4.16-1.06,36.49-9.01,66.52-9.02,66.66-9.02s30.15.01,66.66,9.02c1.37.35,2.75.7,4.14,1.06"/></g></g><g class="cls-11"><rect class="cls-28" x="179.86" y="18.97" width="90.56" height="142.53" transform="translate(101.9 299.14) rotate(-81.3)"/></g><g class="cls-7"><g class="cls-24"><path class="cls-14" d="M284.23,66.96l-11.25,19.99c-38.23-14.47-77.16-13.52-101.66-10.61l-5.29-9.38c32.62-7.28,58.82-7.37,59.1-7.37s26.49.09,59.1,7.37"/></g></g><g class="cls-8"><g class="cls-32"><path class="cls-14" d="M368.81,211.78c-155.83-37.63-248.05,21-287.15,56.32-2.14-7.68-3.36-16.09-3.36-25.29,0-60.44,30.92-87.48,61.55-87.48,3.98,0,7.98.46,11.85,1.37,43.5,10.27,72.23,10.39,73.43,10.39s27.63-.11,68.16-9.17c1.74-.4,3.49-.8,5.29-1.22,3.87-.9,7.86-1.37,11.85-1.37,17.53,0,35.16,8.86,47.02,27.76,4.91,7.82,8.83,17.35,11.36,28.69"/></g></g><g class="cls-7"><g class="cls-25"><path class="cls-14" d="M415.06,250.13c13.27-2.92,24.84-7.11,34.83-11.9.69-17.71.31-32.61-.01-40.37-.15-3.59-2.09-6.85-5.19-8.69-9.46-5.61-26.82-15.61-26.82-15.61,0,0-3.29,36.86-2.8,76.56"/></g></g><g class="cls-8"><g class="cls-3"><path class="cls-14" d="M121.98,41.86c-11.64,1.97-19.65,6.5-24.4,10.04-19.78,17.31-32.68,34.94-41.07,51.15C81.46,29.12,136.69,32.92,128.09,14.75c-4.78-10.11-17.59-7.43-23.58-2.5,15.05-14.29,33.53-16.26,43.06-4.95,10.55,12.5-5.13,31.11-25.6,34.56"/></g></g><g class="cls-8"><g class="cls-30"><path class="cls-14" d="M328.3,41.86c11.64,1.97,19.65,6.5,24.4,10.04,19.78,17.31,32.69,34.94,41.07,51.15-24.96-73.93-80.19-70.14-71.58-88.31,4.78-10.11,17.59-7.43,23.58-2.5-15.05-14.29-33.53-16.26-43.06-4.95-10.55,12.5,5.13,31.11,25.6,34.56"/></g></g></g></g></g></svg>