<?xml version="1.0" encoding="UTF-8"?><svg xmlns="http://www.w3.org/2000/svg" xmlns:xlink="http://www.w3.org/1999/xlink" viewBox="0 0 450 370.83"><defs><style>.cls-1{fill:url(#radial-gradient);}.cls-1,.cls-2,.cls-3,.cls-4,.cls-5,.cls-6{mix-blend-mode:screen;}.cls-1,.cls-4{opacity:.29;}.cls-7{fill:url(#linear-gradient-2);}.cls-2{opacity:.31;}.cls-2,.cls-3,.cls-8,.cls-6{fill:#73a8b3;}.cls-9{fill:#1c4858;}.cls-10{fill:#fff;}.cls-3{opacity:.42;}.cls-11{fill:url(#linear-gradient-4);}.cls-12{fill:url(#linear-gradient-3);}.cls-13{fill:url(#linear-gradient-5);}.cls-14{isolation:isolate;}.cls-4{fill:url(#radial-gradient-2);}.cls-15{fill:url(#linear-gradient-7);}.cls-16{fill:url(#linear-gradient-6);}.cls-5{opacity:.05;}.cls-17{fill:#156e80;mix-blend-mode:multiply;opacity:.22;}.cls-18{fill:url(#linear-gradient);}.cls-6{opacity:.1;}</style><linearGradient id="linear-gradient" x1="-8.9" y1="163.63" x2="34.13" y2="188.33" gradientUnits="userSpaceOnUse"><stop offset="0" stop-color="#4a6d7a"/><stop offset="1" stop-color="#1c4858"/></linearGradient><linearGradient id="linear-gradient-2" x1="475.76" y1="155.31" x2="414.4" y2="188.78" xlink:href="#linear-gradient"/><linearGradient id="linear-gradient-3" x1="216.83" y1="361.91" x2="234.36" y2="-5.47" gradientUnits="userSpaceOnUse"><stop offset="0" stop-color="#287a8a"/><stop offset="1" stop-color="#d0e2e6"/></linearGradient><radialGradient id="radial-gradient" cx="-141.41" cy="-3537.88" fx="-141.41" fy="-3537.88" r="28.26" gradientTransform="translate(7095.52 15.57) rotate(-90) scale(1.26 1.92)" gradientUnits="userSpaceOnUse"><stop offset="0" stop-color="#b5c3c8"/><stop offset=".5" stop-color="#555b5e"/><stop offset=".84" stop-color="#17191a"/><stop offset="1" stop-color="#000"/></radialGradient><radialGradient id="radial-gradient-2" cx="-277.37" fx="-277.37" r="28.26" gradientTransform="translate(6924.39 -155.56) rotate(-90) scale(1.26 1.92)" xlink:href="#radial-gradient"/><linearGradient id="linear-gradient-4" x1="139.04" y1="235.05" x2="139.84" y2="151.37" gradientUnits="userSpaceOnUse"><stop offset="0" stop-color="#91ceb7"/><stop offset=".99" stop-color="#bde1d3"/></linearGradient><linearGradient id="linear-gradient-5" x1="312.89" y1="233.9" x2="308.11" y2="151.01" gradientTransform="translate(621.13 387.12) rotate(180)" xlink:href="#linear-gradient-4"/><linearGradient id="linear-gradient-6" x1="226.24" y1=".92" x2="215.88" y2="68.65" xlink:href="#linear-gradient"/><linearGradient id="linear-gradient-7" x1="224.92" y1="278.08" x2="225.08" y2="260.8" xlink:href="#linear-gradient-4"/></defs><g class="cls-14"><g id="Layer_2"><g id="Layer_1-2"><path class="cls-2" d="M294.38,14.49l-13.2,23.47c-44.88-16.98-90.61-15.87-119.36-12.46l-6.19-11.01c38.29-8.54,69.05-8.66,69.38-8.66s31.09.12,69.38,8.66Z"/><path class="cls-18" d="M35.19,195.39c-.23,18.78-1.31,38.21-4.01,54.65l-18-5.57c-3.77-1.17-6.57-4.32-7.3-8.2-3.34-17.67-4.88-36.41-5.51-52.78-.68-17.69-.3-32.59.02-40.35.15-3.59,2.09-6.85,5.19-8.68,9.45-5.6,26.8-15.6,26.8-15.6,0,0,3.3,36.83,2.8,76.51Z"/><path class="cls-2" d="M35.19,195.39c-13.26-2.92-24.83-7.1-34.81-11.89-.68-17.69-.3-32.59.02-40.35.15-3.59,2.09-6.85,5.19-8.68,9.45-5.6,26.8-15.6,26.8-15.6,0,0,3.3,36.83,2.8,76.51Z"/><path class="cls-7" d="M418.82,250.04l18.01-5.57c3.77-1.17,6.56-4.33,7.3-8.21,6.95-36.77,6.09-78.2,5.49-93.12-.15-3.59-2.1-6.85-5.19-8.68-9.46-5.6-26.8-15.6-26.8-15.6,0,0-7.17,79.97,1.2,131.17Z"/><path class="cls-2" d="M414.81,195.39c13.26-2.92,24.83-7.1,34.81-11.89.69-17.69.3-32.59-.02-40.35-.15-3.59-2.09-6.85-5.19-8.68-9.45-5.6-26.8-15.6-26.8-15.6,0,0-3.3,36.83-2.8,76.51Z"/><path class="cls-12" d="M225,370.83c-157.02,0-232.61-105.89-190.59-259.68C51.13,49.92,107.23,22.41,154.24,10.07c1.39-.36,2.78-.72,4.15-1.06C194.86,0,224.87,0,225,0s30.14,0,66.61,9.02c1.37.34,2.76.69,4.15,1.06,47.01,12.34,103.11,39.84,119.83,101.08,42.02,153.78-33.57,259.68-190.59,259.68Z"/><path class="cls-3" d="M225,309.62c-40.43,0-80.13-11.28-108.9-30.94-32.87-22.45-50.24-53.79-50.24-90.61,0-31.6,8-57.73,23.13-75.58,13.25-15.63,31.29-24.25,50.78-24.25,4.94,0,9.89.57,14.69,1.71,42.08,9.93,70.26,10.05,70.54,10.05s28.55-.14,70.54-10.05c4.81-1.13,9.75-1.71,14.69-1.71,19.49,0,37.53,8.61,50.78,24.25,15.13,17.85,23.13,43.99,23.13,75.58,0,36.82-17.37,68.15-50.24,90.61-28.78,19.66-68.47,30.94-108.91,30.94Z"/><path class="cls-9" d="M380.02,188.07c0-75.97-46.28-102.88-83.53-94.1-43.03,10.16-71.49,10.16-71.49,10.16,0,0-28.45,0-71.49-10.16-37.25-8.79-83.53,18.12-83.53,94.1s77.5,117.41,155.01,117.41,155.02-41.44,155.02-117.41Z"/><g class="cls-5"><path class="cls-8" d="M334.09,238.57H93.09c.53.81,1.07,1.6,1.62,2.38h260.59c.55-.78,1.09-1.57,1.62-2.38h-22.82Z"/><path class="cls-8" d="M334.09,226.67H86.49c.37.8.75,1.6,1.14,2.38h274.75c.39-.78.77-1.58,1.14-2.38h-29.42Z"/><path class="cls-8" d="M334.09,214.77H82.02c.24.8.48,1.59.74,2.38h284.49c.26-.79.5-1.58.74-2.38h-33.89Z"/><path class="cls-8" d="M334.09,202.87H79.36c.12.8.27,1.59.41,2.38h290.47c.14-.79.28-1.58.41-2.38h-36.55Z"/><path class="cls-8" d="M334.09,190.97H78.3c.02.8.06,1.59.1,2.38h293.2c.04-.79.08-1.58.1-2.38h-37.61Z"/><path class="cls-8" d="M334.09,232.62H89.5c.45.8.9,1.6,1.37,2.38h268.27c.47-.78.92-1.58,1.37-2.38h-26.41Z"/><path class="cls-8" d="M334.09,220.72H84.01c.3.8.61,1.6.93,2.38h280.13c.32-.78.63-1.58.93-2.38h-31.9Z"/><path class="cls-8" d="M334.09,208.82H80.48c.18.8.37,1.59.57,2.38h287.91c.2-.79.39-1.58.57-2.38h-35.43Z"/><path class="cls-8" d="M334.09,196.92H78.65c.07.8.14,1.6.23,2.38h292.24c.09-.78.16-1.58.23-2.38h-37.26Z"/><path class="cls-8" d="M334.09,262.37H114.93c1.01.82,2.03,1.61,3.04,2.38h214.07c.61-.47,1.23-.94,1.85-1.43l.21-.16c.07-.05.14-.11.21-.16.26-.21.52-.41.78-.62h-.98Z"/><path class="cls-8" d="M334.09,250.47H102.32c.73.81,1.47,1.6,2.22,2.38h240.91c.75-.78,1.49-1.57,2.22-2.38h-13.59Z"/><path class="cls-8" d="M334.09,256.42H108.14c.86.81,1.72,1.61,2.59,2.38h228.55c.87-.77,1.73-1.57,2.59-2.38h-7.77Z"/><path class="cls-8" d="M334.09,244.52H97.35c.62.81,1.26,1.6,1.9,2.38h251.51c.64-.78,1.27-1.57,1.9-2.38h-18.56Z"/><path class="cls-8" d="M320.68,101.71h-20.8c-.5.1-1,.19-1.49.31-3.16.75-6.23,1.43-9.22,2.07h39.63c-2.66-1.02-5.38-1.81-8.12-2.38Z"/><path class="cls-8" d="M274.59,286.17h-115.85c2.38.84,4.79,1.63,7.24,2.38h118.06c2.44-.75,4.86-1.54,7.24-2.38h-16.68Z"/><path class="cls-8" d="M274.59,274.27h-142.15c1.42.81,2.87,1.61,4.34,2.38h176.45c1.47-.77,2.91-1.57,4.34-2.38h-42.98Z"/><path class="cls-8" d="M274.59,280.22h-130.56c1.78.82,3.59,1.61,5.42,2.38h151.11c1.83-.77,3.64-1.56,5.42-2.38h-31.39Z"/><path class="cls-8" d="M274.59,268.32H122.91c.06.04.12.08.18.12,1.12.77,2.27,1.52,3.43,2.26h196.97c1.16-.74,2.31-1.49,3.43-2.26.06-.04.12-.08.18-.12h-52.51Z"/><path class="cls-8" d="M274.59,110.04h65.42c-1.23-.85-2.48-1.65-3.76-2.38h-65.68c-5.81.98-11.15,1.76-15.97,2.38h19.99Z"/><path class="cls-8" d="M215.08,292.12h-35.7c4.01.91,8.08,1.71,12.2,2.38h66.84c4.12-.67,8.19-1.47,12.2-2.38h-55.54Z"/><path class="cls-8" d="M155.58,121.94h197.08c-.65-.82-1.32-1.61-2-2.38H99.34c-.68.77-1.35,1.56-2,2.38h58.24Z"/><path class="cls-8" d="M155.58,110.04h39.83c-4.83-.62-10.17-1.4-15.97-2.38h-65.68c-1.27.73-2.52,1.53-3.76,2.38h45.58Z"/><path class="cls-8" d="M155.58,115.99h191.67c-.86-.83-1.73-1.62-2.61-2.38H105.37c-.89.76-1.76,1.55-2.61,2.38h52.82Z"/><path class="cls-8" d="M155.58,104.09h5.26c-1.66-.36-3.34-.72-5.05-1.11-.07-.01-.14-.03-.21-.05-.07-.01-.14-.03-.21-.05-1.24-.28-2.49-.57-3.76-.87-.5-.12-1-.21-1.5-.31h-20.79c-2.74.57-5.45,1.36-8.12,2.38h34.37Z"/><path class="cls-8" d="M96.07,181.45h275.54c-.03-.8-.07-1.59-.11-2.38H78.49c-.04.79-.08,1.58-.11,2.38h17.69Z"/><path class="cls-8" d="M96.07,169.54h274.62c-.1-.8-.2-1.59-.31-2.38H79.61c-.11.79-.21,1.58-.31,2.38h16.77Z"/><path class="cls-8" d="M96.07,157.64h272.64c-.17-.8-.36-1.6-.54-2.38H81.83c-.19.78-.37,1.58-.54,2.38h14.79Z"/><path class="cls-8" d="M96.07,145.74h269.33c-.28-.8-.56-1.6-.85-2.38H85.45c-.29.78-.57,1.58-.85,2.38h11.48Z"/><path class="cls-8" d="M96.07,133.84h264.27c-.42-.81-.85-1.6-1.29-2.38H90.95c-.44.78-.87,1.57-1.29,2.38h6.42Z"/><path class="cls-8" d="M96.07,175.5h275.2c-.06-.8-.13-1.59-.2-2.38H78.93c-.07.79-.14,1.58-.2,2.38h17.35Z"/><path class="cls-8" d="M96.07,163.6h273.77c-.13-.8-.27-1.6-.42-2.38H80.57c-.15.78-.29,1.58-.42,2.38h15.92Z"/><path class="cls-8" d="M96.07,151.69h271.17c-.22-.8-.45-1.6-.69-2.38H83.44c-.24.78-.46,1.58-.69,2.38h13.32Z"/><path class="cls-8" d="M96.07,139.79h267.06c-.34-.81-.69-1.6-1.04-2.38H87.91c-.36.78-.7,1.57-1.04,2.38h9.21Z"/><path class="cls-8" d="M96.07,127.89h260.84c-.52-.81-1.05-1.6-1.59-2.38H94.68c-.54.77-1.07,1.57-1.59,2.38h2.99Z"/><path class="cls-8" d="M96.07,187.4h275.67c0-.8-.01-1.59-.02-2.38H78.28c-.01.79-.02,1.58-.02,2.38h17.82Z"/></g><path class="cls-1" d="M290.46,156.22h40.21c19.2,0,34.79,15.59,34.79,34.79v5.09c0,19.2-15.59,34.79-34.79,34.79h-40.21c-19.2,0-34.79-15.59-34.79-34.79v-5.09c0-19.2,15.59-34.8,34.8-34.8Z" transform="translate(504.13 -117) rotate(90)"/><rect class="cls-4" x="84.53" y="156.22" width="109.8" height="74.68" rx="34.79" ry="34.79" transform="translate(332.99 54.13) rotate(90)"/><rect class="cls-11" x="114.73" y="150.17" width="49.41" height="86.78" rx="24.14" ry="24.14"/><path class="cls-13" d="M310.01,150.17h1.12c13.33,0,24.14,10.82,24.14,24.14v38.49c0,13.33-10.82,24.14-24.14,24.14h-1.12c-13.33,0-24.14-10.82-24.14-24.14v-38.49c0-13.33,10.82-24.14,24.14-24.14Z" transform="translate(621.13 387.12) rotate(-180)"/><path class="cls-17" d="M295.76,10.07l-24.59,43.72c-7.46,13.28-21.56,21.53-36.8,21.53h-18.73c-15.24,0-29.34-8.25-36.8-21.53l-24.59-43.72c1.39-.36,2.78-.72,4.15-1.06C194.86,0,224.87,0,225,0s30.14,0,66.61,9.02c1.37.34,2.76.69,4.15,1.06Z"/><path class="cls-16" d="M291.61,9.02l-24.05,42.75c-6.74,12-19.44,19.42-33.2,19.42h-18.73c-13.76,0-26.45-7.42-33.2-19.42l-24.05-42.75C194.86,0,224.87,0,225,0s30.14,0,66.61,9.02Z"/><path class="cls-6" d="M368.58,157.07c-155.73-37.61-247.9,20.98-286.97,56.28-2.13-7.67-3.36-16.07-3.36-25.27,0-60.4,30.9-87.43,61.52-87.43,3.98,0,7.97.46,11.84,1.37,43.47,10.26,72.19,10.38,73.39,10.38s27.6-.11,68.11-9.17c1.74-.39,3.5-.79,5.28-1.21,3.87-.91,7.86-1.37,11.84-1.37,17.52,0,35.14,8.85,46.99,27.74,4.92,7.82,8.83,17.35,11.36,28.68Z"/><path class="cls-10" d="M240.04,21.58h-4.93c-.28,0-.52.24-.52.56v13.09c0,.36-.32.44-.48.12l-7.05-13.25c-.24-.4-.48-.52-1-.52h-15.38c-.52,0-.8.28-.8.8v3.84c0,.52.28.8.8.8h9.13c.32,0,.44.08.24.4l-10.09,14.94c-.44.72-.56,1.2-.56,1.72v3.28c0,1.6.64,2.24,2.24,2.24h15.46c.28,0,.56-.24.56-.56v-13.73c0-.36.24-.44.44-.12l7.61,14.05c.12.24.36.36.76.36h1.92c1.44,0,2.2-.76,2.2-2.2v-25.27c0-.32-.28-.56-.56-.56ZM215.81,43.68l5.81-8.37v8.81h-5.52c-.4,0-.4-.24-.28-.44h0Z"/><rect class="cls-15" x="176.49" y="260.93" width="97.02" height="17.17" rx="8.58" ry="8.58"/></g></g></g></svg>