<?xml version="1.0" encoding="UTF-8"?><svg xmlns="http://www.w3.org/2000/svg" xmlns:xlink="http://www.w3.org/1999/xlink" viewBox="0 0 620.48 786.16"><defs><style>.cls-1,.cls-2,.cls-3,.cls-4,.cls-5{fill:#156e80;}.cls-6{fill:url(#radial-gradient);}.cls-6,.cls-7,.cls-8,.cls-9,.cls-10,.cls-11,.cls-12{mix-blend-mode:screen;}.cls-6,.cls-9{opacity:.29;}.cls-13{fill:url(#linear-gradient-2);}.cls-2{opacity:.17;}.cls-2,.cls-3,.cls-4,.cls-14,.cls-5{mix-blend-mode:multiply;}.cls-15{fill:url(#linear-gradient-10);}.cls-7{opacity:.31;}.cls-7,.cls-8,.cls-16,.cls-12{fill:#73a8b3;}.cls-17{fill:#1c4858;}.cls-18{fill:#fff;}.cls-3,.cls-11,.cls-12{opacity:.1;}.cls-8{opacity:.42;}.cls-19{fill:url(#linear-gradient-4);}.cls-4{opacity:.2;}.cls-20{fill:url(#linear-gradient-3);}.cls-21{fill:url(#linear-gradient-5);}.cls-22{isolation:isolate;}.cls-23{fill:url(#linear-gradient-8);}.cls-9{fill:url(#radial-gradient-2);}.cls-24{fill:#50b18c;}.cls-14{opacity:.63;}.cls-25{fill:url(#linear-gradient-7);}.cls-26{fill:url(#linear-gradient-9);}.cls-27{fill:url(#linear-gradient-11);}.cls-28{fill:url(#linear-gradient-6);}.cls-10{opacity:.05;}.cls-5{opacity:.22;}.cls-29{fill:url(#linear-gradient);}.cls-11{fill:#d0e2e6;}</style><linearGradient id="linear-gradient" x1="120.23" y1="554.4" x2="1.64" y2="545.66" gradientUnits="userSpaceOnUse"><stop offset="0" stop-color="#287a8a"/><stop offset="1" stop-color="#d0e2e6"/></linearGradient><linearGradient id="linear-gradient-2" x1="506.31" y1="609.68" x2="591.2" y2="522.29" xlink:href="#linear-gradient"/><linearGradient id="linear-gradient-3" x1="34.35" y1="433.57" x2="152.31" y2="430.76" gradientUnits="userSpaceOnUse"><stop offset="0" stop-color="#2b5463"/><stop offset="1" stop-color="#003143"/></linearGradient><linearGradient id="linear-gradient-4" x1="584.81" y1="465.35" x2="453.74" y2="405.43" xlink:href="#linear-gradient-3"/><linearGradient id="linear-gradient-5" x1="244.56" y1="769.56" x2="339.44" y2="392.57" xlink:href="#linear-gradient"/><linearGradient id="linear-gradient-6" x1="35.45" y1="192.23" x2="86" y2="221.26" gradientUnits="userSpaceOnUse"><stop offset="0" stop-color="#4a6d7a"/><stop offset="1" stop-color="#1c4858"/></linearGradient><linearGradient id="linear-gradient-7" x1="604.84" y1="182.46" x2="532.75" y2="221.79" xlink:href="#linear-gradient-6"/><linearGradient id="linear-gradient-8" x1="300.64" y1="425.18" x2="321.23" y2="-6.42" xlink:href="#linear-gradient"/><radialGradient id="radial-gradient" cx="97.93" cy="-3063.4" fx="97.93" fy="-3063.4" r="33.2" gradientTransform="translate(6285.76 350.66) rotate(-90) scale(1.26 1.92)" gradientUnits="userSpaceOnUse"><stop offset="0" stop-color="#b5c3c8"/><stop offset=".5" stop-color="#555b5e"/><stop offset=".84" stop-color="#17191a"/><stop offset="1" stop-color="#000"/></radialGradient><radialGradient id="radial-gradient-2" cx="-61.8" fx="-61.8" r="33.2" gradientTransform="translate(6084.71 149.61) rotate(-90) scale(1.26 1.92)" xlink:href="#radial-gradient"/><linearGradient id="linear-gradient-9" x1="209.25" y1="276.14" x2="210.19" y2="177.83" gradientUnits="userSpaceOnUse"><stop offset="0" stop-color="#91ceb7"/><stop offset=".99" stop-color="#bde1d3"/></linearGradient><linearGradient id="linear-gradient-10" x1="413.5" y1="274.78" x2="407.88" y2="177.41" gradientTransform="translate(821.53 454.8) rotate(180)" xlink:href="#linear-gradient-9"/><linearGradient id="linear-gradient-11" x1="311.7" y1="1.08" x2="299.53" y2="80.66" xlink:href="#linear-gradient-6"/></defs><g class="cls-22"><g id="Layer_2"><g id="Layer_1-2"><path class="cls-29" d="M119.06,547.69c.2.11-10.58,22.21-20.45,57.36-.26.96-.53,1.94-.81,2.92-.76,2.79-1.51,5.64-2.25,8.57-2.69,10.94-5.65,20.9-9.04,29.59-9.46,24.22-22.26,38.52-42.03,36.59-22.35-1.56-46.24-35.22-44.38-94.53.03-1.01.07-2.03.12-3.06.35-7.66,1.13-15.74,2.38-24.22,4.6-31,15.68-61.89,27.49-86.62,2.55-5.35,5.15-10.41,7.71-15.13,2.82-5.28,5.62-10.14,8.29-14.52,10.85-17.84,19.55-27.99,19.34-28.16,0-1.11,24.94,11.45,42.56,31.74,1.55,1.82,3.06,3.69,4.49,5.63,15.22,20.56,22.79,48.53,6.58,93.82Z"/><path class="cls-2" d="M119.06,547.69c.2.11-10.58,22.21-20.45,57.36-.26.96-.53,1.94-.81,2.92-.76,2.79-1.51,5.64-2.25,8.57-2.69,10.94-5.65,20.9-9.04,29.59-.56-6.03,8.05-115.89,8.05-115.89-35.94-12.15-54.87-36.94-64.48-55.95,2.55-5.35,5.15-10.41,7.71-15.13,2.82-5.28,5.62-10.14,8.29-14.52,19.28.77,45.7,5.19,66.39,9.21,15.22,20.56,22.79,48.53,6.58,93.82Z"/><path class="cls-13" d="M501.43,547.69c-.22.12,12.97,27.1,23.5,68.87,10.19,41.44,24.22,68.79,51.07,66.18,25.57-1.79,53.16-45.6,41.89-121.8-5.61-37.71-20.77-75.26-35.2-101.75-14.32-26.76-27.9-42.48-27.63-42.69.01-1.1-24.94,11.45-42.55,31.74-18.08,21.08-28.81,49.88-11.08,99.45Z"/><path class="cls-2" d="M501.42,547.69c-.2.11,10.58,22.21,20.45,57.36.26.96.53,1.94.81,2.92.76,2.79,1.51,5.64,2.25,8.57,2.69,10.94,5.65,20.9,9.04,29.59.56-6.03-8.05-115.89-8.05-115.89,35.94-12.15,54.87-36.94,64.48-55.95-2.55-5.35-5.15-10.41-7.71-15.13-2.83-5.28-5.62-10.14-8.29-14.52-19.28.77-45.7,5.19-66.39,9.21-15.22,20.56-22.79,48.53-6.58,93.82Z"/><path class="cls-20" d="M183.82,431.79c0,33.09-21.52,61.17-51.32,70.99-7.37,2.44-15.24,3.75-23.43,3.75-41.27,0-74.74-33.47-74.74-74.74s33.47-74.74,74.74-74.74c2.54,0,5.06.13,7.53.38,37.75,3.78,67.22,35.62,67.22,74.36Z"/><path class="cls-12" d="M132.5,502.79c-7.37,2.44-15.24,3.75-23.43,3.75-41.27,0-74.74-33.47-74.74-74.74s33.47-74.74,74.74-74.74c2.54,0,5.06.13,7.53.38-37.85,30.03-50.72,90.99,15.41,125.38,1.08,7.62,1.17,14.23.49,19.97Z"/><path class="cls-19" d="M436.67,431.79c0,41.28,33.46,74.74,74.74,74.74s74.74-33.46,74.74-74.74-33.46-74.74-74.74-74.74-74.74,33.46-74.74,74.74Z"/><path class="cls-12" d="M487.98,502.79c7.37,2.44,15.24,3.75,23.43,3.75,41.27,0,74.74-33.47,74.74-74.74s-33.47-74.74-74.74-74.74c-2.55,0-5.06.13-7.53.38,37.85,30.03,50.72,90.99-15.41,125.38-1.08,7.62-1.18,14.23-.49,19.97Z"/><path class="cls-24" d="M371.41,578.31c0,33.78-27.39,61.17-61.17,61.17s-61.17-27.39-61.17-61.17,27.38-61.17,61.17-61.17,61.17,27.39,61.17,61.17Z"/><path class="cls-21" d="M496.6,506.15c-.05,9.95-.77,20.65-2.32,32.12-.14,1-.27,2-.43,3.01-1.98,13.55-5.12,28.17-9.68,43.9-38.33,132.32-99.31,200.98-173.93,200.98s-135.6-68.66-173.93-200.98c-4.55-15.74-7.7-30.36-9.68-43.9-.16-1.01-.29-2.01-.43-3.01-1.56-11.5-2.29-22.2-2.33-32.16-.2-39.88,10.37-67.77,21.12-85.77,11-18.43,22.18-26.5,22.18-26.5,0,0,58.23-23.37,143.07-23.37s143.07,23.37,143.07,23.37c0,0,10.24,7.4,20.76,24.18,11.21,17.89,22.75,46.46,22.52,88.12Z"/><path class="cls-3" d="M474.07,418.03c-24.65,21.68-76.13,53.56-165.7,53.56s-137.62-29.69-163.39-51.24c11-18.43,22.18-26.5,22.18-26.5,0,0,58.23-23.37,143.07-23.37s143.07,23.37,143.07,23.37c0,0,10.24,7.4,20.76,24.18Z"/><path class="cls-11" d="M79.65,405.54c-7.2,8.55-16.83,12.29-21.52,8.34-4.69-3.94-2.65-14.07,4.55-22.63,7.2-8.55,16.83-12.29,21.52-8.34,4.68,3.94,2.65,14.08-4.55,22.63Z"/><path class="cls-11" d="M540.84,405.54c7.2,8.55,16.83,12.29,21.52,8.34,4.68-3.94,2.65-14.07-4.55-22.63-7.2-8.55-16.83-12.29-21.52-8.34-4.69,3.94-2.65,14.08,4.55,22.63Z"/><path class="cls-4" d="M496.6,506.15c-.11,22.43-3.62,48.64-12.43,79.03-38.33,132.32-99.31,200.98-173.93,200.98s-135.6-68.66-173.93-200.98c-8.81-30.41-12.33-56.64-12.44-79.07,15.96,57.54,67.11,197.66,186.37,197.66s170.38-140.05,186.36-197.62Z"/><g class="cls-14"><path class="cls-1" d="M98.61,605.05c-.26.96-.53,1.94-.81,2.92-46.53-29.22-86.58-22.51-97.7-19.77.03-1.01.07-2.03.12-3.06,5.44-1.29,15.95-3.14,30.03-2.44,16.67.82,41.26,5.52,68.36,22.34Z"/></g><g class="cls-14"><path class="cls-1" d="M521.87,605.05c.26.96.53,1.94.81,2.92,46.54-29.22,86.58-22.51,97.7-19.77-.03-1.01-.07-2.03-.12-3.06-5.44-1.29-15.95-3.14-30.03-2.44-16.67.82-41.26,5.52-68.36,22.34Z"/></g><path class="cls-28" d="M87.25,229.54c-.27,22.06-1.54,44.88-4.71,64.21l-21.15-6.54c-4.43-1.37-7.72-5.08-8.57-9.63-3.92-20.76-5.73-42.78-6.47-62-.8-20.79-.35-38.29.02-47.4.17-4.21,2.46-8.05,6.1-10.19,11.11-6.58,31.49-18.32,31.49-18.32,0,0,3.87,43.27,3.29,89.89Z"/><path class="cls-7" d="M87.25,229.54c-15.58-3.43-29.17-8.34-40.9-13.97-.8-20.79-.35-38.29.02-47.4.17-4.21,2.46-8.05,6.1-10.19,11.11-6.58,31.49-18.32,31.49-18.32,0,0,3.87,43.27,3.29,89.89Z"/><path class="cls-25" d="M537.94,293.75l21.15-6.54c4.43-1.37,7.71-5.09,8.57-9.64,8.16-43.2,7.16-91.87,6.45-109.39-.17-4.22-2.46-8.05-6.09-10.2-11.11-6.58-31.49-18.32-31.49-18.32,0,0-8.42,93.95,1.41,154.1Z"/><path class="cls-7" d="M533.23,229.54c15.58-3.43,29.17-8.34,40.9-13.97.81-20.79.35-38.29-.02-47.4-.17-4.21-2.46-8.05-6.1-10.19-11.11-6.58-31.49-18.32-31.49-18.32,0,0-3.87,43.27-3.29,89.89Z"/><path class="cls-23" d="M310.24,435.66c-184.47,0-273.27-124.4-223.91-305.07C105.98,58.64,171.89,26.33,227.11,11.84c1.63-.43,3.26-.84,4.87-1.24C274.83.01,310.09,0,310.24,0s35.41.01,78.26,10.59c1.61.4,3.24.82,4.87,1.24,55.23,14.5,121.13,46.81,140.78,118.75,49.36,180.67-39.44,305.07-223.91,305.07Z"/><path class="cls-8" d="M310.24,363.74c-47.5,0-94.13-13.25-127.94-36.34-38.62-26.38-59.03-63.19-59.03-106.45,0-37.12,9.4-67.82,27.18-88.8,15.57-18.37,36.76-28.48,59.66-28.48,5.81,0,11.62.68,17.26,2.01,49.44,11.67,82.54,11.8,82.87,11.8s33.54-.16,82.87-11.8c5.65-1.33,11.45-2.01,17.26-2.01,22.9,0,44.09,10.12,59.66,28.49,17.78,20.97,27.18,51.68,27.18,88.79,0,43.26-20.41,80.07-59.03,106.45-33.81,23.1-80.44,36.34-127.94,36.34Z"/><path class="cls-17" d="M492.35,220.95c0-89.26-54.37-120.87-98.13-110.55-50.56,11.93-83.98,11.93-83.98,11.93,0,0-33.43,0-83.98-11.93-43.76-10.32-98.13,21.29-98.13,110.55s91.05,137.94,182.11,137.94,182.11-48.68,182.11-137.94Z"/><g class="cls-10"><path class="cls-16" d="M438.4,280.27H155.27c.62.95,1.26,1.88,1.9,2.8h306.15c.64-.92,1.28-1.85,1.9-2.8h-26.81Z"/><path class="cls-16" d="M438.4,266.29H147.51c.44.94.88,1.88,1.34,2.8h322.78c.46-.92.9-1.85,1.34-2.8h-34.57Z"/><path class="cls-16" d="M438.4,252.31H142.26c.28.94.57,1.87.87,2.8h334.22c.3-.92.59-1.85.87-2.8h-39.82Z"/><path class="cls-16" d="M438.4,238.33H139.14c.14.94.31,1.87.48,2.8h341.25c.17-.93.33-1.85.48-2.8h-42.94Z"/><path class="cls-16" d="M438.4,224.35H137.9c.03.94.07,1.87.12,2.79h344.45c.05-.92.09-1.86.12-2.79h-44.18Z"/><path class="cls-16" d="M438.4,273.28H151.05c.52.95,1.06,1.88,1.61,2.8h315.17c.55-.92,1.08-1.85,1.61-2.8h-31.03Z"/><path class="cls-16" d="M438.4,259.3H144.6c.35.94.71,1.88,1.09,2.8h329.1c.38-.92.74-1.85,1.09-2.8h-37.48Z"/><path class="cls-16" d="M438.4,245.32H140.45c.21.94.43,1.87.67,2.8h338.24c.23-.92.46-1.85.67-2.8h-41.63Z"/><path class="cls-16" d="M438.4,231.34H138.31c.08.94.16,1.88.27,2.8h343.33c.11-.92.18-1.86.27-2.8h-43.77Z"/><path class="cls-16" d="M438.4,308.24H180.93c1.19.97,2.38,1.9,3.57,2.8h251.49c.72-.55,1.45-1.11,2.17-1.68l.24-.19c.08-.06.16-.13.24-.19.3-.24.61-.49.91-.73h-1.15Z"/><path class="cls-16" d="M438.4,294.26H166.12c.86.95,1.73,1.88,2.61,2.8h283.02c.88-.91,1.75-1.84,2.61-2.8h-15.96Z"/><path class="cls-16" d="M438.4,301.25H172.95c1.01.96,2.02,1.89,3.04,2.8h268.5c1.02-.91,2.03-1.84,3.04-2.8h-9.13Z"/><path class="cls-16" d="M438.4,287.27H160.27c.73.95,1.48,1.88,2.23,2.8h295.48c.75-.92,1.5-1.85,2.23-2.8h-21.81Z"/><path class="cls-16" d="M422.64,119.49h-24.43c-.58.12-1.17.22-1.76.36-3.71.88-7.32,1.68-10.84,2.44h46.56c-3.13-1.2-6.31-2.13-9.53-2.8Z"/><path class="cls-16" d="M368.49,336.2h-136.1c2.8.98,5.63,1.92,8.5,2.8h138.69c2.87-.88,5.7-1.81,8.5-2.8h-19.59Z"/><path class="cls-16" d="M368.49,322.22h-167c1.67.95,3.37,1.89,5.1,2.8h207.3c1.72-.91,3.42-1.84,5.1-2.8h-50.49Z"/><path class="cls-16" d="M368.49,329.21h-153.38c2.09.97,4.22,1.9,6.37,2.8h177.52c2.15-.9,4.28-1.83,6.37-2.8h-36.87Z"/><path class="cls-16" d="M368.49,315.23h-178.19c.07.05.14.1.21.15,1.32.9,2.67,1.78,4.03,2.65h231.4c1.36-.87,2.71-1.75,4.03-2.65.07-.05.14-.1.21-.15h-61.68Z"/><path class="cls-16" d="M368.49,129.28h76.85c-1.45-1-2.92-1.93-4.41-2.8h-77.16c-6.82,1.16-13.1,2.07-18.77,2.8h23.49Z"/><path class="cls-16" d="M298.59,343.19h-41.94c4.71,1.07,9.49,2,14.33,2.8h78.53c4.84-.79,9.62-1.72,14.33-2.8h-65.24Z"/><path class="cls-16" d="M228.68,143.26h231.53c-.77-.96-1.55-1.89-2.35-2.8H162.62c-.8.9-1.58,1.83-2.35,2.8h68.42Z"/><path class="cls-16" d="M228.68,129.28h46.79c-5.67-.73-11.94-1.64-18.77-2.8h-77.16c-1.49.86-2.96,1.8-4.41,2.8h53.55Z"/><path class="cls-16" d="M228.68,136.27h225.17c-1.01-.97-2.03-1.9-3.07-2.79H169.69c-1.04.89-2.06,1.82-3.07,2.79h62.06Z"/><path class="cls-16" d="M228.68,122.29h6.18c-1.95-.42-3.92-.85-5.93-1.3-.08-.02-.16-.04-.24-.05-.08-.02-.16-.04-.24-.06-1.46-.33-2.93-.67-4.41-1.02-.58-.14-1.17-.24-1.76-.36h-24.43c-3.22.66-6.41,1.59-9.53,2.8h40.38Z"/><path class="cls-16" d="M158.78,213.16h323.71c-.04-.94-.08-1.87-.13-2.79H138.12c-.05.92-.09,1.86-.13,2.79h20.79Z"/><path class="cls-16" d="M158.78,199.18h322.63c-.11-.94-.23-1.87-.36-2.79H139.44c-.13.92-.25,1.85-.36,2.79h19.7Z"/><path class="cls-16" d="M158.78,185.2h320.3c-.2-.94-.42-1.87-.64-2.8H142.05c-.22.92-.44,1.85-.64,2.8h17.37Z"/><path class="cls-16" d="M158.78,171.22h316.41c-.32-.94-.66-1.88-1-2.8H146.29c-.34.92-.68,1.85-1,2.8h13.49Z"/><path class="cls-16" d="M158.78,157.24h310.47c-.49-.95-1-1.88-1.52-2.8H152.75c-.52.92-1.02,1.84-1.52,2.8h7.54Z"/><path class="cls-16" d="M158.78,206.17h323.31c-.07-.94-.15-1.87-.24-2.8H138.64c-.09.92-.17,1.86-.24,2.8h20.38Z"/><path class="cls-16" d="M158.78,192.19h321.63c-.16-.94-.32-1.87-.49-2.8H140.57c-.17.92-.34,1.85-.49,2.8h18.7Z"/><path class="cls-16" d="M158.78,178.21h318.57c-.26-.94-.53-1.88-.81-2.8H143.94c-.28.92-.55,1.85-.81,2.8h15.65Z"/><path class="cls-16" d="M158.78,164.23h313.74c-.4-.95-.81-1.88-1.23-2.8H149.19c-.42.92-.83,1.85-1.23,2.8h10.82Z"/><path class="cls-16" d="M158.78,150.25h306.43c-.61-.95-1.23-1.89-1.87-2.79H157.14c-.63.91-1.26,1.84-1.87,2.79h3.51Z"/><path class="cls-16" d="M158.78,220.16h323.86c0-.94-.01-1.87-.03-2.8H137.87c-.02.92-.02,1.86-.03,2.8h20.94Z"/></g><path class="cls-6" d="M387.15,183.53h47.24c22.56,0,40.88,18.32,40.88,40.88v5.98c0,22.56-18.32,40.88-40.88,40.88h-47.24c-22.56,0-40.88-18.32-40.88-40.88v-5.98c0-22.56,18.32-40.88,40.88-40.88Z" transform="translate(638.16 -183.37) rotate(90)"/><rect class="cls-9" x="145.22" y="183.53" width="128.99" height="87.73" rx="40.88" ry="40.88" transform="translate(437.11 17.68) rotate(90)"/><rect class="cls-26" x="180.69" y="176.43" width="58.05" height="101.95" rx="28.37" ry="28.37"/><path class="cls-15" d="M410.11,176.43h1.32c15.66,0,28.37,12.71,28.37,28.37v45.22c0,15.66-12.71,28.37-28.37,28.37h-1.32c-15.65,0-28.36-12.71-28.36-28.36v-45.22c0-15.65,12.71-28.36,28.36-28.36Z" transform="translate(821.53 454.8) rotate(-180)"/><path class="cls-5" d="M393.37,11.84l-28.89,51.36c-8.77,15.6-25.33,25.29-43.23,25.29h-22c-17.9,0-34.47-9.69-43.23-25.29l-28.89-51.36c1.63-.43,3.26-.84,4.87-1.24C274.83.01,310.09,0,310.24,0s35.41.01,78.26,10.59c1.61.4,3.24.82,4.87,1.24Z"/><path class="cls-27" d="M388.5,10.59l-28.25,50.23c-7.92,14.1-22.84,22.82-39,22.82h-22c-16.17,0-31.08-8.72-39-22.82l-28.25-50.23C274.83.01,310.09,0,310.24,0s35.41.01,78.26,10.59Z"/><path class="cls-7" d="M379.62,14.49l-13.2,23.47c-44.88-16.98-90.61-15.87-119.36-12.46l-6.19-11.01c38.29-8.54,69.05-8.66,69.38-8.66s31.09.12,69.38,8.66Z"/><path class="cls-12" d="M478.92,184.52c-182.95-44.19-291.23,24.65-337.14,66.12-2.51-9.01-3.94-18.88-3.94-29.69,0-70.95,36.3-102.71,72.28-102.71,4.68,0,9.37.54,13.91,1.61,51.07,12.06,84.81,12.19,86.22,12.19s32.43-.13,80.01-10.77c2.04-.46,4.11-.93,6.2-1.43,4.54-1.07,9.23-1.61,13.91-1.61,20.58,0,41.28,10.4,55.21,32.59,5.78,9.18,10.38,20.38,13.34,33.69Z"/><path class="cls-18" d="M355.52,536.11h-14.83c-.85,0-1.57.72-1.57,1.69v39.43c0,1.08-.97,1.33-1.45.36l-21.22-39.91c-.72-1.21-1.45-1.57-3.01-1.57h-46.3c-1.57,0-2.41.85-2.41,2.41v11.58c0,1.57.85,2.41,2.41,2.41h27.49c.97,0,1.33.24.72,1.21l-30.39,44.98c-1.33,2.17-1.69,3.62-1.69,5.18v9.89c0,4.82,1.93,6.75,6.75,6.75h46.55c.85,0,1.69-.72,1.69-1.69v-41.36c0-1.08.72-1.33,1.33-.36l22.91,42.33c.36.72,1.08,1.08,2.29,1.08h5.79c4.34,0,6.63-2.29,6.63-6.63v-76.09c0-.97-.85-1.69-1.69-1.69ZM282.57,602.67l17.48-25.22v26.55h-16.64c-1.21,0-1.21-.72-.85-1.33h0Z"/></g></g></g></svg>