<?xml version="1.0" encoding="UTF-8"?><svg id="Layer_2" xmlns="http://www.w3.org/2000/svg" viewBox="0 0 163.42 164.15"><defs><style>.cls-1{fill:#166f80;}</style></defs><g id="Layer_1-2"><path class="cls-1" d="M81.85,116.15c6.16,0,12.32.01,18.49,0,3.59,0,4.85-1.23,5.07-4.78.49-7.82,3.61-14.68,7.74-21.17,3.62-5.68,7.43-11.26,10.12-17.48,7.29-16.84,6.59-33.18-4-48.38-8.29-11.89-20.1-18.03-34.57-18.85-7.53-.43-14.83.58-21.8,3.6-2.21.96-3.65.53-4.33-1.07-.66-1.57.12-2.92,2.34-3.83,25.4-10.49,56.74-1.29,68.58,27.79,6.32,15.52,4.75,30.84-2.69,45.73-3.34,6.69-7.8,12.69-11.44,19.2-2.71,4.85-4.43,9.96-4.65,15.56-.11,2.85-1.26,5.25-3.53,6.99-1.04.8-1.44,1.57-1.01,2.86.7,2.14.23,4.24-.6,6.23-.41.99-.51,1.79-.06,2.81,1.27,2.87,1.29,5.8-.07,8.66-.41.86-.34,1.55,0,2.41,1.95,4.89,1.15,8.77-2.74,12.37-6.17,5.71-13.19,9.74-21.88,9.32-8.9-.42-16.11-4.64-21.82-11.3-2.42-2.83-2.67-6.38-1.23-9.86.5-1.2.6-2.18.03-3.41-1.23-2.65-1.1-5.41.06-8.06.47-1.08.42-1.95-.03-3.01-.87-2.06-1.25-4.23-.52-6.44.33-1.02.08-1.69-.8-2.35-2.62-1.96-3.72-4.67-3.86-7.93-.26-6.2-2.63-11.72-5.8-16.94-3.93-6.49-8.2-12.76-11.47-19.66-10.15-21.47-5.49-46.3,11.88-62.25.89-.81,1.83-1.57,2.81-2.27,1.37-.99,2.71-.84,3.76.47,1.05,1.31.58,2.57-.53,3.58-2.31,2.09-4.74,4.06-6.71,6.51-11.76,14.6-14.06,30.71-7.76,48.22,2.5,6.94,6.47,13.08,10.45,19.23,3.64,5.63,6.91,11.43,8.1,18.15.3,1.67.49,3.37.65,5.06.26,2.88,1.61,4.26,4.49,4.28,6.45.04,12.89.01,19.34.02ZM101.11,124.53c.05-2.19-.54-2.68-2.58-2.1-11.16,3.16-22.33,6.32-33.49,9.48-1.98.56-2.92,2.02-2.71,4.16.14,1.39.7,2.11,2.23,1.62,1.08-.35,2.19-.58,3.28-.88,1.69-.46,3.05,0,3.55,1.73.51,1.76-.51,2.83-2.12,3.35-1.48.48-2.99.86-4.48,1.32-1.89.59-2.97,2.62-2.36,4.55.71,2.24,2.33,1.06,3.52.73,9.07-2.5,18.12-5.09,27.17-7.66,1.97-.56,3.96-1.09,5.89-1.78,1.78-.64,2.65-3,1.86-4.82-.85-1.95-2.2-.61-3.24-.33-5.87,1.59-11.72,3.28-17.57,4.95-1.62.47-2.99.25-3.77-1.39-.78-1.64.26-3.16,2.53-3.81,6.47-1.83,12.92-3.7,19.41-5.46,1.98-.54,2.8-1.74,2.87-3.66ZM68.23,153.73c3.35,3.57,11.66,6.04,16.72,4.91,5.46-1.22,10.14-3.9,14.19-7.73.79-.74,1.43-1.57,1.73-2.63.32-1.12.52-2.32-.25-3.27-.8-1-1.87-.25-2.76,0-9.13,2.55-18.26,5.13-27.37,7.74-.78.22-1.68.27-2.27.98ZM81.12,121.81c.01-.1.02-.21.04-.31-2.97,0-5.94,0-8.91,0-2.62,0-5.24.02-7.86,0-1,0-1.6.46-1.86,1.4-.33,1.2-.47,2.44.31,3.48.6.8,1.44.2,2.16,0,5.38-1.52,10.75-3.05,16.13-4.58Z"/><path class="cls-1" d="M62.12,56.59c0-5.82-.01-11.65,0-17.47,0-.99.05-1.99.23-2.96,1.01-5.36,6.37-7.96,11.03-5.19,10.78,6.41,21.52,12.89,32.21,19.45,4.75,2.91,4.7,9.49-.11,12.6-5.06,3.27-10.28,6.28-15.43,9.39-5.52,3.33-11.02,6.7-16.59,9.95-3.9,2.28-8.71.82-10.49-3.07-.69-1.51-.87-3.13-.86-4.78.01-5.97,0-11.93,0-17.9ZM67.43,56.65c0,5.89,0,11.78,0,17.66,0,1.35-.11,2.77,1.33,3.56,1.33.73,2.3-.26,3.29-.85,9.89-5.94,19.76-11.92,29.62-17.89,2.79-1.69,2.79-3.3-.01-4.99-9.87-5.97-19.75-11.92-29.64-17.86-3.07-1.85-4.59-.95-4.6,2.7-.02,5.89,0,11.78,0,17.66Z"/><path class="cls-1" d="M28.09,83.43c-.02,1.17-.6,2.01-1.58,2.58-3.9,2.27-7.81,4.53-11.72,6.78-1.5.86-2.92.75-3.86-.8-.98-1.61-.23-2.88,1.21-3.73,3.95-2.33,7.89-4.68,11.91-6.87,1.99-1.09,3.98.03,4.04,2.04Z"/><path class="cls-1" d="M152.82,90.66c.03,1.88-1.81,3.3-3.5,2.39-4.36-2.34-8.63-4.86-12.87-7.42-1.23-.74-1.49-2.09-.77-3.38.73-1.32,2.03-1.73,3.28-1.03,4.33,2.4,8.59,4.92,12.85,7.44.7.41,1.02,1.16,1.01,2.01Z"/><path class="cls-1" d="M12.69,8.69c1.25-.03,1.87.33,2.48.69,3.62,2.09,7.24,4.16,10.84,6.28,1.95,1.14,2.55,2.54,1.8,3.95-.79,1.5-2.48,1.8-4.45.68-3.69-2.1-7.36-4.25-11.03-6.38-1.28-.74-2.04-1.8-1.66-3.34.31-1.26,1.27-1.8,2.01-1.87Z"/><path class="cls-1" d="M150.2,8.66c1.18.05,2.03.56,2.43,1.55.46,1.15.28,2.31-.74,3.07-1.07.8-2.26,1.44-3.42,2.12-2.81,1.65-5.62,3.28-8.44,4.91-1.23.71-2.52,1.03-3.77.06-1.26-.99-1.41-2.98.02-3.86,4.32-2.69,8.78-5.17,13.19-7.71.23-.13.55-.11.74-.14Z"/><path class="cls-1" d="M9.74,48.36c2.12,0,4.24,0,6.36,0,1.77,0,3.09.59,3.22,2.57.11,1.67-1.13,2.73-3.28,2.75-4.31.04-8.62.05-12.93,0-2.02-.02-3.19-1.07-3.11-2.7.09-1.99,1.39-2.62,3.17-2.62,2.19,0,4.38,0,6.57,0Z"/><path class="cls-1" d="M153.66,53.69c-2.19,0-4.38.03-6.57-.01-1.69-.03-2.88-.78-2.99-2.62-.1-1.63,1.06-2.67,3.09-2.69,4.38-.04,8.76-.04,13.14,0,2.03.02,3.19,1.05,3.09,2.68-.12,1.97-1.43,2.62-3.19,2.63-2.19.01-4.38,0-6.57,0Z"/></g></svg>