<?xml version="1.0" encoding="UTF-8"?><svg id="Layer_2" xmlns="http://www.w3.org/2000/svg" viewBox="0 0 160 158.86"><defs><style>.cls-1{fill:#166f80;}</style></defs><g id="Layer_1-2"><path class="cls-1" d="M50.01,0c11.95,0,23.9-.01,35.86,0,8.75.01,14.22,5.49,14.23,14.25.02,8.55.08,17.1-.04,25.65-.03,2.33.76,2.96,3,2.95,14.17-.08,28.34-.05,42.51-.04,4.65,0,8.71,1.41,11.74,5.15,1.76,2.17,2.69,4.62,2.68,7.44,0,14.09.04,28.18-.02,42.27-.03,6.73-4.91,11.7-12.13,12.63-3.81.49-4.14.87-4.16,4.82-.02,3.56.14,7.13-.09,10.68-.36,5.69-5.37,8.75-9.97,6.21-.88-.48-1.65-1.23-2.34-1.98-4.65-4.97-9.32-9.92-13.86-14.99-2.82-3.14-6.14-4.75-10.42-4.71-10.84.09-21.69.04-32.53.02-9.13-.01-14.54-5.37-14.55-14.43-.01-8.47,0-16.94,0-25.41,0-2.84-.27-3.16-3.09-3.14-2.13.01-4.28.11-6.4.35-2.67.29-5.02,1.37-6.87,3.39-4.55,4.96-9.1,9.9-13.66,14.85-.59.64-1.17,1.29-1.79,1.9-1.97,1.92-4.27,2.67-6.96,1.83-2.71-.84-4.1-2.85-4.57-5.54-.16-.93-.21-1.89-.22-2.83-.03-3.25.01-6.49-.02-9.74-.03-3.19-.46-3.67-3.59-4.13-2.52-.37-5-.79-7.11-2.4C2.09,62.38-.02,59.01,0,54.4c.06-13.54,0-27.07.02-40.61C.03,5.51,5.54.03,13.91.01c12.03-.03,24.06,0,36.09,0ZM109.94,49.48c-12.11,0-24.21-.01-36.32,0-4.9,0-7.27,2.37-7.32,7.29-.04,4.35-.01,8.7-.01,13.06,0,8.94-.03,17.88.02,26.82.03,4.46,2.18,6.72,6.57,7.04,1.81.13,3.63.25,5.45.25,9.18.03,18.36.19,27.53-.05,6.76-.18,12.13,2.2,16.58,7.17,3.96,4.42,8.02,8.74,12.09,13.06.6.64,1.12,1.94,2.12,1.53.8-.33.36-1.58.37-2.41.04-2.77.09-5.54,0-8.31-.2-6.24,3.86-10.81,9.81-11.13,4.66-.25,7.05-2.93,7.08-7.56.08-13.13.07-26.27,0-39.4-.02-3.79-2.26-7.51-7.65-7.43-12.1.19-24.21.06-36.32.06ZM23.56,83.3c1.27-1.32,2.43-2.49,3.55-3.69,3.88-4.17,7.73-8.36,11.62-12.52,1.13-1.21,2.37-2.3,3.79-3.21,4.27-2.75,9.02-3.12,13.91-2.99,3.46.09,3.68,0,3.43-3.33-.61-8.18,5.47-14.95,14.78-14.75,5.46.11,10.92-.05,16.38.05,2.09.04,2.75-.71,2.73-2.76-.08-8.7,0-17.41-.05-26.11-.02-5.03-2.56-7.55-7.69-7.55-23.97-.03-47.94-.03-71.92,0-5.21,0-8,2.88-8.02,8.15-.03,12.74-.03,25.48,0,38.21.01,5.29,2.25,7.67,7.44,8.13,5.52.49,9.18,4.33,9.42,10.06.13,3.24.02,6.49.06,9.73,0,.76-.23,1.58.56,2.59Z"/><path class="cls-1" d="M34.39,155.02c-8.07,0-16.15.01-24.22,0-6.7-.01-9.92-3.93-8.4-10.51,2.1-9.06,7.14-16.14,15.08-21.02,1.87-1.15,2.5-1.83,1.17-4.06-3.91-6.52-2.93-15.38,1.96-21.1,5.14-6,13.59-8.27,20.93-5.63,6.83,2.46,11.94,9.77,12.18,17.22.12,3.76-.58,7.28-2.72,10.37-.99,1.44-.46,1.94.78,2.67,7.63,4.5,12.74,11.02,15.32,19.49.39,1.28.71,2.61.82,3.94.42,5.36-2.55,8.59-7.96,8.62-8.31.05-16.62.01-24.94.01ZM34.16,148.64c8.15,0,16.29-.03,24.44.02,1.97.01,2.77-.59,2.24-2.69-2.17-8.58-7.14-14.83-15.13-18.69-1.1-.53-1.97-.53-3.09.02-5.37,2.63-10.85,2.69-16.23.08-1.4-.68-2.47-.59-3.75.07-7.52,3.88-12.43,9.85-14.54,18.07-.69,2.69-.4,3.1,2.35,3.11,7.91.02,15.82,0,23.73,0ZM46.64,110.3c-.03-6.82-5.6-12.3-12.45-12.26-6.62.04-12.08,5.66-12.05,12.41.03,6.91,5.56,12.46,12.33,12.38,6.84-.08,12.2-5.6,12.17-12.53Z"/><path class="cls-1" d="M105.19,158.83c-4.75,0-9.5.02-14.25,0-4.97-.03-7.5-2.85-6.69-7.79.84-5.08,3.73-9.05,7.7-12.15,1.76-1.37,2.23-2.43,1.38-4.69-1.91-5.05.23-10.87,4.69-14.08,4.34-3.13,10.35-3.1,14.67.08,4.56,3.35,6.42,8.78,4.55,14.06-.68,1.92-.51,2.98,1.2,4.31,3.69,2.87,6.23,6.69,7.74,11.16,1.73,5.13-.85,8.95-6.27,9.07-4.9.11-9.81.02-14.72.02h0ZM105.1,152.42c4.26,0,8.53-.02,12.79.01,1.82.01,2.26-.8,1.59-2.38-1.4-3.3-3.57-5.92-6.73-7.69-.96-.54-1.91-.64-2.94-.19-2.98,1.3-5.99,1.22-8.98.03-1.11-.44-2.11-.41-3.15.24-3.02,1.92-5.28,4.45-6.57,7.84-.59,1.54-.29,2.18,1.44,2.15,4.18-.06,8.37-.02,12.55-.02ZM111.37,130.46c0-3.57-2.54-6.24-5.98-6.26-3.61-.02-6.28,2.67-6.24,6.3.03,3.36,2.93,6.26,6.19,6.19,3.51-.07,6.03-2.67,6.03-6.24Z"/><path class="cls-1" d="M110.17,63.08c8.94,0,17.88,0,26.82,0,.79,0,1.59-.04,2.37.06,1.72.21,2.76,1.25,2.87,2.95.1,1.64-.9,2.69-2.42,3.09-.9.24-1.88.25-2.82.25-18.04.01-36.08.01-54.12,0-.16,0-.32,0-.47,0-2.97-.05-4.66-1.22-4.69-3.24-.03-2.02,1.59-3.12,4.7-3.12,9.26,0,18.52,0,27.77,0Z"/><path class="cls-1" d="M99.81,83.71c5.62,0,11.23-.01,16.85.01.94,0,1.9.06,2.83.24,1.51.29,2.31,1.34,2.43,2.83.12,1.52-.63,2.63-2.04,3.13-.87.31-1.85.42-2.79.42-11.47.03-22.94.02-34.4.01-.47,0-.95-.01-1.42-.08-2.23-.29-3.76-1.68-3.54-3.4.28-2.16,1.76-3.12,3.82-3.13,5.3-.05,10.6-.03,15.9-.03.79,0,1.58,0,2.37,0Z"/><path class="cls-1" d="M47.84,26.35c-9.02,0-18.05,0-27.07,0-.87,0-1.76.04-2.6-.14-1.48-.31-2.32-1.32-2.41-2.84-.1-1.53.65-2.56,2.06-3.12.99-.39,2.03-.29,3.05-.29,18.05,0,36.09,0,54.14,0,3.58,0,5.1.94,5.14,3.15.04,2.32-1.44,3.24-5.24,3.25-9.02,0-18.05,0-27.07,0Z"/><path class="cls-1" d="M31.03,47.21c-3.72,0-7.43.04-11.15,0-2.69-.03-4.14-1.21-4.12-3.22.02-2.03,1.41-3.13,4.16-3.14,7.51-.02,15.02-.03,22.53,0,2.54.01,3.95,1.15,4.02,3.06.07,1.92-1.36,3.24-3.82,3.29-3.87.07-7.75.02-11.62.02Z"/></g></svg>