<?xml version="1.0" encoding="UTF-8"?><svg id="Layer_2" xmlns="http://www.w3.org/2000/svg" viewBox="0 0 166.09 164.15"><defs><style>.cls-1{fill:#166f80;}</style></defs><g id="Layer_1-2"><path class="cls-1" d="M137.51,82.38c-6.15.09-11.59-.69-16.61-3.41-2.53-1.37-4.55-3.28-4.56-6.36-.01-3.16,2.02-5.11,4.61-6.54.74-.41,1.49-.84,2.29-1.09,1.55-.47,1.43-1.12.49-2.17-4.34-4.82-8.13-10.04-11.08-15.85-2.58-5.06-4.23-10.39-4.65-16.08-.03-.46-.08-.92-.04-1.37.13-1.43.69-2.62,2.29-2.69,1.67-.07,2.48,1,2.55,2.59.24,5.18,1.57,10.06,3.88,14.67,3.66,7.32,8.64,13.67,14.41,19.42,1.57,1.56,3.23,3.04,4.83,4.58.76.73,1.44.71,2.21,0,9.16-8.51,17.53-17.62,21.51-29.86,3.87-11.91.04-23.3-9.78-29.6-11.61-7.45-27.61-3.22-34.05,8.99-.4.75-.76,1.53-1.23,2.23-.79,1.17-1.91,1.68-3.2.95-1.26-.7-1.55-1.9-1-3.22,2-4.83,5.17-8.78,9.33-11.87,16.96-12.58,41.33-3.34,45.72,17.37,1.75,8.23-.16,15.98-3.8,23.36-2.9,5.9-6.73,11.18-11.08,16.08-1.52,1.7-1.53,1.7.51,2.55,1.4.58,2.71,1.29,3.87,2.26,3.77,3.14,3.74,7.4-.1,10.49-2.18,1.76-4.76,2.68-7.42,3.38-3.42.9-6.9,1.36-9.91,1.17ZM138.14,77.49c1.86.03,4.71-.24,7.51-.87,2.04-.46,4.01-1.17,5.76-2.35,1.74-1.17,1.78-2.1.15-3.32-1.65-1.23-3.57-1.86-5.54-2.34-.87-.21-1.5.22-2.1.77-1.55,1.4-3.07,2.83-4.67,4.16-1.66,1.38-2.85,1.35-4.54-.04-1.06-.87-2.24-1.67-3.05-2.74-1.93-2.55-4.19-2.48-6.69-1.16-1.34.71-3.4,1.01-3.46,2.78-.06,2.01,2.04,2.53,3.55,3.16,3.85,1.6,7.94,1.92,13.09,1.94Z"/><path class="cls-1" d="M150,29.34c-.07,7.07-6.01,12.94-13.06,12.92-7.07-.03-13.03-6.1-12.99-13.24.04-7.01,6.04-13.01,13.01-13.01,7.23,0,13.1,6.01,13.03,13.33ZM136.99,21.07c-4.56.02-8.12,3.56-8.11,8.04.01,4.5,3.59,8.12,8.06,8.16,4.59.03,8.19-3.6,8.14-8.21-.05-4.61-3.49-8.01-8.1-7.99Z"/><path class="cls-1" d="M146.14,141.13c-2.39,0-3.65-.85-3.67-2.34-.03-1.83,1.17-2.47,2.78-2.61.71-.06,1.43-.22,2.14-.18,1.46.08,2.55.8,2.68,2.34.12,1.48-.85,2.25-2.2,2.55-.7.15-1.42.2-1.72.24Z"/><path class="cls-1" d="M106.56,75.17c-1.97.02-3.21-.8-3.35-2.24-.15-1.55.98-2.61,3.03-2.84,2.8-.32,4.48.57,4.54,2.4.06,1.73-1.38,2.65-4.22,2.68Z"/><path class="cls-1" d="M87.92,141.48c-.59-.09-1.25-.13-1.87-.3-1.12-.31-1.79-1.12-1.83-2.26-.05-1.19.69-1.93,1.79-2.26,1.2-.36,2.43-.38,3.66-.12,1.27.27,2.21.93,2.18,2.33-.03,1.44-.92,2.23-2.33,2.43-.51.07-1.03.11-1.6.18Z"/><path class="cls-1" d="M165.52,114.53c-.11,1.21-.59,2.01-1.61,2.4-1.14.44-2.08.03-2.75-.87-.87-1.17-1.27-2.59-1.42-4.01-.11-1.06.5-1.87,1.52-2.27.95-.37,1.86-.14,2.49.61,1.03,1.22,1.39,2.76,1.77,4.14Z"/><path class="cls-1" d="M102.19,98.7c.03,1.94-1.69,3.13-3.31,2.44-1.26-.53-2.37-1.39-3.17-2.52-.72-1-.7-2.12.14-3.06.85-.95,1.95-1.11,2.99-.38,1.41.99,3.06,1.8,3.36,3.52Z"/><path class="cls-1" d="M95.83,89.31c-.08,1.2-.49,2.38-1.97,2.6-1.51.23-2.48-.56-2.8-2.06-.24-1.14-.47-2.3-.22-3.48.26-1.23,1.05-1.98,2.28-2.03,1.28-.05,2.07.74,2.34,1.93.22.94.24,1.93.37,3.03Z"/><path class="cls-1" d="M134.66,136.29c.52,0,1.05-.06,1.56.01,1.32.19,2.17.98,2.23,2.31.05,1.26-.76,2.12-1.93,2.37-1,.22-2.07.21-3.1.14-1.44-.09-2.56-.78-2.59-2.37-.02-1.69,1.12-2.37,2.66-2.49.39-.03.78,0,1.17,0,0,0,0,.02,0,.02Z"/><path class="cls-1" d="M165.84,123.63c-.19,1.17-.4,2.4-.96,3.51-.56,1.1-1.49,1.66-2.72,1.33-1.3-.35-1.9-1.32-1.78-2.65.11-1.24.48-2.43,1.06-3.52.54-1.02,1.45-1.52,2.6-1.18,1.19.34,1.8,1.2,1.8,2.52Z"/><path class="cls-1" d="M99.73,141.2c-2.66.04-3.93-.76-3.87-2.42.06-1.63,1.42-2.48,4-2.43.64.01,1.3.08,1.91.27,1.19.37,1.85,1.2,1.7,2.49-.14,1.29-.95,1.95-2.19,2.09-.51.06-1.04,0-1.56,0Z"/><path class="cls-1" d="M93.47,78.63c.04-1.82,2.88-4.81,4.35-4.66,1.41.14,2.26.98,2.27,2.45.01,1.57-2.91,4.62-4.34,4.49-1.44-.12-2.12-1.09-2.28-2.28Z"/><path class="cls-1" d="M121.18,103.6c-.64-.05-1.3-.02-1.92-.16-1.16-.26-1.77-1.12-1.82-2.24-.05-1.06.51-1.86,1.55-2.22,1.32-.45,2.68-.46,4.01-.15,1.38.32,2.13,1.21,1.96,2.68-.16,1.4-1.1,1.97-2.42,2.03-.45.02-.9,0-1.36,0,0,.02,0,.04,0,.05Z"/><path class="cls-1" d="M122.31,141.18s-.61.03-1.17-.11c-1.2-.3-1.9-1.07-1.91-2.36,0-1.21.69-2.01,1.78-2.25.99-.22,2.06-.22,3.08-.16,1.5.09,2.72.78,2.68,2.47-.03,1.66-1.19,2.33-2.74,2.41-.39.02-.78,0-1.73,0Z"/><path class="cls-1" d="M132.79,103.58c-.52-.02-1.05,0-1.56-.08-1.25-.18-2.05-.94-2.14-2.19-.09-1.26.64-2.09,1.83-2.45,1.15-.34,2.33-.31,3.49-.1,1.36.24,2.32,1.01,2.22,2.52-.09,1.48-1.04,2.18-2.47,2.25-.45.02-.91,0-1.37,0,0,.01,0,.02,0,.04Z"/><path class="cls-1" d="M143.94,103.55s-.62.03-1.19-.08c-1.22-.22-1.97-.98-2.03-2.24-.06-1.19.62-1.94,1.71-2.31,1.2-.41,2.43-.34,3.64-.13,1.37.24,2.31,1.04,2.23,2.49-.09,1.54-1.13,2.24-2.63,2.27-.39,0-.78,0-1.72,0Z"/><path class="cls-1" d="M158.97,105.37c-.04,1.05-.65,1.87-1.93,2.07-1.58.25-4.75-1.86-5.03-3.37-.23-1.25.25-2.2,1.43-2.67,1.84-.74,5.51,1.77,5.53,3.97Z"/><path class="cls-1" d="M158.06,131.16c1.8.04,2.89,1.94,1.92,3.48-.81,1.28-2.02,2.18-3.37,2.84-.81.4-1.65.19-2.35-.4-.7-.58-1.03-1.32-.84-2.24.29-1.42,3.19-3.71,4.64-3.68Z"/><path class="cls-1" d="M111.25,141.24c-.58-.04-1.17-.01-1.74-.13-1.13-.24-1.84-.96-1.96-2.12-.12-1.2.51-1.99,1.58-2.4,1.31-.49,2.69-.44,4.02-.13,1.25.29,2.09,1.1,1.96,2.5-.12,1.36-1,2.06-2.31,2.21-.51.06-1.03,0-1.55,0,0,.02,0,.04,0,.07Z"/><path class="cls-1" d="M109.59,103.58c-.58-.03-1.18,0-1.75-.09-1.18-.18-1.86-.89-1.97-2.08-.12-1.19.43-2.02,1.54-2.43,1.32-.49,2.69-.46,4.03-.11,1.29.33,2.07,1.21,1.92,2.56-.15,1.33-1.03,2.06-2.4,2.12-.45.02-.91,0-1.37,0,0,.01,0,.03,0,.04Z"/><path class="cls-1" d="M68.91,135.05c0-8.55-.04-17.1.04-25.64.02-1.77-.5-2.35-2.29-2.34-4.46.03-8.93.23-13.39-.13-3.21-.26-5.9-1.53-7.95-4.02-.82-.99-1.22-.89-1.58.27-.09.28-.18.56-.31.83-2.98,5.93-1.92,10.91,3.15,15.27,2.43,2.1,4.39,4.75,6.61,7.11,2.25,2.39,3.33,5.17,3.29,8.49-.07,6.54-.04,13.09,0,19.63,0,1.51-.29,2.93-.86,4.3-1.59,3.86-5.72,5.68-9.61,4.26-4.76-1.74-6.35-4.08-6.29-9.16.04-3.48-.05-6.96.06-10.43.07-2.32-.52-4.28-2.17-5.94-.87-.87-1.62-1.87-2.39-2.83-.74-.93-1.2-.62-1.28.36-.17,2.19-1.41,3.81-2.65,5.47-4.96,6.59-9.85,13.22-14.84,19.78-4.19,5.51-12.18,4.67-14.8-1.55-1.35-3.21-.76-6.27,1.26-9.02,4.26-5.79,8.54-11.55,12.87-17.28,1.19-1.58,1.81-3.22,1.79-5.21-.02-3.06.09-6.13.23-9.19.05-1.21-.4-1.76-1.55-2.14-3.91-1.27-7.79-2.61-11.74-3.77-4.25-1.24-5.31-3.57-3.93-7.77,3.7-11.31,7.36-22.62,11.02-33.94.99-3.08,3.66-4.7,6.9-3.92,3.88.94,7.74,1.98,11.58,3.09,2.16.63,3.91,1.92,4.87,4.05.38.85.87,1.17,1.78.8,5.06-2.05,10.66.7,13.6,5.11,2.84,4.26,5.7,8.52,8.47,12.82.75,1.17,1.63,1.73,3.02,1.67,1.88-.08,3.76-.04,5.64-.02,1.04.01,1.48-.45,1.46-1.49-.03-2.48-.03-4.95,0-7.43.02-1.74.9-2.78,2.26-2.81,1.43-.04,2.44,1.05,2.48,2.82.05,2.59.05,5.19,0,7.78-.02,1.04.29,1.69,1.25,2.26,4.33,2.59,4.5,7.84.28,10.55-1.25.8-1.54,1.67-1.54,3.02.03,17.09.02,34.19.02,51.28,0,.76.03,1.55-.15,2.28-.3,1.24-1.19,1.92-2.46,1.82-1.18-.09-1.93-.84-2.1-2.03-.08-.58-.06-1.18-.06-1.76,0-8.43,0-16.86,0-25.29ZM62.16,102.15s0-.01,0-.02c2.94,0,5.88.01,8.81,0,1.13,0,2.34-.33,2.34-1.61,0-1.34-1.27-1.51-2.37-1.52-3-.02-5.99-.07-8.99,0-3.1.07-5.37-1.15-7.05-3.8-2.81-4.42-5.72-8.78-8.69-13.1-1.54-2.25-3.65-3.76-6.53-3.42-2.87.34-4.58,2.16-5.47,4.86-.39,1.17-.83,2.33-1.25,3.49-2.46,6.81-4.93,13.62-7.39,20.43-.26.71-.54,1.54.72,1.33,5.27-.89,10.03-2.75,12.89-7.65,1.63-2.79,2.49-5.71-.22-8.5-.51-.53-.85-1.28-1.09-2-.44-1.33.4-2.71,1.72-2.97,1.3-.26,2.12.46,2.74,1.47,1.98,3.21,3.96,6.41,5.92,9.63,1.37,2.25,3.33,3.39,5.98,3.37,2.64-.03,5.29,0,7.93,0ZM24.26,114.01c.42,1.08,1.08,1.67,1.64,2.34,5.28,6.25,10.56,12.5,15.86,18.73,1.83,2.15,2.81,4.54,2.74,7.43-.1,4.18-.01,8.37-.05,12.55,0,1.01.19,1.86,1.07,2.46,1.3.87,2.69,1.69,4.26.92,1.56-.76,1.88-2.28,1.88-3.9,0-6.72-.02-13.44,0-20.16,0-1.77-.64-3.2-1.79-4.47-2.7-2.96-5.35-5.96-8.11-8.85-2.67-2.79-4.82-5.8-4.92-9.86-.02-.79-.33-.91-.99-.55-3.56,1.96-7.43,2.86-11.6,3.36ZM13.21,83.26c-.61-.09-.81.48-1,1.06-2.36,7.15-4.71,14.31-7.08,21.46-.36,1.08-.03,1.6,1.06,1.93,3.48,1.05,6.95,2.17,10.41,3.29,2.09.67,2.42.57,3.2-1.56,2.51-6.85,4.95-13.73,7.46-20.58.41-1.11.13-1.57-1.01-1.86-2.11-.53-4.17-1.2-6.26-1.81-2.2-.63-4.4-1.25-6.79-1.93ZM22.99,120.31c-.17.04-.35.08-.52.12,0,1.57-.04,3.14,0,4.7.13,4.33-1.03,8.1-3.85,11.56-4.19,5.15-8.02,10.59-11.95,15.95-1.5,2.04-1.19,4.54.58,5.83,1.73,1.25,3.99.77,5.51-1.25,5.09-6.76,10.17-13.54,15.23-20.32,1.66-2.23,1.66-4.96,2.12-7.55.06-.34-.2-.81-.45-1.11-2.21-2.66-4.45-5.29-6.69-7.93ZM30.88,77.93c.16-1.87-.44-3.23-2.29-3.74-3.56-.99-7.14-1.93-10.71-2.9-.97-.26-1.6.06-1.89,1.04-.5,1.69-1,3.39-1.52,5.08-.23.74-.14,1.2.73,1.44,4.41,1.23,8.81,2.51,13.21,3.77.48.14.98.22,1.16-.4.43-1.45,1.48-2.72,1.3-4.28Z"/><path class="cls-1" d="M61.75,62.38c-.03,6.28-5.22,11.5-11.45,11.49-6.35,0-11.52-5.23-11.51-11.64.01-6.28,5.19-11.45,11.47-11.45,6.41,0,11.51,5.15,11.49,11.59ZM56.97,62.23c-.02-3.71-3.07-6.68-6.8-6.64-3.69.04-6.51,2.94-6.52,6.71-.01,3.72,2.9,6.77,6.49,6.79,3.77.02,6.86-3.07,6.84-6.85Z"/></g></svg>