<?xml version="1.0" encoding="UTF-8"?><svg id="Layer_2" xmlns="http://www.w3.org/2000/svg" viewBox="0 0 168.21 164.15"><defs><style>.cls-1,.cls-2{fill:#166f80;}.cls-2{stroke:#166f80;stroke-miterlimit:10;stroke-width:.5px;}</style></defs><g id="Layer_1-2"><path class="cls-1" d="M50.25,145.7c-15.07,0-30.14,0-45.21,0-4.42,0-5.04-.58-4.97-5.08.09-6.13-.45-12.28.49-18.37,1.41-9.2,4.02-17.95,9.85-25.42,3.54-4.54,7.98-7.88,13.5-9.61,9.43-2.97,18.19-7.38,26.83-12.1,1.53-.84,1.56-1.36.53-2.71-10.39-13.46-14.54-28.74-12.72-45.6,1.58-14.64,11.96-24.76,26.57-26.4,7.58-.85,14.97-.5,22.08,2.5,8.78,3.71,14.06,10.48,16.25,19.6,3.1,12.93.89,25.36-4.24,37.4-1.95,4.59-4.46,8.87-7.71,12.66-1.03,1.2-.79,1.74.48,2.44,8.18,4.49,16.51,8.59,25.33,11.75,4.08,1.46,8.02,1.7,12.29,1.65,22.76-.27,42.09,18.75,38.09,42.44-1.16,6.88-4.37,12.82-9.12,17.87-1.17,1.25-1.42,2.31-.8,3.88.98,2.51,1.71,5.12,2.57,7.67.39,1.16.22,2.17-.63,3.02-.92.92-2.02,1.07-3.22.56-3.68-1.57-7.38-3.1-11.04-4.72-1.06-.47-1.98-.53-3.12-.19-16.7,4.97-31,1.08-42.74-11.88-1.09-1.2-2.27-1.36-3.69-1.36-15.22.02-30.43,0-45.65,0ZM113.86,91.5c-4.3-1.57-8.2-3.16-11.96-5.06-1.42-.71-2.49-.63-3.82.22-7.75,4.92-15.7,9.5-23.76,13.89-1.94,1.06-3.57,1.11-5.52.07-8.16-4.36-16.23-8.88-24.02-13.88-.92-.59-1.77-1.27-3-.65-5.6,2.83-11.54,4.81-17.39,7.04-7.97,3.03-12.16,9.68-15.04,17.26-3.4,8.95-4.14,18.3-3.79,27.8.06,1.56.91,1.75,2.14,1.75,4.95-.02,9.9-.1,14.85.04,2.16.06,2.96-.54,2.89-2.82-.16-4.89-.08-9.78-.02-14.68.03-2.26,1.68-3.66,3.47-3.04,1.63.57,2.05,1.93,2.05,3.5,0,4.75.09,9.5-.04,14.24-.05,2.06.54,2.79,2.69,2.79,19.58-.07,39.17-.04,58.75-.04,2.44,0,2.4,0,1.57-2.19-5.1-13.56-2.77-25.78,6.7-36.66,3.59-4.12,8.04-7.1,13.25-9.57ZM43.57,33.85c.34,7.44,1.57,14.66,4.31,21.59,2.58,6.53,6.05,12.45,11.31,17.2,6.1,5.51,13.73,6.61,20.37,2.91,3.37-1.88,6.15-4.46,8.41-7.53,8.87-12.06,12.4-25.64,10.71-40.45-1.08-9.47-5.85-16.56-15.13-19.93-6.16-2.24-12.53-2.5-18.94-1.4-7.37,1.27-13.48,4.63-17.27,11.37-2.83,5.03-3.5,10.61-3.77,16.24ZM152.86,156.15c-.27-1.1-.29-1.72-.55-2.21-1.99-3.68-.82-6.21,2.09-9.11,8.95-8.88,10.81-22.42,4.92-33.55-5.18-9.79-13.56-15.3-24.35-16.87-11.7-1.7-22.02,1.57-30.1,10.36-14.95,16.28-7.89,40.83,13.03,48.47,7.46,2.72,15.11,2.96,22.67.25,2.51-.9,4.76-.84,7.1.43,1.51.82,3.17,1.38,5.2,2.23ZM71.42,95.49c.4-.15.76-.24,1.07-.41,6.82-3.62,13.46-7.57,20.06-11.58,1.18-.72.94-1.26-.13-1.82-1.35-.71-2.75-1.37-4-2.24-1.65-1.16-2.94-1.04-4.68.09-6.91,4.51-14.56,5.81-21.66,1.44-4.66-2.86-7.82-1.93-11.66.65-1.58,1.07-1.11,1.36.09,2.1,6.33,3.89,12.78,7.57,19.34,11.07.51.27,1.05.47,1.57.7Z"/><path class="cls-2" d="M111.66,124.02c.11-4.92,2.33-10.03,6.82-14.03,4.01-3.57,8.72-5.14,13.99-4.86,3.25.17,6.28,1.2,9.06,2.98.57.37.57.37.97-.21.27-.4.52-.81.82-1.2.39-.51.81-.45.99.18.5,1.77.99,3.55,1.45,5.33.17.63-.22,1.15-.91,1.23-1.38.15-2.77.26-4.15.39-.39.04-.78.1-1.16.1-.59,0-.8-.38-.48-.89.28-.46.58-.9.9-1.33.24-.33.21-.52-.14-.74-2-1.25-4.15-2.08-6.47-2.34-5.71-.64-10.55,1.19-14.38,5.59-2.59,2.97-3.95,6.51-3.99,10.52-.07,6.27,2.45,11.16,7.53,14.64,1.71,1.17,3.61,1.9,5.63,2.31,1.24.25,1.87,1.3,1.42,2.36-.32.76-1.08,1.14-1.94.96-5.8-1.23-10.25-4.43-13.29-9.65-1.81-3.12-2.68-6.52-2.67-11.34Z"/><path class="cls-2" d="M131.59,118.96c0,1.78.01,3.55,0,5.33,0,.4.11.63.47.82,3.14,1.65,6.27,3.32,9.4,4.98.95.5,1.28,1.2.93,1.95-.39.82-1.15,1-2.13.49-3.62-1.92-7.23-3.84-10.85-5.75-.35-.18-.5-.41-.5-.81,0-4.02,0-8.05,0-12.07,0-.22.03-.45.08-.67.15-.68.74-1.14,1.37-1.09.7.06,1.22.61,1.23,1.35.01,1.83,0,3.66,0,5.49h0Z"/><path class="cls-2" d="M140.98,138.94c.87,0,1.48.43,1.72,1.09.24.64.05,1.4-.48,1.84-.41.34-.86.62-1.34.84-.65.3-1.43.11-1.89-.45-.46-.57-.54-1.41-.08-1.98.58-.73,1.35-1.19,2.08-1.34Z"/><path class="cls-2" d="M137.19,143.13c0,.76-.48,1.41-1.21,1.61-.38.1-.76.19-1.14.26-.9.17-1.74-.41-1.94-1.34-.18-.82.39-1.7,1.25-1.92.36-.09.72-.2,1.09-.26,1.07-.18,1.95.57,1.95,1.65Z"/><path class="cls-2" d="M149.91,119.45c0,.79-.47,1.4-1.21,1.59-.73.18-1.47-.12-1.8-.81-.22-.47-.4-.96-.54-1.46-.21-.74.17-1.53.85-1.88.68-.35,1.49-.18,1.98.43.33.4.73,1.6.73,2.14Z"/><path class="cls-2" d="M150.82,125.13c0,.17,0,.35,0,.52-.02.89-.63,1.57-1.46,1.64-.83.08-1.58-.49-1.74-1.34-.11-.57-.12-1.14-.02-1.71.16-.87.86-1.44,1.7-1.38.84.05,1.46.71,1.51,1.6.01.23,0,.45,0,.68h0Z"/><path class="cls-2" d="M150.01,130.85c-.1.58-.27,1.3-.67,1.91-.44.68-1.28.88-1.98.54-.73-.35-1.1-1.12-.88-1.95.12-.45.26-.9.45-1.33.3-.71,1.07-1.09,1.81-.92.76.18,1.27.82,1.28,1.74Z"/><path class="cls-2" d="M147.25,136.24c0,.94-1.19,2.43-2.02,2.58-.64.11-1.18-.09-1.57-.62-.4-.54-.49-1.15-.17-1.76.29-.53.65-1.02,1.11-1.42.51-.44,1.1-.5,1.71-.22.63.29.87.84.94,1.44Z"/></g></svg>