<?xml version="1.0" encoding="UTF-8"?><svg id="Layer_2" xmlns="http://www.w3.org/2000/svg" viewBox="0 0 179.03 174.41"><defs><style>.cls-1{fill:#166f80;}</style></defs><g id="Layer_1-2"><path class="cls-1" d="M147.92,130.11c.09,4.44-.33,9.74-2.51,14.75-2.17,4.99-5.66,6.81-10.99,6.08-11.92-1.63-23.67-4.28-35.57-6.05-3.56-.53-7.14-.63-10.74-.58-1.4.02-1.56.42-.98,1.66,3.45,7.35,7.57,14.23,13.28,20.08,2.3,2.36,1.98,4.7-1.03,6.03-5.57,2.45-11.42,2.92-17.37,1.61-1.65-.36-2.72-1.52-3.5-3.03-3.52-6.73-7.16-13.4-10.61-20.17-.98-1.91-1.94-2.56-4.14-1.87-5.9,1.85-11.79,1.88-17.46-1-.3-.15-.64-.25-.88-.46-2.1-1.92-4.38-2.06-6.98-1.02-1.86.74-3.52-.28-4.98-1.37-5.1-3.8-7.42-9.11-7.91-15.29-.21-2.66-.06-5.31,1.09-7.84.87-1.92,2.15-3.24,4.26-3.48,2.74-.31,4.33-1.71,5.67-4.2,3.03-5.68,8.21-8.72,14.28-10.39,6.67-1.84,13.28-3.82,19.66-6.55,8.64-3.71,15.76-9.59,22.76-15.67,6.28-5.46,12.72-10.73,19.21-15.94,3.15-2.53,6.39-2.7,9.84-.89,3.5,1.84,6.11,4.7,8.37,7.86,6.39,8.97,10.3,19.08,13.21,29.61,2.45,8.89,4.09,17.93,4.04,28.14ZM107.36,75.85c-.51-.08-.81.45-1.19.77-3.81,3.23-7.64,6.43-11.39,9.72-7.65,6.71-15.74,12.72-25.37,16.31-1.73.65-3.13,1.39-4.04,3.2-6.13,12.21-.79,27.95,11.52,33.75,1.18.56,2.31.72,3.63.53,6.21-.89,12.44-.96,18.67-.08,7.24,1.01,14.39,2.55,21.59,3.82,1.62.29,3.25.96,4.85.48-13.63-20.9-19.79-43.63-18.26-68.5ZM111.88,86.21c-.04,2.66.29,6.1.73,9.55.19,1.55.69,1.9,2.15,1.48,3.19-.94,6.45-1.63,9.61-2.65,2.98-.96,5.4-.22,7.4,1.99,4.33,4.81,5.85,10.51,4.98,16.86-.46,3.36-2.31,5.57-5.73,6.37-2.46.57-4.9,1.25-7.32,1.94-4.13,1.19-4.18,1.23-2.41,5.15,2.69,5.98,5.67,11.8,10.4,16.46,1.69,1.66,3.56,3.6,6.21,2.87,2.81-.77,3.52-3.45,4.12-5.93,1.19-4.9,1.37-9.87,1.03-14.89-1.03-15.17-4.92-29.55-11.83-43.08-2.46-4.82-5.29-9.46-9.69-12.81-3.22-2.46-6.08-1.63-7.63,2.12-1.82,4.41-2.04,9.07-2.01,14.57ZM59.98,105.96c-2.64.75-5.05,1.45-7.46,2.11-10.69,2.93-15.61,10.5-13.96,21.48,1.04,6.91,6.66,13.34,12.91,14.89,6.77,1.68,12.86-1.17,19.54-2.54-11.92-9.65-15.57-21.47-11.03-35.94ZM86.1,169.8c3.37-.21,5.88-.41,8.34-1.04.99-.25,1.49-.6.58-1.56-5.63-6.01-9.38-13.22-12.86-20.58-.59-1.26-1.36-1.68-2.66-1.42-2.22.43-4.43.86-6.66,1.23-1.38.23-1.35.84-.78,1.91,3.26,6.11,6.54,12.21,9.66,18.39,1.15,2.28,2.68,3.39,4.36,3.08ZM120.63,103.23c.07-2.63.06-2.64-2.06-2.12-.97.24-1.91.61-2.88.77-1.55.25-1.99,1.1-1.62,2.54.93,3.54,1.77,7.11,2.78,10.62.98,3.4,1.06,3.38,4.54,2.35.64-.19,1.27-.41,1.92-.51,1.37-.2,1.82-.55.87-1.96-2.44-3.63-3.35-7.78-3.57-11.69ZM132.21,110.03c-.17-3.59-1.21-7.03-3.65-9.94-1.13-1.34-1.99-1.28-2.55.03-1.47,3.47.73,11.78,3.69,14.02,1.03.78,1.67.51,2.12-.62.43-1.08.32-2.22.4-3.5ZM30.12,128.08c.49,4.95,1.75,9.54,6.01,12.7.51.38,1.23.9,1.79.3.51-.55-.23-1.08-.52-1.54-2.89-4.65-4.17-9.72-4.08-15.17,0-.56.41-1.3-.39-1.55-.87-.27-1.57.18-1.96.97-.65,1.34-.8,2.8-.85,4.29Z"/><path class="cls-1" d="M156.45,97.49c-1.59.08-2.53-.58-2.7-1.98-.18-1.51.77-2.32,2.13-2.69,4.42-1.2,8.85-2.39,13.28-3.58,2.18-.58,4.37-1.13,6.55-1.74,1.52-.42,2.71-.04,3.19,1.5.48,1.55-.32,2.64-1.8,3.05-6.66,1.82-13.34,3.58-20.02,5.36-.25.07-.53.07-.62.08Z"/><path class="cls-1" d="M167.41,63.1c-.08.97-.63,1.63-1.34,2.16-5.14,3.78-10.27,7.56-15.43,11.32-1.28.93-2.66,1.11-3.67-.34-.95-1.35-.39-2.56.83-3.45,5.19-3.82,10.39-7.62,15.6-11.43.85-.62,1.77-.98,2.77-.37.79.48,1.21,1.21,1.25,2.12Z"/><path class="cls-1" d="M162.65,112.48c3.64.29,7.29.57,10.93.89,2,.17,3.14,1.27,2.98,2.77-.16,1.45-1.4,2.27-3.3,2.11-3.71-.32-7.42-.63-11.11-1.04-2.6-.29-3.54-1.14-3.37-2.76.16-1.57,1.35-2.18,3.88-1.96Z"/><path class="cls-1" d="M138.28,63.89c-1.99-.07-3.13-1.77-2.18-3.28,2.22-3.56,4.6-7.01,7.03-10.43.8-1.12,2.05-1.22,3.19-.37,1.07.79,1.3,1.91.58,3.01-2.23,3.4-4.52,6.75-6.82,10.1-.48.7-1.21,1.02-1.8.98Z"/><path class="cls-1" d="M169.68,144.28c-.38-.14-.96-.29-1.48-.57-3.09-1.7-6.18-3.39-9.23-5.16-1.89-1.09-2.38-2.38-1.59-3.7.8-1.33,2.09-1.46,4.01-.39,3.14,1.75,6.28,3.48,9.4,5.26,1.07.61,1.67,1.56,1.32,2.85-.3,1.09-1.12,1.6-2.43,1.71Z"/><path class="cls-1" d="M5.64,68.37c.05-2.17.88-3.92,1.58-5.7.46-1.18.89-2.37,1.37-3.54.46-1.11.18-2-.72-2.72-1.4-1.13-2.8-2.25-4.21-3.36-.8-.63-1.55-1.33-2.21-2.11-1.94-2.34-1.94-5.03.01-7.37,1.32-1.59,3.03-2.72,4.64-3.97,3.19-2.47,3.21-2.56,1.72-6.29-.68-1.7-1.49-3.36-1.92-5.16-.87-3.67.69-6.29,4.34-7.21,2.02-.51,4.09-.71,6.16-.96,2.57-.32,3.15-.93,3.5-3.51.33-2.5.42-5.07,1.41-7.44,1.05-2.5,3.17-3.61,5.8-3.18,2.29.37,4.35,1.34,6.47,2.21,2.98,1.22,3.69,1.04,5.66-1.56,1.14-1.49,2.19-3.06,3.53-4.38,2.85-2.79,5.85-2.78,8.7.03,1.52,1.5,2.67,3.3,4,4.95,1.52,1.88,1.85,2.03,4.15,1.29,1.59-.52,3.12-1.19,4.68-1.81,1.07-.43,2.19-.66,3.32-.8,2.74-.33,4.92,1.38,5.72,4.43.54,2.06.73,4.19.99,6.29.31,2.57.92,3.15,3.52,3.49,2.38.31,4.81.41,7.08,1.28,2.95,1.14,4.14,3.48,3.47,6.56-.45,2.05-1.38,3.93-2.16,5.86-1.28,3.18-1.19,3.55,1.51,5.64,1.52,1.17,3.11,2.25,4.45,3.64,2.71,2.81,2.71,5.84-.03,8.64-1.4,1.44-3.08,2.55-4.65,3.79-2.4,1.89-2.52,2.3-1.4,5.16.76,1.94,1.71,3.8,2.2,5.84.88,3.66-.71,6.28-4.35,7.21-2.02.51-4.09.71-6.16.96-2.56.32-3.14.93-3.49,3.52-.33,2.5-.42,5.06-1.41,7.44-1.05,2.49-3.18,3.61-5.8,3.18-2.33-.38-4.43-1.39-6.58-2.26-2.84-1.15-3.47-1-5.4,1.42-.76.96-1.48,1.96-2.22,2.93-3.86,5-7.74,4.98-11.62-.04-.85-1.1-1.68-2.21-2.55-3.3-1.54-1.93-1.81-2.05-4.13-1.29-1.55.5-3.05,1.15-4.56,1.77-1.11.45-2.27.7-3.44.84-2.73.34-4.92-1.37-5.73-4.42-.54-2.06-.73-4.19-.99-6.29-.32-2.57-.92-3.15-3.51-3.5-2.54-.34-5.14-.41-7.53-1.47-2.11-.93-3.19-2.58-3.2-4.72ZM67.95,84.38c.77,0,1.03-.61,1.14-1.28.33-2.01.63-4.03.93-6.05.65-4.25,2.54-6.15,6.8-6.8,2.01-.31,4.03-.6,6.03-.94,1.08-.18,1.52-.77,1.17-1.93-.51-1.69-1.22-3.29-1.89-4.92-2.07-5.02-1.42-7.45,2.88-10.73.97-.74,1.96-1.46,2.92-2.23,2.41-1.95,2.42-2.52.04-4.44-1.05-.85-2.15-1.63-3.21-2.46-3.96-3.09-4.61-5.47-2.79-10.15.27-.69.58-1.35.84-2.04.43-1.14.94-2.26,1.25-3.45.24-.92-.09-1.43-.93-1.67-.51-.15-1.03-.23-1.55-.32-1.97-.32-3.95-.58-5.91-.95-3.01-.57-4.85-2.41-5.41-5.43-.39-2.09-.67-4.19-.98-6.3-.33-2.23-.88-2.57-3.01-1.83-.23.08-.45.19-.68.27-1.84.67-3.6,1.51-5.48,2.09-2.79.86-5.12.27-7.1-1.89-1.3-1.42-2.38-3.01-3.57-4.51-2.06-2.58-2.62-2.59-4.67-.02-1.27,1.6-2.4,3.3-3.83,4.78-1.82,1.89-3.98,2.45-6.48,1.77-1.42-.38-2.77-.96-4.13-1.51-1.13-.46-2.23-.99-3.44-1.24-1.02-.22-1.57.16-1.77,1.14-.08.4-.18.8-.24,1.2-.25,1.74-.47,3.48-.75,5.22-.62,3.9-2.55,5.84-6.44,6.46-1.77.28-3.55.49-5.32.76-2.45.37-2.75.91-1.85,3.25.72,1.87,1.48,3.72,2.17,5.6,1.07,2.92.48,5.44-1.86,7.55-1.46,1.32-3.09,2.41-4.6,3.65-2.37,1.94-2.36,2.5.03,4.45,1.58,1.29,3.29,2.42,4.77,3.83,2.14,2.03,2.67,4.43,1.71,7.16-.7,2-1.54,3.96-2.29,5.95-.82,2.18-.46,2.76,1.83,3.09,1.69.24,3.39.46,5.08.74,4.36.71,6.09,2.44,6.8,6.79.28,1.73.5,3.48.75,5.22.32,2.14.91,2.5,2.97,1.79.23-.08.45-.18.68-.27,1.75-.68,3.48-1.4,5.24-2.03,2.93-1.05,5.42-.39,7.51,1.96,1.36,1.53,2.47,3.25,3.8,4.81,1.73,2.04,2.24,2.04,3.97,0,1.38-1.62,2.52-3.41,3.96-4.98,1.99-2.17,4.34-2.72,7.11-1.86,1.91.59,3.73,1.42,5.59,2.16.69.27,1.39.47,2.2.55Z"/><path class="cls-1" d="M63.88,47.11c.49-1.42,1.01-2.84,1.47-4.28.36-1.13,1.12-1.72,2.26-1.69,1.15.03,1.84.72,2.18,1.82.42,1.34.9,2.66,1.36,3.99.1,0,.21-.01.31-.02.51-2,1.01-4,1.52-6,.21-.83.4-1.67.68-2.48.39-1.13,1.43-1.72,2.49-1.49,1.13.25,1.91,1.24,1.66,2.47-.48,2.36-1.09,4.69-1.66,7.03-.68,2.78-1.37,5.55-2.06,8.32-.06.24-.13.47-.19.71-.31,1.16-.92,2.02-2.22,2.1-1.06.07-1.86-.65-2.31-2-.5-1.51-1-3.02-1.5-4.53-.06-.19-.07-.41-.44-.51-.56,1.69-1.12,3.38-1.69,5.07-.22.66-.48,1.31-1.13,1.69-1.36.79-2.87.05-3.33-1.7-.77-2.92-1.48-5.86-2.21-8.79-.5-2.02-1.01-4.04-1.5-6.07-.1-.4-.18-.8-.22-1.2-.14-1.41.46-2.34,1.65-2.59,1.13-.24,2.21.44,2.57,1.74.56,2.05,1.05,4.12,1.56,6.18.19.74.37,1.49.56,2.23.08,0,.16,0,.24,0Z"/><path class="cls-1" d="M24.85,46.24c0,2.69,0,5.38,0,8.07,0,.62,0,1.23-.22,1.82-.37.92-1.04,1.5-2.05,1.47-1.03-.03-1.78-.54-2.03-1.62-.07-.32-.16-.64-.17-.96-.01-5.19-.01-10.39,0-15.58,0-.91.3-1.7,1.11-2.19,1.1-.68,2.22-.35,3.24,1.01,2.07,2.74,4.11,5.5,6.16,8.24.48.64.98,1.28,1.73,1.85,0-1.57,0-3.14,0-4.71,0-1.39-.02-2.78.01-4.17.04-1.5.88-2.48,2.12-2.55,1.24-.07,2.17.81,2.27,2.36.11,1.59.06,3.19.06,4.78,0,3.31,0,6.63,0,9.94,0,.57-.06,1.14-.13,1.71-.12.95-.65,1.57-1.57,1.82-.88.24-1.64-.04-2.19-.72-1.05-1.3-2.05-2.65-3.05-3.99-1.67-2.22-3.32-4.44-4.98-6.66-.1.03-.2.05-.3.08Z"/><path class="cls-1" d="M40.74,47.2c0-2.37-.02-4.74,0-7.11.02-2.45.8-3.21,3.25-3.21,2.24,0,4.48-.02,6.73,0,1.62.02,2.59.84,2.61,2.14.02,1.35-.97,2.18-2.66,2.19-1.47.01-2.94.03-4.4,0-.8-.02-1.07.31-1.06,1.09.05,3.16-.32,2.69,2.62,2.74,1.1.02,2.21-.03,3.3.06,1.38.12,2.22.99,2.22,2.16,0,1.16-.83,2.07-2.21,2.16-1.58.1-3.18.08-4.77.06-.83-.01-1.17.29-1.16,1.15.05,3.16-.3,2.63,2.53,2.68,1.14.02,2.28-.02,3.42.02,1.27.05,2.12.89,2.17,2.05.05,1.16-.74,2.17-1.99,2.21-2.81.08-5.62.09-8.43,0-1.4-.04-2.1-1.03-2.14-2.78-.05-1.96-.02-3.92-.02-5.89,0-.57,0-1.14,0-1.72Z"/></g></svg>