<?xml version="1.0" encoding="UTF-8"?><svg id="Layer_2" xmlns="http://www.w3.org/2000/svg" viewBox="0 0 162.3 164.15"><defs><style>.cls-1{fill:#166f80;}</style></defs><g id="Layer_1-2"><path class="cls-1" d="M62.77,50.36c16.19,0,32.38,0,48.58,0,9.01,0,14.48,5.45,14.49,14.43.01,22.11.01,44.21,0,66.32,0,8.74-5.49,14.26-14.18,14.27-21.59.02-43.18.05-64.77-.05-2.53-.01-4.39.78-6.2,2.45-5.41,4.98-10.93,9.84-16.42,14.74-1.13,1.01-2.25,2.14-3.96,1.39-1.8-.79-2.09-2.43-2.11-4.14-.03-3.98-.08-7.97.01-11.95.04-1.89-.68-2.54-2.51-2.45-2.24.1-4.48.1-6.66-.68C3.39,142.65.02,138.03.01,132.02c-.02-22.71-.02-45.42,0-68.12,0-7.8,5.67-13.5,13.51-13.52,16.42-.04,32.83-.01,49.25-.01ZM24.43,154.29c1.37-1.16,2.22-1.85,3.04-2.58,3.63-3.26,7.32-6.46,10.85-9.83,1.91-1.82,3.93-2.62,6.62-2.61,22.04.09,44.09.06,66.14.05,6.23,0,8.76-2.51,8.76-8.73.01-21.81.01-43.62,0-65.43,0-6.22-2.55-8.76-8.75-8.76-25.27,0-50.54,0-75.81,0-7.35,0-14.7-.03-22.05.03-3.63.03-6.21,2.19-7.15,5.69-.32,1.18-.36,2.37-.36,3.58,0,21.44,0,42.87,0,64.31,0,.53-.01,1.05.02,1.58.27,4.89,3.21,7.7,8.09,7.75,2.32.02,4.65-.02,6.97.04,2.12.05,3.4,1.18,3.51,3.32.12,2.33.09,4.66.11,6.99.01,1.32,0,2.63,0,4.62Z"/><path class="cls-1" d="M137.4,10.23c-2.71,2.4-5.33,4.71-7.93,7.04-2.07,1.85-4.17,3.67-6.17,5.6-1.5,1.45-3.18,2-5.27,1.99-22.19-.05-44.39-.04-66.58-.03-6.54,0-8.95,2.42-8.98,8.97,0,1.88.01,3.77-.18,5.63-.18,1.79-1.26,2.99-3.14,2.85-1.76-.13-2.62-1.41-2.65-3.1-.05-2.86-.2-5.73.07-8.57.66-6.9,6.34-11.8,13.59-11.82,21.74-.03,43.49-.05,65.23.04,2.53.01,4.39-.76,6.2-2.43,5.41-4.98,10.93-9.84,16.42-14.75,1.13-1.01,2.24-2.13,3.96-1.41,1.84.77,2.1,2.42,2.11,4.13.03,3.99.08,7.97,0,11.96-.04,1.86.62,2.57,2.49,2.48,2.24-.1,4.48-.1,6.67.68,5.65,2.01,9.05,6.65,9.05,12.65.02,22.79.02,45.57,0,68.36,0,7.25-5.34,12.94-12.62,13.25-4.94.22-9.9.09-14.84.04-2.2-.02-3.48-1.22-3.42-3.04.07-2.1,1.46-2.89,3.3-2.92,4.5-.07,9-.02,13.5-.05,5.33-.04,8.35-3.02,8.36-8.43.03-22.04,0-44.07.02-66.11,0-4.89-3.04-8.84-8.58-8.43-1.79.13-3.6.03-5.4.02-3.65-.03-4.65-1-4.72-4.72-.05-2.56,0-5.11-.02-7.67,0-.65.12-1.34-.47-2.2Z"/><path class="cls-1" d="M77.29,88.98c-.19,6.11-3,10.59-8.58,13.1-2,.9-3.02,2.02-2.81,4.24.12,1.2.01,2.43-.94,3.36-.81.78-1.77,1.11-2.89.75-1.28-.41-1.93-1.34-2.13-2.64-.82-5.11,1.14-8.74,5.89-10.88,4.3-1.94,6.4-5.86,5.33-9.96-1.17-4.48-4.74-6.97-9.4-6.57-3.82.33-6.96,3.59-7.44,7.83-.14,1.24-.33,2.4-1.53,3.07-.99.56-2.01.58-2.99,0-1.17-.7-1.45-1.86-1.41-3.12.19-6.03,4.18-11.18,10.2-13.18,5.55-1.84,11.81.08,15.52,4.8,2.1,2.68,3.36,5.67,3.17,9.19Z"/><path class="cls-1" d="M59.91,118.81c-.02-2.07,1.18-3.5,2.96-3.52,1.75-.02,3.02,1.43,3.04,3.48.01,1.98-1.28,3.51-3,3.55-1.72.04-2.97-1.42-2.99-3.5Z"/></g></svg>