<?xml version="1.0" encoding="UTF-8"?><svg id="Layer_2" xmlns="http://www.w3.org/2000/svg" viewBox="0 0 164.74 143.63"><defs><style>.cls-1{fill:#166f80;}</style></defs><g id="Layer_1-2"><path class="cls-1" d="M83.71,0c22.89,0,45.79-.01,68.68,0,6.02,0,10.72,3.59,12,9.03.3,1.27.24,2.56.24,3.84,0,30.62-.16,61.23.11,91.85.07,8.41-6.13,16.09-16.01,16.01-13.55-.1-27.1-.03-40.65-.02-3.42,0-3.4,0-3.46,3.41-.06,3.52.33,6.99.8,10.47.21,1.56.96,2.01,2.41,1.99,4.78-.05,9.56-.02,14.33-.01.93,0,1.86-.03,2.75.31,1.66.65,2.58,1.86,2.33,3.65-.23,1.74-1.29,2.84-3.1,3.04-.63.07-1.28.05-1.92.05-26.6,0-53.2,0-79.8,0-.64,0-1.29.03-1.92-.05-1.9-.22-2.98-1.39-3.14-3.23-.16-1.8.84-3.01,2.54-3.49.81-.23,1.69-.26,2.54-.27,4.64-.02,9.27-.09,13.91.02,1.85.04,2.51-.74,2.73-2.44.48-3.63.51-7.27.56-10.92.02-1.99-.73-2.58-2.65-2.57-13.41.06-26.81.04-40.22.02-2.5,0-4.97-.16-7.35-1.11C3.59,117.26.01,112.11.01,105.81,0,75.48,0,45.15.01,14.82.02,6.47,6.41.04,14.82.02,37.78-.02,60.75,0,83.71,0ZM82.33,91.03c24.32,0,48.63-.02,72.95.04,2.03,0,2.68-.55,2.68-2.64-.07-24.96-.04-49.93-.05-74.89,0-4.73-1.74-6.48-6.41-6.48-45.21,0-90.42,0-135.63,0-6.09,0-9.14,3.1-9.14,9.29,0,23.96,0,47.92,0,71.88,0,2.79,0,2.8,2.87,2.8,24.25,0,48.49,0,72.74,0ZM82.43,98.07c-23.88,0-47.77,0-71.65,0-.57,0-1.15.05-1.71,0-1.71-.18-2.53.43-2.37,2.28.12,1.42.01,2.86.03,4.29.05,5.48,2.79,8.48,8.22,9.01.85.08,1.71.07,2.56.07,43.2,0,86.41,0,129.61,0,1.28,0,2.56-.1,3.83-.25,3.54-.4,5.6-2.51,6.57-5.85.63-2.18.34-4.41.37-6.61.04-2.91,0-2.91-2.96-2.91-24.17,0-48.34,0-72.51,0ZM82.25,136.58c4.85,0,9.69-.04,14.54.02,1.4.02,1.94-.35,1.66-1.84-.73-3.88-1-7.8-.8-11.74.1-1.86-.7-2.32-2.39-2.31-8.77.05-17.54.07-26.3-.01-1.95-.02-2.42.76-2.36,2.56.13,3.71.21,7.46-.59,11.11-.41,1.86.25,2.26,1.91,2.24,4.78-.06,9.55-.02,14.33-.02Z"/><path class="cls-1" d="M110.26,56c0,3-.02,6,0,9.01.02,1.88-.87,3.11-2.51,3.86-7.83,3.61-15.67,7.2-23.5,10.82-1.33.61-2.57.6-3.9-.02-7.83-3.62-15.67-7.22-23.5-10.82-1.75-.8-2.51-2.15-2.5-4.09.05-5.79-.06-11.58.06-17.37.04-1.86-.61-2.91-2.23-3.64-1.88-.85-3.72-1.82-5.52-2.82-2.9-1.62-2.96-4.87-.02-6.39,11.27-5.83,22.59-11.57,33.89-17.33,1.31-.67,2.6-.52,3.89.14,11.04,5.65,22.09,11.3,33.15,16.91,1.8.91,2.61,2.24,2.59,4.26-.06,5.36,0,10.72-.03,16.08-.01,2.64-1.21,4.12-3.27,4.19-2.13.07-3.58-1.46-3.66-4.1-.09-2.86.01-5.72-.08-8.58-.02-.7.6-2.04-.76-1.98-1.11.05-2.12.72-2.1,2.23.05,3.22.02,6.43.02,9.65h-.02ZM108.84,37.91c-.3-.32-.42-.52-.59-.61-8.24-4.21-16.5-8.41-24.74-12.63-.95-.49-1.74-.29-2.62.16-7.87,4.01-15.75,8-23.62,12.01-.41.21-1.05.3-.98.96.05.48.58.59.94.78,7.87,4.01,15.74,8.01,23.6,12.04,1.06.54,1.97.52,3.02-.02,3.93-2.02,7.89-3.98,11.83-5.97,4.36-2.21,8.71-4.44,13.15-6.71ZM61.4,56.03c0,1.71.07,3.43-.02,5.14-.08,1.5.51,2.36,1.87,2.97,5.91,2.66,11.8,5.37,17.67,8.11,1,.47,1.81.47,2.81,0,5.87-2.75,11.76-5.46,17.67-8.12,1.37-.62,1.89-1.5,1.86-2.98-.07-3.43-.08-6.86,0-10.29.05-1.81-.46-2.12-2.06-1.29-5.37,2.79-10.81,5.46-16.18,8.24-1.8.93-3.43.99-5.26.03-5.43-2.84-10.93-5.55-16.37-8.37-1.45-.75-2.07-.59-2.01,1.17.07,1.78.01,3.57.01,5.36Z"/></g></svg>