<?xml version="1.0" encoding="UTF-8"?><svg id="Layer_2" xmlns="http://www.w3.org/2000/svg" viewBox="0 0 160 157.62"><defs><style>.cls-1{fill:#166f80;}</style></defs><g id="Layer_1-2"><path class="cls-1" d="M159.9,81.71c0,13.15-.25,26.31.1,39.46.19,7.32-4.89,13.43-13.37,13.37-12.65-.08-25.31-.02-37.96-.02-2.96,0-3,.02-1.79,2.73,1.89,4.24,3.86,8.45,5.72,12.71.63,1.44,1.49,2.14,3.1,1.97.99-.1,2.01-.07,3,.05,1.49.17,2.29,1.15,2.39,2.59.1,1.4-.67,2.36-1.98,2.68-1.1.27-2.26.36-3.4.36-23.8.02-47.61.02-71.41,0-1.07,0-2.15-.09-3.19-.29-1.43-.27-2.32-1.18-2.26-2.68.06-1.55.94-2.5,2.53-2.7.14-.02.29-.05.43-.02,3.93.89,5.56-1.29,6.78-4.62,1.32-3.61,3.13-7.05,4.69-10.58.94-2.13.89-2.2-1.51-2.21-12.8,0-25.59,0-38.39,0-5.61,0-9.99-2.09-12.48-7.4C.12,125.51,0,123.83,0,122.1c0-26.95,0-53.9.01-80.85,0-7.09,5.16-12.27,12.31-12.35,5.93-.07,11.87-.08,17.8.02,1.96.03,2.68-.59,2.56-2.57-.3-5.36.28-10.61,3.04-15.34C40.59,2.68,48.3-.24,57.49.02c8.97.25,15.56,4.35,19.22,12.66,1.85,4.2,2.15,8.7,2.04,13.25-.06,2.66,2.26,4.02,4.67,2.81,1.03-.51.71-1.48.69-2.28-.15-5.2,1.37-9.9,4.46-14.03,3.77-5.04,8.81-8.29,15.09-8.85,8.68-.78,17.46-1.03,26.1.05,12.04,1.51,20.07,11.58,19.58,23.7-.05,1.29.39,1.72,1.52,2.1,6.3,2.08,9.04,5.95,9.05,12.62,0,13.22,0,26.45,0,39.67ZM154.43,76.58c0-11.44.02-22.87,0-34.31,0-3.81-1.71-6.38-4.56-7.24-1.51-.46-2.46-.22-3.24,1.36-2.41,4.88-6.31,8.2-11.28,10.36-3.86,1.67-7.91,1.82-12,1.65-2.69-.11-4.73.67-6.48,2.89-1.75,2.21-3.59,4.44-6.25,5.77-2.53,1.27-5,1.43-7.24-.37-2.2-1.76-2.94-4.22-2.22-6.93.4-1.5-.11-1.96-1.44-2.4-5.05-1.68-9.37-4.63-11.87-9.31-1.62-3.03-3.65-3.78-6.64-3.38-.14.02-.29.02-.43,0-1.45-.15-2.03.46-2.07,1.95-.16,6.31-2.6,11.68-7.16,16-2.06,1.95-1.36,4.27-1.15,6.42.15,1.56,2.03,1.29,3.19,1.59,13.67,3.57,24.34,16.43,25.39,30.52.48,6.5.2,13,.22,19.5,0,2.03.59,2.71,2.68,2.71,16.65-.07,33.31-.08,49.96,0,2.09,0,2.65-.63,2.64-2.68-.09-11.36-.04-22.73-.04-34.09ZM79.77,128.76c22.36,0,44.73,0,67.09,0,4.29,0,6.71-1.95,7.44-5.89.63-3.39.25-3.85-3.23-3.85-39.44,0-78.88,0-118.32,0-8.29,0-16.58.04-24.86-.03-1.87-.02-2.52.59-2.45,2.47.19,4.68,2.82,7.29,7.67,7.3,22.22.01,44.44,0,66.66,0ZM5.47,76.5c0,10.93-.01,21.86,0,32.79,0,4.47-.55,3.86,3.99,4.06,2.27.1,2.73-.79,2.74-2.86.02-6.64-.41-13.29.28-19.91.95-9.07,4.95-16.58,11.75-22.63,4.2-3.73,9.04-6.2,14.49-7.53.85-.21,1.91-.16,2.36-1.21.7-1.64-.1-5.4-1.44-6.73-4.37-4.31-6.74-9.53-6.94-15.65-.06-1.71-.66-2.21-2.29-2.19-5.5.07-11,.02-16.5.03-6.09.01-8.44,2.35-8.44,8.41,0,11.14,0,22.29,0,33.43ZM116.71,9.2h0c-.36,0-.71-.02-1.07,0-4.28.12-8.63-.56-12.83.33-7.86,1.66-13.09,8.75-12.91,16.96.16,7.71,5.98,14.53,13.66,15.99,4.97.95,5.31,1.53,3.77,6.41-.04.14-.12.27-.13.41-.05.86-1.04,1.93.04,2.51,1.02.55,1.85-.45,2.53-1.17,1.57-1.66,3.28-3.23,4.6-5.08,1.7-2.38,3.85-3.01,6.64-2.95,3.9.08,7.82.43,11.65-.98,7.49-2.75,11.96-10.63,10.56-18.96-1.27-7.52-8.12-13.38-15.8-13.47-3.57-.04-7.14,0-10.71,0ZM93.21,101.3h-.01c0-2.71.07-5.43-.01-8.14-.31-10.02-4.87-17.68-13.05-23.33-1.33-.92-2.06-.65-2.93.62-2.42,3.53-4.96,6.99-7.45,10.47-1.05,1.46-2.22,2.67-4.27,2.03-.44-.14-.92-.12-1.13.33-.77,1.67-2.02,3.31-1.73,5.2,1.18,7.69,2.53,15.35,3.8,23.02.2,1.23.74,1.88,2.12,1.83,2.42-.09,4.86-.07,7.28,0,1.41.04,1.89-.55,1.87-1.91-.05-3.21-.04-6.43,0-9.64.02-2.37,1.14-3.76,2.9-3.75,1.79.01,2.82,1.34,2.85,3.78.03,3.21.05,6.43,0,9.64-.02,1.39.53,1.92,1.9,1.87,1.85-.07,3.72-.12,5.57.01,1.86.13,2.34-.7,2.3-2.39-.09-3.21-.02-6.43-.02-9.64ZM18.17,100.19c0,4.23.03,7.66-.02,11.09-.02,1.44.49,2.1,2,2.04,1.78-.08,3.58-.13,5.36.01,1.91.15,2.5-.58,2.43-2.45-.12-3.28-.07-6.57,0-9.86.04-1.71.95-2.92,2.75-2.95,1.78-.03,2.7,1.12,2.91,2.83.08.63.05,1.28.05,1.93,0,2.79.06,5.58-.02,8.36-.04,1.54.49,2.22,2.1,2.14,2.07-.1,4.16-.18,6.21.02,2.17.21,2.82-.77,3.13-2.71,1.09-7.06,2.22-14.11,3.55-21.12.46-2.4-.85-4.09-1.56-6.05-.19-.54-.71-.65-1.26-.49-1.94.56-3.09-.51-4.11-1.94-2.53-3.55-5.12-7.06-7.6-10.64-.81-1.17-1.47-1.47-2.75-.61-6.07,4.04-10.14,9.5-12.23,16.51-1.45,4.85-.7,9.8-.94,13.9ZM79.86,151.91c8.36,0,16.73-.02,25.09.02,1.56,0,2.12-.33,1.36-1.97-2.06-4.4-4.05-8.83-5.98-13.3-.69-1.61-1.71-2.18-3.46-2.17-11.3.07-22.59.07-33.89,0-1.77-.01-2.75.62-3.44,2.2-1.78,4.13-3.7,8.21-5.52,12.33-1.27,2.88-1.25,2.89,2.02,2.89,7.94,0,15.87,0,23.81,0ZM38.43,33.78s.01,0,.02,0c0,1-.03,2,0,3,.31,7.9,6.25,14.83,13.81,16.13,8.45,1.46,16.19-2.68,19.36-10.28,1.59-3.82,1.28-7.83,1.38-11.82.04-1.75-.66-2.19-2.28-2.16-3.57.07-7.14.09-10.71-.06-4.04-.17-7.97-.91-11.25-3.52-.9-.72-1.36-.38-1.86.39-1.11,1.71-2.69,2.71-4.7,3.06q-3.78.66-3.78,4.61c0,.21,0,.43,0,.64ZM68.09,23.18c1.14,0,2.29-.01,3.43,0,.98.01,1.49-.42,1.39-1.42-.41-4.03-1.17-7.95-4.1-11.02-5.39-5.64-11.97-6.19-18.97-4.05-6.82,2.08-10.34,7.02-11.21,13.96-.1.8-.59,1.83.35,2.35.86.48,1.81-.04,2.65-.41.69-.3,1.04-.97,1.27-1.66.42-1.29.76-2.6,1.23-3.87.9-2.43,3.4-2.85,5.04-.85.4.49.72,1.07,1.01,1.64,1.4,2.69,3.65,4.09,6.59,4.57,3.75.61,7.53.62,11.31.77ZM55.62,113.3c.78,0,1.57,0,2.35,0,2.9,0,2.97-.01,2.51-2.79-1-6.05-2.06-12.08-3.13-18.12-.17-.95-.2-2.07-1.66-2.06-1.4.01-1.55,1.03-1.72,2.03-.91,5.34-1.83,10.68-2.69,16.02-.8,4.92-.77,4.92,4.34,4.92ZM64.46,59.46c.27-1.66-.45-1.96-1.95-1.47-4.33,1.41-8.69,1.46-13.08.2-.74-.21-1.76-1.05-2.3-.05-.49.91-.36,2.11.23,3.08.22.36.55.66.87.93,2.1,1.72,4.23,3.41,6.31,5.15.77.65,1.37.77,2.22.05,2.06-1.76,4.21-3.43,6.33-5.13.88-.71,1.51-1.53,1.36-2.77ZM50.48,71.75c-.09-.54-.52-.84-.9-1.15-1.49-1.21-3.1-2.31-4.48-3.64-1.49-1.43-3.06-1.51-4.91-1.02-1.29.34-1.78.77-.82,1.99,1.05,1.35,2.03,2.75,3.02,4.15q3.27,4.64,7.4.67c.3-.29.71-.5.69-1.01ZM68.68,65.56c-1.65.38-2.88,1.86-4.27,3.01-4.43,3.67-5.09,2.54.29,6.68.96.74,1.59.68,2.27-.31,1.34-1.93,2.77-3.81,4.08-5.75.54-.8,1.79-1.55,1.4-2.48-.47-1.14-2.02-.71-3.06-1.08-.13-.05-.28-.03-.71-.07ZM55.67,84.56c1.6,0,3.9-3.13,3.88-5.31,0-.83-2.9-3.35-3.85-3.36-.94,0-3.85,2.49-3.9,3.34-.12,2.05,2.26,5.32,3.87,5.33Z"/><path class="cls-1" d="M126.93,63.15c4.78,0,9.56-.02,14.35,0,3.84.02,5.25,1.46,5.27,5.35.01,2.71.04,5.43-.01,8.14-.06,2.97-1.5,4.59-4.47,4.61-10.21.08-20.41.07-30.62,0-2.7-.02-4.37-1.78-4.45-4.5-.09-3-.09-6,0-8.99.09-3.05,1.67-4.57,4.73-4.6,5.07-.05,10.14-.01,15.2-.02ZM126.52,75.56c3.43,0,6.85.02,10.28,0,4.31-.03,3.86.55,4.02-4.06.07-2.14-.76-2.65-2.74-2.62-6.99.09-13.99.01-20.98.04-4.92.02-4.28-.66-4.41,4.51-.04,1.75.67,2.19,2.28,2.16,3.85-.08,7.71-.03,11.56-.03Z"/><path class="cls-1" d="M126.71,105.71c-4.86,0-9.72,0-14.58,0-.78,0-1.58-.03-2.35-.15-1.59-.26-2.69-1.14-2.69-2.82,0-1.78,1.17-2.68,2.82-2.96.63-.11,1.28-.08,1.92-.08,9.93,0,19.86,0,29.79,0,3.21,0,4.83,1.01,4.86,2.97.03,1.97-1.63,3.04-4.78,3.05-5,.01-10,0-15,0Z"/><path class="cls-1" d="M126.65,93.01c-5.29,0-10.58.01-15.86,0-2.42,0-3.63-.9-3.71-2.62-.08-1.78,1.21-3.01,3.65-3.03,10.65-.06,21.29-.03,31.94-.02.35,0,.71.07,1.06.12,1.68.28,2.86,1.15,2.74,2.97-.12,1.81-1.38,2.57-3.09,2.58-4.07.02-8.15.01-12.22.02-1.5,0-3,0-4.5,0Z"/><path class="cls-1" d="M80.18,120.86c1.51.15,2.51,1.04,2.66,2.69.14,1.56-1.21,2.89-2.82,2.84-1.69-.05-2.65-.95-2.75-2.65-.1-1.64,1.12-2.87,2.91-2.88Z"/><path class="cls-1" d="M116.63,23.9c-4.28,0-8.56.02-12.85-.01-1.57-.01-2.8-.65-3.14-2.33-.25-1.23.18-2.26,1.29-2.92.76-.46,1.63-.48,2.49-.48,2.71,0,5.42,0,8.14,0,5.07,0,10.13,0,15.2,0,.57,0,1.14-.02,1.71.02,2.15.14,3.33,1.16,3.32,2.86,0,1.69-1.22,2.83-3.32,2.86-4.28.06-8.56.02-12.85.02Z"/><path class="cls-1" d="M106.84,34.48c-1.14,0-2.3.12-3.42-.03-1.54-.2-2.76-1.02-2.82-2.72-.06-1.76.98-2.81,2.7-3.03,2.41-.3,4.85-.29,7.26,0,1.6.19,2.69,1.12,2.71,2.8.02,1.78-1.15,2.74-2.8,2.96-1.19.15-2.42.03-3.63.03Z"/><path class="cls-1" d="M126.57,34.63c-1.41-.09-2.7-.05-3.95-.28-1.46-.27-2.44-1.19-2.44-2.79,0-1.58.95-2.59,2.41-2.81,2.6-.4,5.25-.42,7.84.02,1.48.25,2.36,1.32,2.33,2.88-.03,1.47-.92,2.42-2.31,2.67-1.32.24-2.68.23-3.89.31Z"/><path class="cls-1" d="M11.09,18.17c0,3.07-2.51,5.56-5.59,5.53C2.32,23.67-.06,20.99,0,18.08c.07-3.05,2.52-5.51,5.59-5.5,3.04.01,5.5,2.52,5.5,5.59Z"/><path class="cls-1" d="M14.6,20.21c0,.42,0,.84,0,1.25,0,.6-.37,1-.91,1.01-.55,0-.94-.4-.94-1.02,0-2.28,0-4.56,0-6.84,0-.66.36-1.02,1.02-1.02.88,0,1.77-.07,2.6.35,2.07,1.05,2.37,3.85.52,5.26-.26.2-.3.32-.07.55.36.36.69.75,1.02,1.13.37.42.36.98-.02,1.33-.38.35-.94.34-1.33-.07-.52-.55-1.02-1.12-1.53-1.67-.09-.1-.16-.24-.37-.27ZM14.6,16.74c0,.33.01.65,0,.98-.01.3.13.35.39.32.78-.1,1.25-.61,1.24-1.34-.01-.68-.54-1.18-1.3-1.24-.21-.02-.32.04-.32.27,0,.34,0,.68,0,1.01Z"/><path class="cls-1" d="M21.9,13.59c.31,0,.63-.01.94,0,.53.02.89.38.91.88.02.52-.34.91-.88.96-.04,0-.08,0-.12,0-.88.03-.88.03-.88.9,0,.88-.1.76.77.77.7,0,1.11.35,1.11.93,0,.47-.32.84-.8.91-.06.01-.13,0-.19.01-.88.03-.89.03-.88.89,0,.9-.09.76.8.77.66,0,1.07.36,1.07.92,0,.5-.35.9-.87.92-.65.03-1.3.02-1.95,0-.54-.02-.89-.39-.89-.94,0-2.33,0-4.66,0-6.99,0-.56.37-.92.93-.94.31-.01.62,0,.94,0Z"/><path class="cls-1" d="M25.43,18.01c-.08-.96.04-2.01.74-2.91.74-.97,1.72-1.48,2.95-1.5.56,0,.94.35.97.86.03.53-.3.94-.85.98-1.46.1-2.04,1.19-1.97,2.28.04.56-.07,1.12.08,1.67.21.79.71,1.28,1.53,1.42.12.02.23.04.35.05.57.08.9.47.86,1.01-.04.49-.42.82-.95.84-1.87.04-3.63-1.61-3.7-3.48-.01-.36,0-.73,0-1.22Z"/></g></svg>