<?xml version="1.0" encoding="UTF-8"?><svg id="Layer_2" xmlns="http://www.w3.org/2000/svg" viewBox="0 0 250 268.36"><defs><style>.cls-1{fill:#003143;}</style></defs><g id="Layer_1-2"><path class="cls-1" d="M247.64,183.46c-.27,6.41-3.03,12.23-9.3,15.88-24.87,14.48-49.8,28.87-74.71,43.28-9.18,5.31-18.38,10.58-27.57,15.87-8.61,4.97-17.58,5.22-26.99,2.54-13.53-3.85-26.93-8.58-41.34-7.8-2.91.16-5.8.46-8.7.72-3.25.3-6.1.71-6.28,5.19-.11,2.68-2.43,4.44-5.07,5.23-4.24,1.26-8.49,2.51-12.79,3.58-5.67,1.4-9.21-.74-10.77-6.45-3.98-14.61-7.93-29.23-11.85-43.85-3.95-14.74-7.85-29.49-11.77-44.24-1.55-5.85.43-9.54,6.21-11.22,4.25-1.23,8.54-2.33,12.86-3.28,3.6-.79,7.25.75,8.38,4.03,1.12,3.25,3.03,2.86,5.44,2.25,8.49-2.16,16.63-5.35,24.83-8.35,9.88-3.61,19.19-3.72,28.33,2.41,6.18,4.15,12.91,7.46,19.29,11.31,6.77,4.08,13.92,5.06,21.52,3.11,5.53-1.42,11.04-2.89,16.55-4.4,14.73-4.03,27.38,4.25,29.38,19.43.4,3.01,1.55,1.72,2.87.95,13.31-7.7,26.64-15.38,39.94-23.1,9.96-5.78,19.63-4.7,26.64,3.05,3.37,3.72,4.83,8.16,4.88,13.84ZM120.06,220.57c-1.15-.07-3.02-.15-4.87-.29-.69-.05-1.38-.21-2.06-.39-3.17-.83-4.91-2.98-4.15-5.4.92-2.94,3.05-3.81,6.04-3.2,3.8.77,7.68.91,11.45-.06,9.36-2.41,18.69-4.93,27.99-7.55,7.31-2.06,11.67-9.39,9.85-16.18-2.04-7.6-8.96-11.79-16.68-9.95-7.02,1.67-14.01,3.48-21,5.28-6.84,1.76-13.48.88-19.78-1.97-8.71-3.94-16.85-9.01-24.93-14.08-6.32-3.97-12.45-4.5-19.29-2.1-8.78,3.09-17.4,6.68-26.48,8.91-4.5,1.1-4.64,1.11-3.47,5.52,5.66,21.39,11.42,42.75,17.08,64.13.64,2.41,1.72,3,4.23,2.62,6.31-.97,12.6-2.01,19.08-1.66,13.65.73,26.5,5,39.51,8.56,6.7,1.83,13.11,1.51,19.23-2.02,33.59-19.4,67.2-38.76,100.77-58.19,6.08-3.52,7.95-10.03,4.7-15.52-3.11-5.25-9.65-6.77-15.61-3.38-11.55,6.55-23.1,13.12-34.5,19.91-7.96,4.74-16.64,8.39-23.24,15.27-1.6,1.66-3.92,2.48-6.19,3.11-3.7,1.03-7.37,2.21-11.11,3.06-8.6,1.95-16.83,5.67-26.58,5.56ZM43.84,255.17c-.47-1.91-.78-3.27-1.14-4.62-6.68-24.85-13.4-49.69-20.03-74.55-2.18-8.17-2.06-8.08-10.28-6.2-2.72.62-3.36,1.65-2.64,4.31,7.12,26.3,14.14,52.63,21.2,78.95.36,1.35.85,2.67,1.16,4.03.5,2.21,2,1.98,3.51,1.43,2.8-1.03,6.38-.49,8.22-3.33Z"/><path class="cls-1" d="M170.33,11.22c-3.58-1.01-6.36-1.76-9.11-2.58-2.77-.83-4.17-2.73-3.37-5.56.77-2.68,2.95-3.53,5.55-2.88,6.44,1.6,12.88,3.24,19.27,5.02,3.03.84,4.34,2.96,3.51,6.16-1.63,6.31-3.19,12.65-4.89,18.94-.72,2.64-2.45,4.46-5.38,3.69-2.8-.73-3.81-2.85-3.09-5.71.7-2.81,1.37-5.62,2.11-8.65-1.64-.24-2.72.78-3.84,1.43-15.75,9.07-31.45,18.23-47.22,27.26-2.44,1.4-3.27,2.78-2.23,5.59,1.83,4.96,2.37,10.22,2.24,15.47-.06,2.43.76,3.08,2.96,3,3.03-.1,6.06-.03,9.09-.02,5.69.02,7.16,1.47,7.19,7.31.04,9.32.01,18.65.01,27.97,0,10.37.02,20.75-.01,31.12-.02,5.67-1.66,7.29-7.32,7.32-7.23.04-14.45.03-21.68,0-5.82-.03-7.38-1.63-7.4-7.59-.03-8.86,0-17.72,0-26.57,0-1.27,0-2.53,0-4.77-3.75,3.14-7.35,5.11-10.76,7.38-1.24.82-1,2.28-1.01,3.54-.02,6.99.02,13.99-.03,20.98-.04,5.26-1.71,6.97-6.9,7.01-7.58.06-15.15.06-22.73,0-4.94-.04-6.36-1.55-6.38-6.58-.03-5.83-.05-11.66,0-17.48.02-2.73-.9-4.29-3.71-5.45-19.62-8.08-31.32-22.73-32.9-43.91-1.62-21.65,7.98-38.22,26.9-48.81,21.72-12.16,50.57-5.34,64.88,15.04,1.99,2.83,3.31,3.17,6.31,1.39,15.74-9.32,31.63-18.38,47.47-27.53.58-.34,1.15-.71,2.49-1.55ZM72.96,110.96c23.24,0,42.01-18.75,42.04-42,.02-23.32-18.7-42.22-41.84-42.23-23.21-.01-42.48,19.16-42.43,42.23.05,23.02,19.13,42,42.23,42.01ZM133.92,108.99c0-6.53.07-13.05-.02-19.58-.13-9.39,1.69-8.1-8.77-8.25-2-.03-2.94.87-3.48,2.67-1.18,3.92-2.8,7.66-4.94,11.15-.63,1.03-.78,2.18-.78,3.36,0,11.77.03,23.54-.03,35.31-.01,2.43,1,3.32,3.35,3.26,3.61-.09,7.23-.15,10.84.02,2.86.13,3.93-.91,3.88-3.83-.14-8.04-.05-16.08-.04-24.12ZM85.69,127.72c0-2.33-.01-4.65,0-6.98.01-1.67-.71-2.24-2.4-1.95-2.4.4-4.83.75-7.26.85-8.32.33-8.33.28-8.33,8.65q0,8.61,8.74,8.61,9.27,0,9.25-9.18Z"/><path class="cls-1" d="M239.15,92.56c0,15.5.01,31.01,0,46.51,0,5.61-1.42,7.02-7.05,7.04-7.23.03-14.45.04-21.68,0-5.73-.03-7.29-1.59-7.29-7.27-.01-30.77-.04-61.55.05-92.32,0-3.31-.26-5.21-4.38-5.71-5.95-.72-8.43-6.79-4.87-11.58,6.32-8.51,12.87-16.87,19.6-25.05,3.96-4.81,11.67-4.52,15.72.45,6.33,7.77,12.54,15.64,18.59,23.63,4.46,5.9,1.75,12.09-5.62,12.85-2.82.29-3.09,1.64-3.09,3.88.05,15.85.02,31.71.02,47.56ZM203.16,31.55q8.77,1.51,8.77,10.09c0,13.16,0,26.32,0,39.49,0,17.12.1,34.24-.08,51.37-.04,3.63,1.16,4.76,4.62,4.47,3.01-.25,6.05-.04,9.08-.05,4.78-.01,4.8-.02,4.8-4.88,0-30.52,0-61.03,0-91.55,0-7.26.49-7.79,7.78-8.61.18-.02.32-.28.75-.67-5.2-6.65-10.4-13.33-15.65-19.96-1.24-1.57-2.69-1.79-4.05-.06-5.25,6.67-10.49,13.34-16.02,20.37Z"/><path class="cls-1" d="M190.94,99.56c0,13.28.01,26.57,0,39.85,0,5.21-1.42,6.65-6.63,6.69-7.46.05-14.92.05-22.37,0-5.41-.04-7.01-1.71-7.01-7.21-.01-26.45-.01-52.91,0-79.36,0-5.87,1.38-7.27,7.17-7.29,7.46-.02,14.92-.03,22.37,0,5.11.02,6.46,1.36,6.47,6.41.02,13.63,0,27.27,0,40.9ZM182.14,99.06c0-11.41-.06-22.83.04-34.24.03-2.76-.67-4.09-3.71-3.91-3.6.21-7.22.15-10.83.02-2.51-.1-3.56.76-3.55,3.38.06,23.06.06,46.12,0,69.18,0,2.6,1.07,3.51,3.57,3.43,3.49-.11,7-.17,10.48.02,3.03.17,4.09-.91,4.05-3.99-.14-11.29-.06-22.59-.06-33.89Z"/><path class="cls-1" d="M72.79,105.95c-20.22-.07-36.91-16.86-36.87-37.11.04-20.68,16.73-37.09,37.61-36.98,20.16.11,36.88,17.3,36.67,37.72-.2,19.73-17.38,36.44-37.41,36.37ZM45.01,67.66c-1.1,14.69,10.55,28.04,25.53,29.24,15.58,1.25,29.24-10.16,30.42-25.4,1.26-16.32-10.3-29.9-26.58-30.73-15.65-.8-29.07,11.33-29.37,26.9Z"/><path class="cls-1" d="M85.96,77.87c-.13,3.52-2.08,7.11-5.95,9.43-1.52.91-2.46,1.86-2.85,3.63-.48,2.18-2.07,3.41-4.31,3.37-2.08-.04-3.6-1.28-4.06-3.26-.5-2.09-1.63-3.45-3.32-4.67-2.68-1.92-4.11-4.71-4.7-7.92-.52-2.81.45-4.99,3.23-5.74,2.87-.77,4.75.77,5.4,3.56.58,2.47,1.7,4.08,4.49,3.82,1.7-.16,2.87-1.05,3.11-2.78.27-1.88-.64-3.2-2.45-3.68-1.11-.29-2.31-.24-3.46-.39-5.34-.67-9.39-4.13-10.76-9.17-1.28-4.72.49-9.9,4.69-13,1.72-1.27,3.26-2.39,3.84-4.67.5-1.96,2.19-3.02,4.28-2.93,2.09.08,3.61,1.2,3.95,3.3.36,2.18,1.7,3.37,3.35,4.6,2.95,2.19,4.65,5.2,4.73,8.95.05,2.5-.98,4.37-3.65,4.73-2.57.34-4.24-.86-4.9-3.41-.17-.67-.22-1.42-.55-2.01-.97-1.7-2.51-2.42-4.43-1.99-1.65.37-2.71,1.48-2.74,3.19-.04,1.89,1.21,2.98,2.88,3.52.87.28,1.83.27,2.76.33,6.65.44,11.47,5.57,11.44,13.2Z"/></g></svg>