<?xml version="1.0" encoding="UTF-8"?><svg id="Layer_2" xmlns="http://www.w3.org/2000/svg" viewBox="0 0 124.41 164.15"><defs><style>.cls-1,.cls-2{fill:#166f80;}.cls-2{stroke:#166f80;stroke-miterlimit:10;stroke-width:.7px;}</style></defs><g id="Layer_1-2"><path class="cls-1" d="M118.63,144.21c-4.27,2.54-8.94,1.86-13.49,1.87-17.23.04-34.45.01-51.68.03-1.13,0-2.52-.37-2.64,1.57-.14,2.22.13,2.6,2.41,2.61,10.78,0,21.55,0,32.33,0,.71,0,1.43-.04,2.12.06,1.52.22,2.5,1.07,2.47,2.69-.03,1.52-1.02,2.29-2.41,2.53-.69.12-1.41.07-2.12.07-10.7,0-21.41.06-32.11-.05-2.21-.02-2.97.69-2.69,2.8.09.7.03,1.42.01,2.13-.07,3.48-1.99,4.55-5.04,2.78-1.96-1.14-3.93-2.28-5.83-3.51-1.03-.66-1.88-.66-2.92,0-2.03,1.3-4.12,2.51-6.22,3.68-2.68,1.49-4.6.4-4.79-2.66-.32-5.19-.32-5.12-5.6-5.21-3.67-.06-7.38.47-11.02-.4-5.38-1.28-9.17-5.98-9.38-11.53-.02-.43-.01-.85-.01-1.28C.01,99.32.02,56.23,0,13.14,0,7.62,2.28,3.58,7.19,1.07,8.94.17,10.84.04,12.78.04c24.24.01,48.49,0,72.73,0,3.39,0,4.55.61,4.62,2.43.08,1.99-1.32,2.82-4.79,2.82-15.81,0-31.62,0-47.43,0-5.17,0-10.35.08-15.52-.04-2.09-.05-2.63.71-2.63,2.72.05,40.17.05,80.35,0,120.52,0,2.13.74,2.63,2.71,2.6,6.24-.1,12.48-.04,18.71-.04.57,0,1.13,0,1.7,0,1.73,0,2.9.74,3.04,2.56.12,1.6-1.11,2.66-3.1,2.77-.92.05-1.84.02-2.76.02-9.14,0-18.29,0-27.43.02-2.93,0-5.27,1.19-6.54,3.92-1.21,2.6-.91,5.15.91,7.4,1.32,1.63,3.09,2.48,5.19,2.5,3.97.03,7.94-.03,11.91.04,1.54.03,1.94-.69,1.93-2.08,0-1.37-.38-2.16-1.92-2.13-2.13.04-4.25.02-6.38-.04-1.75-.05-3.16-.75-3.17-2.7-.01-1.85,1.36-2.52,3-2.64,1.06-.08,2.12-.1,3.19-.1,29.7,0,59.4,0,89.11-.01,1.2,0,2.42,0,3.6-.17,2.44-.37,4.1-1.82,5.03-4.1.16-.39.3-.83-.01-1.21-.3-.35-.67-.13-.97.02-2.77,1.4-5.76,1.29-8.74,1.29-18.01-.01-36.01,0-54.02,0-3.01,0-4.49-.94-4.41-2.79.08-1.79,1.39-2.57,4.37-2.57,18.64,0,37.29,0,55.93,0,5.87,0,8.42-2.55,8.42-8.45,0-36.26,0-72.53,0-108.79,0-6.01-2.51-8.5-8.56-8.52-3.9,0-7.8,0-11.7,0-.71,0-1.43,0-2.11-.15-1.43-.33-2.23-1.31-2.13-2.76.1-1.38,1.02-2.27,2.38-2.28,5.81-.03,11.65-.3,17.42.16,5.33.42,9.68,5.7,10,11.16.03.5.03,1,.03,1.49,0,43.23,0,86.46,0,129.69,0,7.74-5.26,12.99-12.95,13.02-4.25.02-8.51,0-12.76,0-.43,0-.85.01-1.28-.02-1.6-.11-2.82-.85-2.84-2.55-.02-1.76,1.11-2.74,2.86-2.75,4.82-.04,9.64-.03,14.46-.04,2.7,0,4.78-1.14,6.2-3.45.44-.72.82-1.48.53-2.61ZM14.45,68.27c0-19.83,0-39.66,0-59.49,0-3.56-1.11-4.31-4.51-3.05-1.01.38-1.91.94-2.65,1.72-1.63,1.73-1.94,3.87-1.94,6.13,0,39.02,0,78.04,0,117.07,0,.36.02.71,0,1.07-.04,1.01.31,1.28,1.26.8,1.59-.81,3.25-1.57,5.06-1.4,2.32.23,2.82-.75,2.81-2.93-.08-19.97-.04-39.95-.04-59.92ZM38.37,146.1c-1.77,0-3.53.01-5.3,0-1.08,0-1.76.37-1.75,1.59.02,2.55,0,5.1,0,7.65,0,1.23.71,1.4,1.47.75,3.79-3.26,7.5-3.31,11.3,0,.87.75,1.4.3,1.4-.81,0-2.48-.03-4.96,0-7.44.02-1.31-.64-1.74-1.84-1.73-1.77.03-3.53,0-5.3,0Z"/><path class="cls-1" d="M48.98,49.51c.56.06,1.19.11,1.82.19,1.2.15,1.72.87,1.78,2.06.18,3.48-1.97,6.68-5.05,7.44-3.65.91-7.47-.93-8.99-4.32-1.38-3.08-.62-6.84,1.85-9.08,2.44-2.21,6.26-2.65,9.04-1.04,1.06.61,1.79,1.4,1.26,2.72-.46,1.15-1.58,1.51-2.95.88-1.16-.53-2.3-.84-3.52-.3-1.31.58-2.15,1.53-2.28,3.01-.14,1.54.24,2.86,1.63,3.72,1.15.7,2.34,1.02,3.59.22.36-.23.79-.46.76-.94-.04-.51-.56-.39-.89-.48-1.11-.28-1.85-.93-1.77-2.11.08-1.2.93-1.72,2.06-1.81.53-.05,1.06-.1,1.67-.15Z"/><path class="cls-1" d="M88.66,33.11c-.07.82-.07,1.36-.17,1.87-.22,1.07-.89,1.76-1.99,1.72-1.07-.04-1.87-.72-1.88-1.81-.06-3.94-.06-7.89,0-11.83.01-1.07.69-1.81,1.79-1.93,1.53-.16,3.09-.26,4.6.14,1.88.51,3.16,1.72,3.64,3.65.47,1.87.03,3.57-1.46,4.76-1.15.91-.96,1.54-.05,2.38.43.39.79.86,1.14,1.33.74,1,.76,2.02-.2,2.85-.92.81-1.89.6-2.7-.22-.86-.87-1.66-1.79-2.71-2.92Z"/><path class="cls-1" d="M77.23,51.47c0-1.76,0-3.52,0-5.28,0-1.44.74-2.18,2.15-2.21,1.22-.03,2.45-.04,3.67.02,1.69.09,3.05.9,4.13,2.16,2.62,3.08,2.2,8.84-.8,11.54-1.49,1.34-6.31,2.16-8.04,1.33-.89-.42-1.11-1.22-1.11-2.13,0-1.81,0-3.63,0-5.44ZM81.16,51.5h0c0,.69-.02,1.38,0,2.07.02.56-.16,1.26.54,1.53.68.25,1.36.07,1.95-.36,1.64-1.23,1.65-5.03.02-6.31-.59-.47-1.28-.58-1.95-.34-.71.25-.55.95-.57,1.51-.02.64,0,1.27,0,1.91Z"/><path class="cls-1" d="M43.46,27.21c0-1.28-.04-2.56.01-3.83.05-1.25.57-2.19,1.97-2.25,1.22-.06,1.97.82,2,2.35.04,2.13,0,4.26.02,6.39,0,1.96.74,2.92,2.17,2.86,1.35-.05,1.89-.87,1.9-2.92,0-2.02-.03-4.05.02-6.07.04-1.68.76-2.57,1.98-2.6,1.22-.03,2.01.81,2.06,2.51.08,2.66.23,5.33-.09,7.97-.37,3.03-3.2,5.3-6.27,5.15-3.14-.15-5.62-2.61-5.75-5.74-.05-1.28,0-2.55,0-3.83,0,0,0,0,0,0Z"/><path class="cls-1" d="M67.54,50.09c0,1.17.02,2.34,0,3.51-.05,3.29-2.74,5.88-6.07,5.86-3.37-.02-5.92-2.56-5.94-5.94-.01-2.45.01-4.9,0-7.34-.01-1.3.5-2.27,1.85-2.33,1.35-.06,2.03.91,2.08,2.15.09,2.34.08,4.68.05,7.02-.02,1.37.45,2.31,1.91,2.42,1.23.09,2.11-.93,2.13-2.42.02-2.18-.01-4.36.02-6.54.02-1.72.82-2.72,2.07-2.68,1.2.04,1.9.98,1.93,2.63.02,1.22,0,2.45,0,3.67Z"/><path class="cls-1" d="M69.79,31.91c-.02,2.74-2.4,4.91-5.46,4.85-1.97-.04-3.76-.68-5.18-2.12-.86-.87-1.07-1.88-.27-2.86.83-1,1.84-.95,2.81-.15.85.7,1.76,1.21,2.9,1.08.48-.06.98-.23,1.08-.79.1-.53-.36-.74-.74-.91-1.07-.47-2.15-.91-3.23-1.36-1.63-.68-2.53-1.9-2.62-3.67-.1-1.81.66-3.2,2.21-4.13,2.12-1.28,5.64-.85,7.44.88.79.76,1.01,1.66.38,2.58-.61.9-1.47,1.15-2.51.65-.72-.34-1.45-.66-2.21-.89-.4-.12-.92,0-1.07.46-.16.49.37.58.67.73,1.13.59,2.4.84,3.49,1.54,1.5.97,2.38,2.25,2.31,4.09Z"/><path class="cls-1" d="M91.63,51.58c0-1.7-.03-3.41,0-5.11.04-1.88.71-2.61,2.59-2.69,1.43-.06,2.87-.03,4.29.09,1.13.09,1.88.74,1.86,1.98-.02,1.23-.78,1.81-1.91,1.94-.68.08-1.38.08-2.06.15-.4.04-.7.24-.74.69-.04.53.24.8.73.86.58.08,1.16.12,1.74.18,1.15.13,1.92.69,1.91,1.92,0,1.3-.83,1.88-2.02,2.02-.47.05-.95.04-1.43.07-.63.03-.99.32-.96,1,.03.64.44.78.97.79.69,0,1.38-.02,2.07.04,1.04.1,1.65.7,1.7,1.76.05,1.04-.43,1.81-1.46,1.99-1.89.32-3.81.3-5.7.02-1.21-.18-1.56-1.18-1.57-2.27-.03-1.81,0-3.62,0-5.43,0,0,0,0,0,0Z"/><path class="cls-1" d="M77.17,36.83c-4.21-.06-4.4-.24-4.4-4.45,0-2.87-.02-5.74.01-8.62.02-1.93.65-2.58,2.58-2.67,1.27-.06,2.55-.04,3.82,0,1.3.05,2.36.56,2.36,2.03,0,1.49-1.11,1.92-2.38,2.02-.48.04-.95.03-1.43.06-.46.03-.85.19-.88.73-.03.63.39.81.92.86.58.05,1.17.06,1.74.17,1.07.21,1.71.89,1.68,2-.03,1.03-.64,1.68-1.65,1.85-.62.11-1.26.12-1.9.18-.58.06-.84.38-.82.96.02.53.34.75.82.77.69.03,1.38,0,2.07.06,1.09.11,1.76.76,1.83,1.85.07,1.05-.56,1.74-1.53,1.94-.92.19-1.89.17-2.84.24Z"/><path class="cls-1" d="M70.3,51.56c0-1.75-.03-3.51.01-5.26.03-1.29.53-2.4,1.97-2.45,1.46-.05,2.04,1,2.05,2.32.04,3.61.07,7.23.03,10.84-.01,1.28-.56,2.37-2.03,2.37-1.48,0-1.96-1.12-2.01-2.39-.06-1.81-.02-3.62-.02-5.42,0,0,0,0,0,0Z"/><path class="cls-2" d="M45.73,121.72c-2.27-.03-4.02-1.04-5.03-3.07-1.1-2.2-.8-4.37.62-6.36.32-.45.71-.85,1.1-1.24,2.46-2.48,4.94-4.96,7.41-7.43.24-.24.49-.47.76-.67.39-.29.78-.2,1.11.12.35.34.45.75.16,1.17-.18.26-.4.48-.62.7-2.64,2.65-5.29,5.29-7.92,7.95-1.08,1.09-1.61,2.4-1.25,3.95.6,2.58,3.36,3.78,5.69,2.49.42-.23.8-.53,1.15-.87,3.37-3.39,6.74-6.78,10.13-10.14.46-.45.44-.73,0-1.17-1.78-1.74-3.52-3.51-5.27-5.27-.88-.89-.88-1.3-.02-2.18.63-.64,1.26-1.27,1.89-1.89.76-.75,1.22-.75,1.97-.03q.78.75,1.56-.03c6.46-6.48,12.91-12.96,19.37-19.42.43-.43.65-.85.61-1.46-.05-.67,0-1.35-.01-2.03,0-.48.18-.84.61-1.06,2.8-1.4,5.6-2.81,8.4-4.21.54-.27,1.02-.17,1.45.26.75.76,1.49,1.51,2.25,2.26.46.45.51.97.23,1.52-1.37,2.74-2.74,5.48-4.1,8.23-.25.51-.63.78-1.21.73-.05,0-.1,0-.14,0-1.96-.37-3.27.54-4.61,1.92-5.97,6.14-12.06,12.16-18.11,18.23q-.67.68-.02,1.35c.83.86.84,1.3,0,2.14-4.46,4.48-8.93,8.95-13.39,13.43-1.31,1.32-2.84,2.15-4.76,2.1ZM61.88,101.85c.26-.08.42-.3.6-.49,6.2-6.22,12.44-12.4,18.57-18.69,1.36-1.39,2.69-2.33,4.69-1.96.47.09.73-.14.95-.58.89-1.85,1.81-3.68,2.74-5.51.78-1.55.78-1.53-.49-2.73-.29-.27-.53-.34-.89-.16-1.74.89-3.43,1.89-5.25,2.58-1.56.6-2.09,1.54-1.83,3.1.14.84-.23,1.44-.83,2.04-5.38,5.36-10.74,10.75-16.11,16.14-1.28,1.28-2.55,2.57-3.83,3.84-.31.31-.4.57-.04.9.46.43.89.88,1.33,1.33.1.1.22.2.38.19ZM56.55,99.71c-.34.22-.68.53-.93.91-.22.34.13.52.32.71,1.51,1.52,3.04,3.02,4.53,4.56.48.5.76.25,1.11-.12.32-.34.69-.6.17-1.11-1.57-1.53-3.1-3.1-4.65-4.65-.13-.13-.26-.29-.54-.31Z"/><path class="cls-2" d="M48.72,71.25c.06.39.31.52.49.7,1.13,1.15,2.27,2.3,3.42,3.43.41.4.51.86.6,1.41.28,1.93-.53,3.24-1.84,4.62-1.42,1.49-2.99,1.1-4.6,1.07-.36,0-.6-.38-.85-.63-1.25-1.24-2.49-2.49-3.74-3.73-.03-.03-.09-.04-.22-.09,0,1.34-.01,2.65.02,3.95,0,.17.23.36.38.51.98,1,1.98,1.97,2.96,2.98.33.34.68.48,1.15.47,1.81-.02,3.61,0,5.42-.02.57,0,1.01.17,1.41.57,2.15,2.18,4.32,4.34,6.48,6.52.12.12.23.25.33.38.34.43.31.85-.07,1.23-.37.38-.8.44-1.23.1-.26-.21-.51-.45-.74-.69-1.91-1.91-3.82-3.82-5.72-5.75-.37-.37-.74-.54-1.27-.53-1.78.03-3.57,0-5.35.02-.57,0-1.02-.15-1.42-.56-1.21-1.24-2.44-2.47-3.68-3.69-.41-.4-.58-.85-.57-1.42.02-2.05,0-4.11,0-6.16,0-.49-.02-1,.53-1.24.59-.25,1.01.07,1.4.47,1.65,1.66,3.3,3.32,4.96,4.97.81.81,2,.81,2.8.02.29-.29.58-.58.87-.87,1.06-1.06,1.06-2.1,0-3.17-1.53-1.54-3.07-3.07-4.6-4.61-.19-.19-.39-.37-.54-.59-.47-.69-.11-1.5.71-1.51,2.31-.03,4.62-.01,6.94-.01.39,0,.68.22.94.48,1.28,1.28,2.55,2.57,3.83,3.84.35.35.49.74.49,1.23-.01,1.84,0,3.67-.01,5.51,0,.5.15.86.5,1.21,1.99,1.97,3.96,3.96,5.93,5.94.22.22.44.45.6.72.26.41.12.79-.21,1.1-.31.29-.67.4-1.05.15-.24-.16-.46-.36-.66-.56-2.1-2.1-4.19-4.21-6.3-6.29-.46-.46-.67-.95-.65-1.61.03-1.76,0-3.53.02-5.29,0-.5-.13-.87-.49-1.22-.99-.96-1.96-1.93-2.91-2.92-.33-.34-.68-.48-1.15-.47-1.1.03-2.19,0-3.31,0Z"/><path class="cls-2" d="M83.63,119.87c-.07-.39-.32-.52-.5-.7-1.13-1.15-2.27-2.3-3.43-3.43-.41-.4-.51-.86-.59-1.41-.28-1.93.53-3.24,1.85-4.62,1.43-1.5,3-1.08,4.6-1.07.31,0,.53.32.75.54,1.11,1.11,2.22,2.21,3.31,3.34.2.2.32.49.47.74l.29-.19c0-1.29,0-2.57,0-3.86,0-.23-.21-.37-.36-.53-1.02-1.03-2.05-2.05-3.06-3.08-.29-.3-.61-.42-1.03-.41-1.85.01-3.71,0-5.56.01-.52,0-.92-.16-1.29-.53-2.17-2.19-4.36-4.38-6.53-6.57-.15-.15-.3-.32-.4-.51-.22-.41-.16-.8.17-1.12.31-.3.69-.36,1.06-.14.25.14.46.35.67.55,1.98,1.98,3.96,3.95,5.92,5.95.37.37.74.54,1.27.53,1.78-.03,3.57,0,5.35-.02.6,0,1.06.19,1.47.61,1.18,1.21,2.37,2.41,3.58,3.59.42.41.63.86.62,1.47-.03,2.05-.01,4.11,0,6.16,0,.49.02,1-.53,1.24-.59.25-1.01-.08-1.4-.47-1.65-1.66-3.3-3.32-4.96-4.97-.8-.8-2-.81-2.8-.01-.29.29-.58.58-.87.87-1.06,1.06-1.05,2.1,0,3.17,1.53,1.54,3.07,3.07,4.6,4.61.19.19.39.37.53.59.47.69.11,1.5-.72,1.51-2.31.03-4.63.01-6.94,0-.39,0-.67-.22-.94-.49-1.28-1.28-2.55-2.57-3.83-3.84-.35-.35-.49-.74-.49-1.23.01-1.84,0-3.67.01-5.51,0-.5-.15-.86-.5-1.21-1.99-1.97-3.96-3.96-5.93-5.94-.2-.2-.4-.42-.57-.65-.28-.4-.19-.78.14-1.12.34-.35.74-.45,1.17-.15.21.15.41.34.6.52,2.1,2.1,4.18,4.21,6.3,6.29.47.46.66.96.65,1.61-.03,1.79,0,3.58-.02,5.36,0,.45.13.78.44,1.09,1.02,1,2.01,2.01,3.02,3.02.22.23.45.42.81.41,1.18-.01,2.36,0,3.6,0Z"/></g></svg>