<?xml version="1.0" encoding="UTF-8"?><svg id="Layer_2" xmlns="http://www.w3.org/2000/svg" viewBox="0 0 160 144"><defs><style>.cls-1{fill:#166f80;}</style></defs><g id="Layer_1-2"><path class="cls-1" d="M121.49,72c0-20.16,0-40.33,0-60.49,0-5.38-.64-6.03-5.92-6.03-16.7,0-33.4,0-50.1,0-1.11,0-2.23.08-3.29-.32-1.22-.46-2.01-1.28-1.89-2.66.12-1.34.99-2.12,2.25-2.38.67-.14,1.38-.1,2.07-.1,17.32,0,34.65-.01,51.97,0,6.47,0,10.14,3.56,10.09,9.97-.02,2.03.66,2.62,2.63,2.59,6.86-.09,13.72-.04,20.58-.03,2.41,0,4.7.45,6.65,1.95,2.21,1.7,3.47,3.9,3.46,6.76,0,24.88,0,49.75,0,74.63,0,1.72-.5,3.06-2.45,3.21-1.59.12-2.66-1.12-2.68-3.25-.05-5.68-.03-11.36-.03-17.05,0-18.5,0-37,0-55.5,0-4.34-.92-5.27-5.22-5.28-6.86,0-13.72.05-20.58-.04-1.84-.02-2.38.61-2.36,2.41.08,7.14.09,14.27,0,21.41-.02,1.88.68,2.38,2.44,2.34,4.02-.09,8.04-.06,12.06-.02,4.45.05,6.3,1.95,6.32,6.38.04,7.24-1.06,8.35-8.22,8.35-3.53,0-7.07.06-10.6-.03-1.61-.04-2,.64-1.99,2.1,0,1.5.29,2.28,2.06,2.25,5.89-.09,11.78-.04,17.67-.03.62,0,1.25-.02,1.87.06,1.43.19,2.31,1.06,2.35,2.47.04,1.44-.86,2.3-2.25,2.55-.68.12-1.38.11-2.07.11-5.75,0-11.5.07-17.25-.03-1.83-.03-2.42.58-2.36,2.39.18,5.8-.78,4.91,4.94,4.97,4.78.05,9.56,0,14.34.01.62,0,1.25-.02,1.87.03,1.56.12,2.76.84,2.78,2.51.02,1.75-1.13,2.59-2.83,2.64-.97.03-1.94.02-2.91.02-5.4,0-10.81.03-16.21-.02-1.41-.01-1.99.44-1.96,1.91.14,6.43-.86,5.37,5.31,5.44,4.85.06,9.7,0,14.55.02.69,0,1.41,0,2.06.18,1.24.36,2.06,1.24,2.03,2.57-.02,1.24-.82,2.07-2.01,2.33-.94.21-1.92.29-2.88.29-5.47.03-10.95.08-16.42-.02-1.93-.03-2.73.49-2.66,2.56.18,5.08-.61,4.54,4.56,4.57,2.77.02,5.55-.05,8.31.03,4.01.11,6.12,2.3,6.19,6.26.13,7.18-1.32,8.65-8.52,8.66-2.77,0-5.54.05-8.31-.02-1.57-.04-2.3.45-2.22,2.14.1,2.07.08,4.16,0,6.23-.05,1.4.43,2.01,1.9,2,7.41-.04,14.83,0,22.24-.04,2.73-.02,3.94-1.25,3.98-3.98.06-4.3.02-8.59.03-12.89,0-.76,0-1.54.19-2.27.34-1.28,1.29-2.02,2.61-1.95,1.34.07,2.27.95,2.28,2.28.04,5.75.21,11.51-.16,17.24-.2,3.1-2.49,5.17-5.41,6.29-1.63.62-3.36.79-5.11.78-6.72-.02-13.44.04-20.16-.04-1.79-.02-2.41.54-2.41,2.38-.01,6.74-3.55,10.18-10.31,10.18-24.18,0-48.37,0-72.55,0-6.94,0-10.43-3.36-10.46-10.24,0-1.91-.76-2.33-2.47-2.31-6.93.07-13.86.01-20.79.03-2.06,0-4.03-.39-5.78-1.44C1.57,128.39.03,125.98.03,122.69c0-24.18,0-48.37,0-72.55,0-1.71.39-3.08,2.41-3.19,1.67-.09,2.67,1.04,2.72,3.2.07,3.19.03,6.37.03,9.56,0,20.3,0,40.61,0,60.91,0,4.47.89,5.37,5.33,5.38,6.79,0,13.58-.06,20.37.04,1.94.03,2.59-.63,2.45-2.52-.14-1.93-.1-3.88-.01-5.82.07-1.56-.59-2.08-2.08-2.05-3.46.06-6.93.03-10.39.01-4.52-.03-6.54-2.08-6.57-6.65,0-.69-.01-1.39,0-2.08.08-3.85,2.18-6.06,6.06-6.17,3.53-.1,7.07-.1,10.6,0,1.8.05,2.45-.57,2.4-2.4-.15-5.32.64-4.7-4.6-4.73-4.99-.03-9.98.01-14.97-.02-2.91-.02-4.44-.99-4.43-2.7,0-1.74,1.54-2.68,4.4-2.68,5.68,0,11.36-.05,17.05.03,1.82.03,2.59-.44,2.56-2.44-.08-4.93.01-4.93-4.98-4.93-5.34,0-10.67,0-16.01-.01-1.69,0-2.93-.77-2.96-2.51-.03-1.74,1.21-2.53,2.87-2.64.62-.04,1.25-.03,1.87-.03,5.47,0,10.95,0,16.42,0,2.72,0,2.75-.01,2.72-2.79-.05-5.17.7-4.51-4.5-4.54-4.99-.03-9.98,0-14.97,0-.62,0-1.25.03-1.87-.06-1.57-.21-2.64-1.09-2.55-2.73.09-1.51,1.13-2.33,2.66-2.38,1.59-.05,3.19-.03,4.78-.03,4.85,0,9.7-.05,14.55.03,1.67.03,1.94-.76,1.93-2.16,0-1.37-.2-2.22-1.9-2.19-4.36.09-8.73.05-13.1.02-3.8-.02-5.74-1.98-5.8-5.76-.01-.9,0-1.8,0-2.7.02-4.2,1.98-6.2,6.25-6.25,4.02-.05,8.04-.09,12.06.02,1.88.05,2.54-.53,2.51-2.48-.1-7.14-.09-14.27,0-21.41.02-1.74-.59-2.28-2.28-2.26-7.14.07-14.27,0-21.41.04-3.33.01-4.43,1.17-4.45,4.57-.03,4.71,0,9.42-.01,14.14,0,.69.02,1.4-.1,2.07-.26,1.43-1.19,2.17-2.63,2.14-1.49-.03-2.36-.88-2.37-2.34-.03-6.17-.18-12.34.08-18.5.19-4.31,4.42-7.5,9.5-7.54,7-.06,14-.09,21,.02,2.1.03,2.74-.62,2.71-2.72C33.29,3.71,37.03.04,43.16,0c2.7-.02,5.4,0,8.11,0,1.75,0,3.08.77,3.2,2.57.13,1.9-1.28,2.7-2.96,2.79-2.56.13-5.12.09-7.69.1-4.35.02-5.28.93-5.29,5.22,0,8.52,0,17.05,0,25.57,0,32.08,0,64.17,0,96.25,0,.9-.04,1.81.06,2.7.21,1.97,1.43,3.13,3.38,3.28.76.06,1.52.04,2.29.04,23.84,0,47.67,0,71.51,0,4.99,0,5.72-.74,5.72-5.82,0-20.23,0-40.47,0-60.7ZM25.52,53.61c2,0,4.01-.04,6.01.02,1.35.04,1.85-.53,1.81-1.85-.04-1.18-.01-2.24-1.66-2.23-4.07.03-8.15.03-12.22,0-1.61-.01-1.7.97-1.72,2.19-.02,1.28.4,1.93,1.78,1.89,2-.06,4-.02,6.01-.01ZM134.34,53.61c2.07,0,4.14-.04,6.21.02,1.41.04,1.76-.67,1.75-1.92,0-1.25-.18-2.18-1.75-2.16-4.07.04-8.15.03-12.22,0-1.48,0-1.62.9-1.62,2.06,0,1.16.13,2.06,1.63,2.01,2-.06,4-.01,6.01-.01ZM26.39,106.19c-1.66,0-3.32.03-4.98,0-1.48-.04-1.66.85-1.66,2.03,0,1.19.24,2.04,1.68,2.03,3.46-.02,6.92-.01,10.37,0,1.55,0,1.49-1.06,1.51-2.15.02-1.09-.15-1.93-1.53-1.9-1.8.04-3.6,0-5.39,0ZM133.49,106.19c-1.73,0-3.46.03-5.19-.01-1.33-.03-1.65.69-1.6,1.84.05,1.04-.14,2.2,1.44,2.21,3.53,0,7.05,0,10.58,0,1.51,0,1.52-1.06,1.54-2.16.02-1.12-.26-1.9-1.59-1.88-1.73.03-3.46,0-5.19,0Z"/><path class="cls-1" d="M80.03,58.84c-10.32,0-20.63,0-30.95,0-4.5,0-6.41-1.93-6.47-6.47-.01-.9-.03-1.8.04-2.7.28-3.38,2-5.15,5.36-5.51.69-.07,1.38-.06,2.07-.06,19.94,0,39.88,0,59.82,0,1.18,0,2.35,0,3.5.32,3.01.81,4.07,2.91,4.01,7.92-.05,3.57-1.44,5.74-4.17,6.34-.8.18-1.65.15-2.48.15-10.25,0-20.49,0-30.74,0ZM79.78,53.61c9.96,0,19.93,0,29.89,0,2.14,0,2.51-.51,2.29-2.61-.19-1.86-1.58-1.44-2.66-1.44-19.51-.02-39.02-.02-58.54-.01-.35,0-.69.02-1.04.01-1.1-.02-1.6.47-1.69,1.61-.14,1.71.34,2.5,2.26,2.49,9.82-.08,19.65-.04,29.47-.04Z"/><path class="cls-1" d="M79.94,40.04c-4.57,0-9.14.01-13.71-.01-.82,0-1.66-.08-2.47-.23-1.04-.19-1.73-.85-1.99-1.89-.27-1.07.09-2.03.98-2.54,1.37-.79,1.38-1.83,1.13-3.17-.73-4.01-1.35-8.05-2.05-12.07-.23-1.35-.35-2.66.84-3.63,1.2-.99,2.45-.59,3.71-.03,1.96.87,3.97,1.65,5.91,2.56,1.02.48,1.68.27,2.29-.61.98-1.42,1.96-2.86,3.04-4.21,1.58-1.99,3.21-2.01,4.78-.05.95,1.18,1.84,2.43,2.66,3.72.83,1.31,1.69,1.78,3.23.95,1.7-.92,3.56-1.53,5.33-2.32,1.25-.56,2.5-1,3.71-.04,1.28,1.02,1.11,2.39.86,3.81-.7,4.02-1.31,8.06-2.04,12.07-.23,1.28-.18,2.25,1.1,2.98.89.51,1.28,1.45,1.04,2.52-.25,1.14-1.03,1.86-2.14,1.98-1.58.17-3.17.19-4.76.2-3.81.03-7.62,0-11.43,0ZM80.02,34.59c2.77,0,5.53-.04,8.3.02,1.41.03,2.21-.48,2.41-1.94.27-1.98.65-3.95.92-5.94.15-1.13,1.14-2.64.31-3.3-.98-.79-2.24.55-3.36.98-3.97,1.53-4.24,1.53-6.49-1.76-2.22-3.24-2.24-3-4.17.04-.26.41-.57.78-.86,1.17-1.14,1.57-2.54,2-4.33,1.1-1.17-.59-2.4-1.06-3.61-1.57-.91-.38-1.5-.36-1.27.92.49,2.72,1,5.44,1.39,8.17.23,1.65,1.09,2.18,2.67,2.13,2.69-.08,5.39-.02,8.09-.02Z"/><path class="cls-1" d="M80.04,116.75c5.26,0,10.52-.02,15.78,0,3.52.01,5.21,1.53,5.67,5,.07.55.11,1.1.12,1.65.13,6.23-1.67,8.05-7.93,8.05-9.27,0-18.55,0-27.82,0-5.61,0-7.45-1.87-7.44-7.51,0-.83.05-1.66.16-2.48.42-3.1,2.16-4.69,5.27-4.71,5.4-.04,10.8-.01,16.19-.01ZM80.22,121.91c-4.71,0-9.41.03-14.12-.02-1.49-.01-2.33.34-2.33,2.07,0,1.75.85,2.06,2.33,2.05,9.27-.03,18.55-.03,27.82,0,1.48,0,2.34-.3,2.33-2.05,0-1.73-.84-2.09-2.33-2.07-4.57.05-9.14.02-13.7.02Z"/><path class="cls-1" d="M89.54,66.13c5.67,0,11.35,0,17.02,0,.76,0,1.54,0,2.26.18,1.26.32,2.05,1.15,2.06,2.52.01,1.37-.75,2.22-2.01,2.55-.72.19-1.5.21-2.26.21-11.35.01-22.69.01-34.04,0-2.98,0-4.61-.98-4.62-2.73-.01-1.77,1.59-2.74,4.57-2.74,5.67,0,11.35,0,17.02,0Z"/><path class="cls-1" d="M89.43,84.13c-5.6,0-11.21,0-16.81,0-.55,0-1.11,0-1.66-.02-1.65-.09-2.89-.83-2.96-2.57-.08-1.78,1.21-2.51,2.79-2.75.68-.1,1.38-.12,2.07-.12,11.14,0,22.28,0,33.42,0,.82,0,1.67.05,2.47.24,1.34.32,2.23,1.15,2.12,2.65-.11,1.55-1.07,2.34-2.55,2.52-.61.08-1.24.04-1.87.04-5.67,0-11.35,0-17.02,0Z"/><path class="cls-1" d="M89.59,109.41c-5.6,0-11.21,0-16.81,0-.76,0-1.53,0-2.27-.12-1.43-.25-2.48-1.06-2.53-2.59-.05-1.56,1-2.36,2.45-2.61.68-.12,1.38-.13,2.07-.13,11.34,0,22.69,0,34.03,0,2.99,0,4.33.84,4.36,2.67.03,1.87-1.29,2.75-4.27,2.77-5.67.02-11.34,0-17.02,0Z"/><path class="cls-1" d="M89.42,96.65c-5.95,0-11.9.01-17.86,0-2.28,0-3.56-.95-3.59-2.56-.03-1.6,1.29-2.65,3.53-2.65,11.97-.02,23.95-.02,35.92,0,2.25,0,3.5,1.03,3.45,2.69-.05,1.59-1.23,2.52-3.39,2.53-6.02.02-12.04,0-18.06,0Z"/><path class="cls-1" d="M56.45,66.15c1.45,0,2.91-.07,4.35.02,1.65.1,2.81.97,2.83,2.7.02,1.66-1.15,2.57-2.66,2.63-3.1.12-6.22.13-9.32-.01-1.53-.07-2.56-1.06-2.5-2.74.06-1.58,1.1-2.39,2.54-2.52,1.58-.14,3.17-.03,4.76-.03,0-.01,0-.03,0-.04Z"/><path class="cls-1" d="M56.35,84.11c-1.52,0-3.04.07-4.56-.02-1.48-.08-2.48-.89-2.63-2.42-.16-1.59.77-2.57,2.21-2.76,3.36-.43,6.75-.44,10.11.02,1.37.19,2.25,1.18,2.18,2.61-.07,1.53-1.11,2.4-2.55,2.52-1.58.14-3.17.03-4.76.03,0,0,0,.01,0,.02Z"/><path class="cls-1" d="M56.43,109.29c-1.59,0-3.18.09-4.75-.03-1.46-.11-2.48-.91-2.52-2.5-.05-1.7,1.03-2.63,2.55-2.69,3.1-.13,6.21-.13,9.31,0,1.48.07,2.71.92,2.66,2.61-.05,1.62-1.14,2.51-2.69,2.62-1.51.12-3.03.03-4.55.03,0-.02,0-.03,0-.05Z"/><path class="cls-1" d="M56.14,96.63c-1.45,0-2.91.07-4.36-.02-1.6-.09-2.63-.96-2.61-2.63.01-1.57,1.06-2.45,2.52-2.5,3.11-.1,6.23-.1,9.34,0,1.55.05,2.68.93,2.63,2.62-.04,1.67-1.18,2.44-2.75,2.51-1.59.07-3.18.02-4.78.01Z"/><path class="cls-1" d="M82.57,29.4c-.21,1.54-1.01,2.54-2.68,2.47-1.57-.07-2.33-1.07-2.4-2.55-.08-1.45,1.16-2.6,2.66-2.48,1.51.13,2.36.97,2.43,2.56Z"/></g></svg>