<?xml version="1.0" encoding="UTF-8"?><svg id="Layer_2" xmlns="http://www.w3.org/2000/svg" viewBox="0 0 160 174.23"><defs><style>.cls-1{fill:#166f80;}</style></defs><g id="Layer_1-2"><path class="cls-1" d="M0,102.91c.16-3.93-.22-8.82.23-13.71.91-9.95,6.86-16.22,16.73-17.22,2.07-.21,2.46-1.05,2.42-2.84-.16-7.61.08-15.18,2.06-22.61C26.32,28.2,37.19,14.53,54.25,6.51c21.53-10.12,42.74-8.47,62.26,5.22,16.68,11.7,25.22,28.26,25.83,48.74.09,3.16.06,6.32,0,9.48-.02,1.29.47,2.01,1.74,2.15,9.04,1.01,14.62,10.28,15.28,17.6.92,10.12.74,20.3.14,30.44-.45,7.66-4.5,12.08-12.08,13.69-2.49.53-3.93,1.76-5.22,3.74-7.98,12.3-19.49,18.61-33.97,19.74-1.36.11-1.97.58-2.37,1.85-3.3,10.39-12.85,16.31-23.86,14.84-9.79-1.3-17.88-10.37-18.35-20.57-.37-7.98,4.79-16.41,12.16-19.88,8.1-3.82,17.45-2.51,23.79,3.32,2.88,2.65,5.12,5.72,6.17,9.53.35,1.28,1.04,1.9,2.41,1.82,9.69-.6,17.58-4.75,23.91-12.01.23-.27.52-.68.46-.97-.11-.56-.7-.43-1.13-.44-.75-.03-1.51.01-2.26-.03-2.72-.16-4.27-1.65-4.53-4.38-.06-.67-.04-1.35-.04-2.03,0-16.4,0-32.81,0-49.21,0-.68-.01-1.36.05-2.03.31-3.5,2.03-5.12,5.51-5.24,2.96-.1,2.99-.1,2.97-3.08-.05-6.46.31-12.93-1.38-19.29-5.08-19.16-17.03-32-35.87-37.79-24.23-7.45-49.98,3.87-61.52,26.38-3.82,7.45-5.4,15.43-5.74,23.7-.1,2.48.11,4.98-.06,7.45-.15,2.16.73,2.88,2.74,2.64.37-.04.75,0,1.13.01,2.45.04,3.9,1.35,4.56,3.63.4,1.38.48,2.81.48,4.25,0,16.18,0,32.36,0,48.54,0,5.06-1.42,6.48-6.4,6.49-3.91,0-7.84-.2-11.74.04C8.88,135.49-.03,128.21,0,115.82c0-3.99,0-7.98,0-12.92ZM28.23,103.49c0-6.7-.05-13.39.03-20.09.02-1.79-.59-2.4-2.35-2.32-2.4.12-4.81.02-7.22.03-5.66.03-9.16,3.41-9.2,9.1-.07,9.1-.06,18.21,0,27.31.03,4.68,3.25,7.88,7.98,8.01,2.78.08,5.57-.07,8.35.05,1.87.08,2.48-.6,2.46-2.47-.09-6.54-.03-13.09-.03-19.64ZM134.05,103.35c0,6.62,0,13.23,0,19.85,0,1.05-.11,2.31,1.44,2.31,3.45,0,6.93.43,10.33-.42,2.54-.63,4.38-2.43,4.39-4.81.08-9.92.57-19.89-.2-29.76-.55-7.07-4.47-10-10.52-9.43-.97.09-1.96.1-2.93,0-2.04-.22-2.58.73-2.56,2.63.08,6.54.03,13.08.03,19.63ZM97.5,153.1c0-7.08-5.32-12.71-12.11-12.81-6.57-.1-12.26,5.51-12.28,12.12-.03,7.1,5.25,12.47,12.3,12.5,6.85.04,12.09-5.08,12.1-11.81Z"/></g></svg>