<?xml version="1.0" encoding="UTF-8"?><svg id="Layer_2" xmlns="http://www.w3.org/2000/svg" xmlns:xlink="http://www.w3.org/1999/xlink" viewBox="0 0 160 144.75"><defs><style>.cls-1{filter:url(#drop-shadow-1);}.cls-2{fill:#166f80;}</style><filter id="drop-shadow-1" x="13.96" y="18.25" width="67.1" height="34.52" filterUnits="userSpaceOnUse"><feOffset dx="7" dy="7"/><feGaussianBlur result="blur" stdDeviation="5"/><feFlood flood-color="#231f20" flood-opacity=".23"/><feComposite in2="blur" operator="in"/><feComposite in="SourceGraphic"/></filter></defs><g id="Layer_1-2"><g class="cls-1"><path class="cls-2" d="M24.03,18.45h1.51c.69,0,1.25.56,1.25,1.25v8.2c0,1.12-.27,2.1-.8,2.92s-1.28,1.46-2.24,1.9c-.96.45-2.07.67-3.35.67s-2.38-.22-3.34-.67c-.96-.45-1.7-1.08-2.23-1.9s-.8-1.79-.8-2.92v-8.2c0-.69.56-1.25,1.25-1.25h1.51c.69,0,1.25.56,1.25,1.25v7.86c0,.46.1.87.31,1.22s.48.63.84.83c.35.2.76.3,1.22.3s.87-.1,1.23-.3c.36-.2.64-.48.84-.83s.31-.76.31-1.22v-7.86c0-.69.56-1.25,1.25-1.25Z"/><path class="cls-2" d="M34.23,33.39c-1.28,0-2.4-.19-3.36-.57-.96-.38-1.7-.97-2.23-1.76-.29-.44-.5-.94-.64-1.52-.18-.78.42-1.53,1.22-1.53h1.43c.5,0,.97.29,1.15.76.05.14.11.26.19.38.2.31.49.54.85.7.37.16.81.24,1.33.24.43,0,.79-.05,1.08-.16.29-.11.51-.25.66-.44.15-.19.22-.4.22-.65,0-.22-.07-.42-.21-.59-.14-.17-.38-.32-.7-.46-.32-.14-.76-.26-1.31-.38l-1.49-.32c-1.3-.28-2.33-.75-3.08-1.42-.75-.67-1.13-1.58-1.13-2.74,0-.94.25-1.76.76-2.46.51-.7,1.21-1.25,2.11-1.64.9-.39,1.93-.59,3.1-.59s2.23.2,3.1.6c.87.4,1.54.96,2.02,1.68.17.26.31.54.42.84.31.82-.3,1.69-1.17,1.69h-1.44c-.46,0-.9-.23-1.1-.64-.09-.19-.21-.35-.37-.48-.32-.27-.81-.4-1.45-.4-.41,0-.75.05-1.01.14-.26.1-.46.23-.59.4-.13.17-.19.37-.19.58,0,.23.07.43.2.61.14.18.35.33.65.46.29.13.67.24,1.14.34l1.21.26c.81.17,1.51.4,2.1.68s1.07.62,1.44,1c.37.38.65.81.82,1.28.18.48.26.99.26,1.56,0,.97-.24,1.79-.72,2.47s-1.17,1.19-2.06,1.54c-.89.35-1.97.53-3.22.53Z"/><path class="cls-2" d="M41.28,31.96v-12.26c0-.69.56-1.25,1.25-1.25h8.16c.69,0,1.25.56,1.25,1.25v.73c0,.69-.56,1.25-1.25,1.25h-4.15c-.69,0-1.25.56-1.25,1.25h0c0,.69.56,1.25,1.25,1.25h3.6c.69,0,1.25.56,1.25,1.25v.65c0,.69-.56,1.25-1.25,1.25h-3.6c-.69,0-1.25.56-1.25,1.25v.16c0,.69.56,1.25,1.25,1.25h4.11c.69,0,1.25.56,1.25,1.25v.73c0,.69-.56,1.25-1.25,1.25h-8.12c-.69,0-1.25-.56-1.25-1.25Z"/><path class="cls-2" d="M21.09,52.77c-1.35,0-2.56-.29-3.64-.87-1.08-.58-1.93-1.43-2.55-2.56s-.94-2.5-.94-4.14.32-3.03.95-4.16c.64-1.13,1.49-1.98,2.57-2.56,1.08-.58,2.28-.87,3.6-.87.93,0,1.79.13,2.58.38.79.25,1.48.63,2.07,1.12.59.49,1.07,1.09,1.42,1.8.13.26.25.54.34.83.26.8-.36,1.61-1.2,1.61h-1.57c-.52,0-.98-.32-1.16-.8-.02-.04-.03-.08-.05-.12-.12-.28-.29-.52-.51-.71-.22-.2-.47-.35-.77-.46-.3-.11-.65-.16-1.04-.16-.67,0-1.24.16-1.7.49s-.82.8-1.06,1.41c-.24.61-.36,1.35-.36,2.2s.12,1.65.37,2.26c.24.61.6,1.06,1.06,1.37s1.02.46,1.67.46c.37,0,.7-.05.99-.14.29-.09.55-.23.76-.41s.4-.39.53-.64c.03-.05.05-.09.07-.14.2-.44.64-.71,1.12-.71h1.56c.89,0,1.5.91,1.15,1.74-.03.06-.05.12-.08.18-.3.65-.73,1.25-1.29,1.79-.56.54-1.25.98-2.06,1.32-.82.33-1.77.5-2.85.5Z"/><path class="cls-2" d="M31.62,52.57h-1.67c-.85,0-1.45-.83-1.18-1.64l4.06-12.26c.17-.51.65-.86,1.18-.86h3.68c.54,0,1.02.35,1.18.86l4.06,12.26c.27.81-.33,1.64-1.18,1.64h-1.67c-.55,0-1.04-.36-1.19-.89l-2.97-9.81h-.12l-2.97,9.81c-.16.53-.64.89-1.19.89ZM33,46.74h5.64c.69,0,1.25.56,1.25,1.25v.5c0,.69-.56,1.25-1.25,1.25h-5.64c-.69,0-1.25-.56-1.25-1.25v-.5c0-.69.56-1.25,1.25-1.25Z"/><path class="cls-2" d="M49.84,52.75c-1.28,0-2.4-.19-3.36-.57-.96-.38-1.7-.97-2.23-1.76-.29-.44-.5-.94-.64-1.52-.18-.78.42-1.53,1.22-1.53h1.43c.5,0,.97.29,1.15.76.05.14.11.26.19.38.2.31.49.54.85.7.37.16.81.24,1.33.24.43,0,.79-.05,1.08-.16.29-.11.51-.25.66-.44.15-.19.22-.4.22-.65,0-.22-.07-.42-.21-.59-.14-.17-.38-.32-.7-.46-.32-.14-.76-.26-1.31-.38l-1.49-.32c-1.3-.28-2.33-.75-3.08-1.42-.75-.67-1.13-1.58-1.13-2.74,0-.94.25-1.76.76-2.46.51-.7,1.21-1.25,2.11-1.64.9-.39,1.93-.59,3.1-.59s2.23.2,3.1.6c.87.4,1.54.96,2.02,1.68.17.26.31.54.42.84.31.82-.3,1.69-1.17,1.69h-1.44c-.46,0-.9-.23-1.1-.64-.09-.19-.21-.35-.37-.48-.32-.27-.81-.4-1.45-.4-.41,0-.75.05-1.01.14-.26.1-.46.23-.59.4-.13.17-.19.37-.19.58,0,.23.07.43.2.61.14.18.35.33.65.46.29.13.67.24,1.14.34l1.21.26c.81.17,1.51.4,2.1.68s1.07.62,1.44,1c.37.38.65.81.82,1.28.18.48.26.99.26,1.56,0,.97-.24,1.79-.72,2.47s-1.17,1.19-2.06,1.54c-.89.35-1.97.53-3.22.53Z"/><path class="cls-2" d="M56.88,51.32v-12.26c0-.69.56-1.25,1.25-1.25h8.16c.69,0,1.25.56,1.25,1.25v.73c0,.69-.56,1.25-1.25,1.25h-4.15c-.69,0-1.25.56-1.25,1.25h0c0,.69.56,1.25,1.25,1.25h3.6c.69,0,1.25.56,1.25,1.25v.65c0,.69-.56,1.25-1.25,1.25h-3.6c-.69,0-1.25.56-1.25,1.25v.16c0,.69.56,1.25,1.25,1.25h4.11c.69,0,1.25.56,1.25,1.25v.73c0,.69-.56,1.25-1.25,1.25h-8.12c-.69,0-1.25-.56-1.25-1.25Z"/><path class="cls-2" d="M75.07,52.75c-1.28,0-2.4-.19-3.36-.57-.96-.38-1.7-.97-2.23-1.76-.29-.44-.5-.94-.64-1.52-.18-.78.42-1.53,1.22-1.53h1.43c.5,0,.97.29,1.15.76.05.14.11.26.19.38.2.31.49.54.85.7.37.16.81.24,1.33.24.43,0,.79-.05,1.08-.16.29-.11.51-.25.66-.44.15-.19.22-.4.22-.65,0-.22-.07-.42-.21-.59-.14-.17-.38-.32-.7-.46-.32-.14-.76-.26-1.31-.38l-1.49-.32c-1.3-.28-2.33-.75-3.08-1.42-.75-.67-1.13-1.58-1.13-2.74,0-.94.25-1.76.76-2.46.51-.7,1.21-1.25,2.11-1.64.9-.39,1.93-.59,3.1-.59s2.23.2,3.1.6c.87.4,1.54.96,2.02,1.68.17.26.31.54.42.84.31.82-.3,1.69-1.17,1.69h-1.44c-.46,0-.9-.23-1.1-.64-.09-.19-.21-.35-.37-.48-.32-.27-.81-.4-1.45-.4-.41,0-.75.05-1.01.14-.26.1-.46.23-.59.4-.13.17-.19.37-.19.58,0,.23.07.43.2.61.14.18.35.33.65.46.29.13.67.24,1.14.34l1.21.26c.81.17,1.51.4,2.1.68s1.07.62,1.44,1c.37.38.65.81.82,1.28.18.48.26.99.26,1.56,0,.97-.24,1.79-.72,2.47s-1.17,1.19-2.06,1.54c-.89.35-1.97.53-3.22.53Z"/></g><path class="cls-2" d="M.1,70.34c0-18.89.21-37.78-.1-56.67C-.13,5.45,6.55-.07,13.67,0c20.34.21,40.69.08,61.03.05,1.79,0,3.13.59,4.43,1.81,8.79,8.22,17.61,16.41,26.5,24.53,1.56,1.43,2.29,2.96,2.27,5.06-.06,8.79.04,17.58-.07,26.36-.02,2.01.74,2.77,2.59,3.23,18.31,4.52,26.77,26.24,16.31,42.02-1.23,1.85-1.2,2.97.49,4.28.92.71,1.72,1.61,2.49,2.49,1.55,1.78,3.09,3.08,5.82,2.5,1.94-.41,3.78.65,5.21,2.09,5.7,5.75,11.43,11.47,17.06,17.29,3.06,3.16,2.91,7.84-.14,10.82-3.07,3-7.35,2.99-10.56-.19-5.7-5.65-11.33-11.37-16.96-17.09-1.94-1.97-2.61-4.38-1.95-7.06.25-1,.12-1.71-.6-2.42-1.78-1.74-3.54-3.5-5.26-5.31-.79-.83-1.43-.78-2.31-.12-3.07,2.33-6.5,3.94-10.3,4.67-1.43.27-1.85,1.04-1.87,2.45-.05,4.21.35,8.44-.29,12.64-.88,5.76-6.08,10.49-11.93,10.5-27.82.05-55.63.06-83.45,0-6.59-.01-12.03-5.65-12.04-12.34-.04-19.31-.01-38.61-.02-57.92ZM5.73,70.34c0,16.47,0,32.94,0,49.41,0,2.84-.06,5.68.04,8.51.13,3.65,2.64,6.19,6.28,6.47,1.93.14,3.87.24,5.8.24,24.08.02,48.16.02,72.24,0,1.73,0,3.46-.09,5.18-.22,4.32-.33,6.61-2.76,6.7-7.13.06-3.18-.05-6.37.05-9.55.05-1.59-.43-2.35-2.11-2.6-5.03-.75-9.57-2.74-13.44-6.06-1.14-.98-2.33-1.32-3.78-1.3-5.81.04-11.62.03-17.44.01-2.52,0-2.71-.25-2.69-2.98.01-2.68.19-2.89,2.78-2.89,4.36-.01,8.72-.03,13.08,0,1.36.01,1.78-.24.99-1.62-1.42-2.48-2.22-5.23-2.67-8.04-.24-1.51-.93-1.94-2.34-1.91-3.18.06-6.37-.06-9.55.04-2.32.07-2.29-1.37-2.31-3-.02-1.69.12-3.01,2.38-2.93,3.18.11,6.37,0,9.55.04,1.28.02,2.01-.29,2.27-1.74.4-2.24,1-4.47,2.04-6.52.93-1.82.12-2.1-1.51-2.08-4.01.06-8.03.03-12.04.01-2.45-.01-2.66-.25-2.68-2.79-.02-2.79.17-3.05,2.6-3.06,5.47-.02,10.93-.04,16.4.01,1.54.02,2.77-.37,3.93-1.44,4.09-3.75,8.95-6.02,14.41-6.83,1.74-.26,2.13-.98,2.12-2.55-.05-7.61-.07-15.22.01-22.83.02-1.95-.7-2.5-2.55-2.47-5.6.09-11.21.06-16.81.02-5.79-.04-9.42-3.71-9.44-9.53-.02-4.98-.04-9.96.01-14.95.02-1.44-.36-2.17-1.96-2.17-19.72.04-39.44.04-59.16.04-1.77,0-3.22.71-4.43,1.95-1.61,1.66-1.95,3.73-1.95,5.94.01,18.82,0,37.64,0,56.46ZM103.79,109.81c10.86.69,21.68-8.83,21.73-21.92.05-12.19-9.78-22.02-21.81-22.01-12.05,0-21.56,9.97-21.59,22.41-.02,11.99,10.46,22.17,21.67,21.53ZM78.87,9.47c0,4.88-.03,9.22.01,13.56.03,2.58,1.09,3.65,3.67,3.68,4.35.05,8.71.02,13.06,0,.42,0,1,.21,1.24-.56-5.83-5.41-11.7-10.85-17.98-16.68ZM135.57,118.19c-.77-.03-1.36.28-1.69.97-.49,1.06.04,1.85.77,2.58,5.31,5.35,10.61,10.69,15.92,16.04.91.91,1.97,1.57,3.06.51,1.2-1.17.4-2.29-.53-3.22-5.25-5.31-10.51-10.6-15.77-15.9-.49-.5-1.01-.95-1.77-.97Z"/><path class="cls-2" d="M15.05,87.01c0-5.6-.01-11.2,0-16.8,0-2.89.83-3.75,3.68-3.75,10.44-.02,20.88-.02,31.33,0,2.84,0,3.8.89,3.81,3.68.03,11.34.03,22.68,0,34.02,0,2.67-1.09,3.88-3.76,3.9-10.44.07-20.88.07-31.33,0-2.89-.02-3.73-1.08-3.73-4.03-.01-5.67,0-11.34,0-17.01ZM20.69,86.94c0,4.36.06,8.71-.03,13.07-.04,1.75.62,2.26,2.3,2.24,7.61-.07,15.21-.07,22.82,0,1.75.02,2.27-.66,2.26-2.32-.05-8.5-.07-17.01,0-25.51.02-1.86-.69-2.36-2.45-2.34-7.54.07-15.07.08-22.61,0-1.87-.02-2.37.67-2.33,2.43.1,4.15.03,8.3.03,12.44Z"/><path class="cls-2" d="M53.72,124.06c-11.13,0-22.26.01-33.39-.02-.9,0-2.18.47-2.55-.74-.43-1.37-.45-2.89.05-4.28.27-.76,1.17-.61,1.84-.61,3.04-.02,6.08-.01,9.13-.01,19.43,0,38.85,0,58.28,0,2.72,0,4.21,2.56,2.88,4.98-.56,1.02-1.59.65-2.43.66-11.27.03-22.54.02-33.81.02Z"/></g></svg>