<?xml version="1.0" encoding="UTF-8"?><svg id="Layer_2" xmlns="http://www.w3.org/2000/svg" viewBox="0 0 160 192"><defs><style>.cls-1{fill:#166f80;}</style></defs><g id="Layer_1-2"><path class="cls-1" d="M.08,54.86C.08,46.13.27,37.4,0,28.68c-.18-6.03,2.32-10.38,7.01-13.75,5.75-4.14,12.29-6.56,19.03-8.45C47.49.45,69.44-.55,91.52.23c15.9.56,31.61,2.63,46.81,7.6,5.31,1.74,10.41,3.95,14.93,7.31,4.49,3.33,6.79,7.59,6.73,13.4-.18,17.7-.14,35.4-.02,53.11.03,4.9-1.86,8.67-5.47,11.74-5.98,5.08-13.2,7.56-20.54,9.8-1.75.53-3.51,1.01-5.29,1.44-3.11.75-4.4-.25-4.41-3.45-.02-10.22,0-20.44,0-30.67,0-3.76-.02-3.68-3.7-4.4-17.07-3.33-34.32-3.83-51.62-3.3-10.3.32-20.52,1.62-30.67,3.46-1.92.35-2.59,1.2-2.58,3.16.08,10.39.04,20.78.04,31.17,0,3.99-1.19,4.92-5.06,3.87-8.35-2.27-16.63-4.72-23.8-9.87C2.31,91.31-.11,87.11.03,81.29c.22-8.8.06-17.62.06-26.43,0,0,0,0-.01,0ZM35.74,52.4c0,2.33.02,4.65,0,6.98-.02,1.41.25,2.14,2.01,1.8,16.12-3.12,32.4-4.16,48.8-3.73,11.9.31,23.69,1.42,35.37,3.65,1.84.35,2.4-.03,2.37-1.86-.07-4.49,0-8.97-.03-13.46-.01-2.06.92-3.23,2.96-3.66,3.75-.77,7.4-1.88,10.99-3.2,4.93-1.8,9.78-3.81,13.64-7.54,3.84-3.71,3.85-6.73,0-10.42-4.76-4.57-10.82-6.7-16.92-8.66-11.37-3.65-23.09-5.47-34.96-6.35-7.53-.56-15.08-1.15-22.64-.96-5.06.13-10.11.52-15.17.84-14.32.92-28.4,3.13-41.9,8.15-4.58,1.7-9.08,3.74-12.55,7.42-3.16,3.35-3.17,6.18.03,9.56,1.97,2.08,4.36,3.58,6.88,4.88,5.65,2.91,11.67,4.79,17.84,6.19,2.38.54,3.41,1.75,3.31,4.14-.08,2.07-.02,4.15-.02,6.23ZM5.32,35.99c0,1.43,0,2.32,0,3.21,0,13.79.16,27.59-.1,41.37-.09,4.54,1.61,7.6,5.11,10.07,5.25,3.69,11.19,5.77,17.26,7.57,2.86.85,2.94.82,2.94-2.17,0-15.45-.03-30.91.04-46.36,0-2.01-.59-2.9-2.6-3.43-7.9-2.07-15.56-4.78-22.64-10.26ZM154.34,36.25c-3.35,2.56-6.8,4.53-10.5,6.06-3.77,1.56-7.59,3-11.56,3.87-2.27.5-2.86,1.55-2.84,3.75.08,15.29.04,30.57.04,45.86,0,.5,0,1,.02,1.5.02,1.18.5,1.66,1.74,1.29,6.45-1.96,12.85-4.02,18.44-7.97,3.4-2.4,5.21-5.36,5.13-9.82-.23-13.87-.08-27.75-.1-41.62,0-.88.22-1.81-.36-2.92Z"/><path class="cls-1" d="M79.75,192c-15.46,0-30.92,0-46.38,0-3.95,0-4.41-.46-4.41-4.47,0-8.06-.04-16.13,0-24.19.07-11.51,8.23-20.17,19.68-21.13,4.41-.37,8.8-.21,13.2-.23,1.89,0,2.58-.66,2.7-2.61.18-3.11-.62-5.31-3.15-7.51-5.52-4.78-8.25-11.16-8.37-18.52-.09-5.57-.07-11.14-.01-16.71.17-15.57,13.65-27.49,29.14-25.8,15.18,1.66,24.66,12.08,24.75,27.36.03,5.56.27,11.13-.22,16.69-.64,7.44-3.91,13.46-9.62,18.22-1.26,1.05-2.1,6.84-1.18,8.14.63.9,1.64.67,2.52.68,4.57.09,9.13-.05,13.7.3,9.9.76,18.66,9.61,18.88,19.61.19,8.89.08,17.79.05,26.68,0,2.84-.76,3.47-3.9,3.47-15.79.01-31.59,0-47.38,0ZM79.9,147.1c-9.72,0-19.45-.05-29.17.02-8.66.06-16.04,6.27-16.43,14.3-.38,7.88-.12,15.79-.17,23.68,0,1.48.63,2.08,2.11,2.05,2.91-.06,5.82-.11,8.73.02,1.98.09,2.62-.67,2.59-2.6-.09-5.32-.05-10.64-.02-15.96.01-2.04-.36-4.44,2.52-4.92,1.95-.32,2.97,1.52,2.98,5.07.02,5.24.05,10.47-.02,15.71-.02,1.83.47,2.71,2.53,2.7,16.29-.06,32.58-.06,48.87,0,2,0,2.61-.76,2.58-2.65-.07-4.99-.04-9.97-.01-14.96,0-1.24.04-2.5.28-3.71.27-1.35,1.19-2.22,2.64-2.18,1.5.04,2.18,1.09,2.44,2.41.15.81.13,1.65.13,2.48.01,5.32.06,10.64-.02,15.96-.03,1.87.5,2.75,2.54,2.65,2.74-.14,5.49-.15,8.22,0,2.15.12,2.71-.8,2.69-2.78-.08-6.48-.27-12.98.03-19.45.5-10.76-7.47-18.1-17.86-17.89-9.39.18-18.78.04-28.17.04ZM101.42,98.32c.97-13.98-10.48-22.03-20.57-22.32-13.49-.39-22.31,9.46-22.73,20.89-.51,14.13,9.06,23.33,21.67,23.5,11.91.16,22.51-9.11,21.63-22.07ZM101.22,115.71c-5.86,6.75-12.81,9.81-21.17,9.88-8.35.07-15.28-3.06-21.09-9.26-.21,7.63,8.77,16.38,17.08,17.05,13.69,1.1,23.56-5.58,25.18-17.67ZM79.75,141.94s0,0,0,0c2.9,0,5.81,0,8.71,0,2.37,0,2-1.76,1.95-3.21-.07-2-1.43-1.11-2.33-.88-5.33,1.37-10.64,1.5-15.99.09-.81-.21-2.25-1.35-2.37.72-.09,1.5-.52,3.35,2.07,3.3,2.65-.05,5.31-.01,7.96-.01Z"/><path class="cls-1" d="M57.46,31.12c.04-12.1,10.03-22,22.17-21.97,12.12.03,22,10.01,21.96,22.17-.04,12.12-10.02,22-22.18,21.97-12.14-.03-21.99-9.98-21.96-22.16ZM79.45,48.08c9.31.03,16.86-7.39,16.93-16.62.07-9.43-7.39-17.03-16.74-17.08-9.39-.05-16.98,7.51-16.96,16.89.02,9.26,7.53,16.79,16.77,16.81Z"/><path class="cls-1" d="M70.85,31.33c0-3.24-.03-6.48,0-9.72.05-3.44,1.86-4.47,4.85-2.67,5.26,3.18,10.48,6.42,15.66,9.71,2.37,1.5,2.4,3.59,0,5.13-5.38,3.45-10.82,6.82-16.3,10.11-2.36,1.42-4.12.4-4.19-2.34-.09-3.4-.02-6.81-.02-10.21h0ZM75.99,30.78c0,.35-.01.43,0,.51.28,1.74-.93,4.22.64,5.05,1.31.7,2.96-1.35,4.4-2.25,4.55-2.86,4.55-2.93.05-5.72-1.5-.93-3.15-2.99-4.61-2.23-1.29.68-.24,3.21-.48,4.64Z"/></g></svg>