<?xml version="1.0" encoding="UTF-8"?><svg id="Layer_2" xmlns="http://www.w3.org/2000/svg" viewBox="0 0 153.48 153.89"><defs><style>.cls-1{fill:#166f80;}</style></defs><g id="Layer_1-2"><path class="cls-1" d="M73.11,35.37c-23.26,0-46.52,0-69.78,0q-3.27,0-3.28-3.29c0-6.07-.02-12.13,0-18.2C.1,6.19,6.21.02,13.87.01c41.94-.02,83.87-.02,125.81,0,7.65,0,13.77,6.19,13.78,13.9.02,30.4.02,60.8,0,91.19,0,7.48-5.96,13.61-13.41,13.94-.66.03-1.33.02-1.99.02-41.01,0-82.01-.01-123.02.01-6.43,0-11.07-2.77-13.9-8.56-.81-1.65-1.1-3.41-1.09-5.24,0-20.4.02-40.8-.04-61.2,0-1.9.68-2.42,2.44-2.39,5.74.1,4.96-.52,4.97,4.84.03,18.93,0,37.86.01,56.8,0,5.87,2.39,8.31,8.17,8.28,1.59,0,3.44.59,4.69-.28,1.31-.92.45-2.86.64-4.34,1.49-11.29,6.87-20.03,16.72-25.83,1.24-.73,1.15-1.18.47-2.25-4.4-6.96-4.66-14.12-.23-21.08,4.22-6.63,10.55-9.77,18.36-8.89,8.05.9,13.59,5.54,16.27,13.19,2.03,5.8,1.21,11.46-2.19,16.62-.85,1.3-.65,1.78.61,2.55,10.43,6.39,15.88,15.81,16.53,28,.1,1.82.63,2.38,2.45,2.38,16.28-.06,32.57-.03,48.85-.04,4.6,0,7.33-2.7,7.34-7.32.02-22.2-.01-44.4.05-66.6,0-2.1-.91-2.37-2.65-2.37-23.46.04-46.92.03-70.38.03ZM76.79,27.76c22.19,0,44.38,0,66.58,0,2.67,0,2.72-.05,2.73-2.64,0-3.53,0-7.06,0-10.6,0-1-.05-1.98-.46-2.94-1.37-3.2-3.92-4.22-7.21-4.21-25.78.03-51.56.02-77.34.02-15.48,0-30.96-.01-46.44.01-4.57,0-7.16,2.62-7.2,7.18-.03,3.4-.01,6.8,0,10.2q0,2.96,2.99,2.97c22.13,0,44.25,0,66.38,0ZM54.03,111.63c7.91,0,15.82-.04,23.73.03,1.66.01,2.18-.53,2.18-2.19-.05-9.73-6.36-19.33-15.22-23.06-1.22-.51-2.36-.61-3.65-.12-4.52,1.7-9.1,1.78-13.63.04-1.34-.52-2.56-.5-3.83.13-9.35,4.66-14.64,12.02-15.13,22.65-.09,1.87.45,2.59,2.43,2.57,7.71-.1,15.42-.04,23.13-.04ZM66,68.09c-.04-6.59-5.25-11.81-11.79-11.82-6.58,0-12.01,5.38-12.01,11.91,0,6.7,5.39,11.95,12.19,11.88,6.55-.07,11.65-5.33,11.61-11.97Z"/><path class="cls-1" d="M100.81,143.49c-16.61,0-33.22.02-49.83-.03-1.63,0-2.39.5-3.1,2.02-2.54,5.4-6.8,8.4-12.89,8.4-6.12,0-10.36-3.03-12.86-8.43-.73-1.58-1.53-2.01-3.12-1.99-5.45.07-10.9-.04-16.34.06-1.92.04-2.73-.42-2.65-2.54.22-5.72-.77-4.89,5.02-4.94,4.72-.04,9.44-.05,14.15.01,1.42.02,2.22-.34,2.87-1.78,2.49-5.55,6.84-8.65,12.96-8.62,6.09.03,10.52,3,12.94,8.63.68,1.58,1.65,1.77,3.09,1.76,32.96-.02,65.91-.02,98.87-.02,3.57,0,3.58,0,3.56,3.57-.03,4.3.46,3.87-3.82,3.88-16.28.01-32.56,0-48.84,0ZM34.99,146.48c3.81.01,6.64-2.87,6.62-6.73-.02-3.77-2.82-6.63-6.51-6.66-3.75-.03-6.78,2.94-6.81,6.65-.03,3.73,2.95,6.73,6.7,6.74Z"/><path class="cls-1" d="M101.13,48.83c.98-.06,1.81.39,2.62.84,10.04,5.6,20.07,11.19,30.09,16.81,3.14,1.76,3.19,5.12.02,6.91-10.12,5.72-20.27,11.39-30.45,17-3.2,1.76-5.99.08-6.01-3.53-.04-11.26-.03-22.51,0-33.77,0-2.63,1.47-4.24,3.73-4.27ZM104.82,69.99c0,3,.04,6-.02,9-.03,1.48.28,2,1.78,1.15,5.55-3.15,11.13-6.24,16.71-9.35.9-.5,1.31-.93.11-1.6-5.7-3.16-11.39-6.33-17.07-9.52-1.13-.63-1.54-.36-1.52.92.03,3.13.01,6.27,0,9.4Z"/><path class="cls-1" d="M97.96,17.53q0,3.87-3.7,3.87-3.95,0-3.95-3.87t4.02-3.8q3.62,0,3.62,3.8Z"/><path class="cls-1" d="M108.22,21.41q-3.92,0-3.92-3.91,0-3.75,3.88-3.75,3.71,0,3.7,4.34,0,3.33-3.67,3.33Z"/><path class="cls-1" d="M121.97,21.4q-3.77,0-3.77-3.82t4-3.84q3.59,0,3.59,4.05,0,3.61-3.82,3.61Z"/><path class="cls-1" d="M132.16,17.38c0-.66,0-1.33,0-1.99,0-1.06.54-1.58,1.58-1.62.13,0,.26-.02.4-.02,6.42.07,5.63-.91,5.62,5.94,0,1.13-.54,1.72-1.7,1.71-.66,0-1.32.01-1.98.01q-3.93,0-3.91-4.03Z"/></g></svg>