<?xml version="1.0" encoding="UTF-8"?><svg id="Layer_2" xmlns="http://www.w3.org/2000/svg" viewBox="0 0 244.32 288.81"><defs><style>.cls-1{fill:#166f80;}</style></defs><g id="Layer_1-2"><path class="cls-1" d="M.02,152.86c0-22.43-.04-44.85.01-67.28.03-14.77,10.53-25.14,25.19-25.08,10.68.04,21.37.19,32.05-.07,4.12-.1,5.42,1.35,5.05,5.24-.26,2.75-.17,5.54-.03,8.3.15,2.8-1.11,3.66-3.76,3.64-9.89-.09-19.79-.04-29.68-.02-7.54,0-10.84,2.98-11.58,10.45-.13,1.31-.09,2.64-.09,3.95,0,41.29-.01,82.58,0,123.87,0,1.97.02,3.98.41,5.9,1.2,5.77,4.25,8.09,10.36,8.1,28.36.01,56.72,0,85.09,0,8.5,0,11.43,2.82,11.56,11.3.08,5.28-.02,10.55.04,15.83.01.96-.56,2.34.72,2.8.9.32,1.64-.64,2.34-1.22,8.39-7.03,17.07-13.74,25.05-21.2,5.95-5.57,12.14-8.08,20.46-7.68,14.35.69,28.75.21,43.13.17,6.63-.02,10.05-3.32,10.06-9.95.04-43.93.04-87.86,0-131.78,0-6.65-3.99-10.48-10.66-10.51-9.23-.05-18.47-.09-27.7.03-2.71.04-3.81-.76-3.64-3.58.21-3.42.16-6.86.02-10.28-.1-2.34.62-3.3,3.11-3.28,10.95.11,21.9-.18,32.84.13,13.02.37,23.77,11.42,23.82,24.92.18,44.85.19,89.7-.02,134.55-.07,15.31-11.74,26.47-27.14,26.62-14.38.14-28.76.08-43.14-.03-3.09-.02-5.52.84-7.9,2.84-14.4,12.16-28.9,24.2-43.38,36.27-3.12,2.6-6.47,4.08-10.52,2.05-3.75-1.88-4.47-5.13-4.43-8.95.1-9.1-.13-18.21.11-27.3.1-3.84-1.2-4.97-4.97-4.95-24.93.14-49.86.03-74.8.09-11.96.03-20.84-4.85-26.01-15.83C.51,227.79,0,224.42,0,220.93c.04-22.69.02-45.38.02-68.07Z"/><path class="cls-1" d="M157.86,55.88c-11.37,5.68-22.3,11.16-33.26,16.58-1.68.83-3.35.17-4.95-.55-22.61-10.15-45.21-20.3-67.82-30.45-.24-.11-.49-.21-.71-.35-1.96-1.25-4.77-1.98-4.89-4.71-.13-2.99,2.85-3.46,4.92-4.43C73.13,21.74,95.14,11.56,117.11,1.31c3.15-1.47,6.04-1.88,9.39-.3,22.3,10.5,44.67,20.84,67,31.27,1.85.86,4.15,1.45,4.07,4.22-.07,2.66-2.3,3.4-4.13,4.27-5.36,2.53-10.77,4.96-16.23,7.28-2.37,1.01-3.41,2.43-3.36,5.1.15,7.65.1,15.3.03,22.95-.02,2.03.38,3.65,2.41,4.49.12.05.22.14.33.22,3.21,2.57,4.19,13.19,1.61,17.44-2.48,4.09-7.54,5.66-12.09,3.82-1.79-.72-3.19-1.87-4.14-3.51-1.72-2.95-4.03-3.34-7.06-2.04-9.21,3.94-18.51,7.66-27.69,11.68-3.25,1.42-6.2,1.51-9.49.21-12.99-5.15-26.01-10.21-39.07-15.17-3.19-1.21-4.43-3.13-4.35-6.55.19-7.78.24-15.57-.04-23.34-.14-3.87,1.29-3.35,3.8-2.21,13.69,6.2,27.43,12.27,41.09,18.54,2.62,1.2,4.8,1.39,7.44.09,11.82-5.84,23.63-11.69,35.63-17.15,4.75-2.16,2.7-5.91,3.2-9.13.43-2.74-1.08-4.06-3.42-4.99-11.26-4.49-22.49-9.06-33.74-13.59-2.26-.91-4.58-1.34-6.86-.04-1.17.66-2.33,1.47-2.42,2.92-.11,1.75,1.49,1.96,2.66,2.44,10,4.1,20.02,8.15,30.01,12.27,1.93.79,3.97,1.42,6.14,3.39Z"/><path class="cls-1" d="M56.23,150.21c0-10.02-.04-20.04.02-30.06.03-4.29,1.7-6.38,5.76-6.52,14.55-.5,28.99.08,42.82,5.38,1.35.52,2.66,1.15,3.98,1.74,7.17,3.17,10.38,8.48,10.25,16.51-.3,18.32-.08,36.66-.08,54.98,0,.92.01,1.85-.1,2.76-.28,2.32-1.51,3.11-3.49,1.69-14.45-10.38-31.05-12.24-48.13-12.22-2.11,0-4.24-.16-6.33.04-3.54.34-4.88-.91-4.8-4.63.22-9.88.08-19.78.08-29.67Z"/><path class="cls-1" d="M188.09,150.58c0,9.88-.1,19.77.05,29.65.05,3.28-1.1,4.38-4.34,4.29-11.6-.29-23.15-.05-34.49,2.96-6.58,1.74-12.73,4.19-18.09,8.46-1.06.84-2.11,2.25-3.79,1.2-1.42-.89-1.51-2.36-1.51-3.85,0-20.29-.03-40.59.03-60.88.01-4.01,2.23-6.94,5.42-9.13,8.28-5.7,17.88-7.41,27.53-8.95,6.93-1.11,13.92-.84,20.9-.8,6.41.03,8.3,1.94,8.3,8.19,0,9.62,0,19.24,0,28.86Z"/><path class="cls-1" d="M41.19,162.4c0-10.68,0-21.37,0-32.05,0-1.19-.09-2.4.11-3.55.42-2.4,1.57-4.43,4.34-4.18,2.61.24,3.2,2.29,3.2,4.65-.03,12.27-.01,24.53-.01,36.8,0,6.86-.03,13.72.02,20.57.04,5.81.91,6.77,6.67,6.62,18.08-.48,35.8,1.18,52.61,8.51,2.19.96,4.27,2.05,6.07,3.64,5.91,5.22,10.7,4.99,16.75-.16,5.46-4.65,12.42-6.23,19.1-8.17,12.41-3.6,25.18-3.92,37.99-3.81,6.4.05,7.24-1.24,7.17-7.74-.2-18.33-.16-36.66-.13-54.99,0-2.61.06-5.98,3.64-5.93,3.73.05,4.32,3.32,4.32,6.39.03,20.84.02,41.68.02,62.52,0,1.71.06,3.43-.04,5.14-.32,5.51-2.47,7.57-7.91,7.58-13.85.02-27.7.14-41.55-.04-7.93-.11-14.52,2.54-19.51,8.62-3.47,4.23-7.53,6.13-13.07,5.75-3.54-.24-6.43-1.09-8.66-3.86-6.48-8.06-14.93-10.93-25.14-10.56-12.25.45-24.53.1-36.79.11-7.4,0-9.21-1.82-9.22-9.4-.01-10.82,0-21.63,0-32.45Z"/></g></svg>