<?xml version="1.0" encoding="UTF-8"?><svg id="Layer_2" xmlns="http://www.w3.org/2000/svg" viewBox="0 0 250 272.68"><defs><style>.cls-1{fill:#003143;}</style></defs><g id="Layer_1-2"><path class="cls-1" d="M249.57,93.89c-.1-7.81-1.52-17.92-6.43-22.97-20.08-20.6-41.75-39.65-63.54-59.92-3.02,3.42-7,7.93-14.94,16.94,12.13,8.93,23.21,17.09,35.39,26.06-19.75,13.01-30.34,27.64-23.15,48.29,8.18,23.5,27.65,28.37,50.97,25.09,0,35.07-.09,68.56.06,102.05.05,11.41-2.9,21.2-16.1,20.81-13.13-.39-15.37-10.52-15.21-21.74.28-19.62.43-39.24-.04-58.85-.48-20.4-11.12-31.05-31.59-32.77-4.18-.35-8.37-.56-11.49-.77-1.26-2.13-1.85-2.67-1.85-3.21-.21-32.9-.15-65.8-.61-98.69C150.72,11.92,139.31.55,116.9.22c-25.94-.38-51.88-.16-77.83-.07C10.64.24.09,10.61.06,38.87-.04,111.01,0,183.14.07,255.28c.01,5.45.71,10.91,1.13,16.86h150.64v-113.49c8.82.47,15.41.82,22.88,1.23,0,24.69-.18,47.41.05,70.14.25,25.33,16.16,42.9,38.2,42.66,21.08-.23,36.65-17.57,36.81-42.11.28-45.56.37-91.12-.21-136.68ZM30.58,30.7h89.97v74.11H30.58V30.7ZM120.74,241.7H31.08v-104.18h89.66v104.18ZM211.82,104.81c-8.9,0-16.12-7.22-16.12-16.12s7.22-16.12,16.12-16.12,16.12,7.22,16.12,16.12-7.22,16.12-16.12,16.12Z"/></g></svg>