<?xml version="1.0" encoding="UTF-8"?><svg id="Layer_2" xmlns="http://www.w3.org/2000/svg" viewBox="0 0 360.94 362.8"><defs><style>.cls-1{fill:#003143;stroke:#003143;stroke-miterlimit:10;stroke-width:9px;}</style></defs><g id="Layer_1-2"><path class="cls-1" d="M181.35,202.7c.09,3.83-1.95,6.83-3.89,9.86-5.81,9.1-3.89,13.88,6.46,16.23,2.12.48,4.24,1.1,6.26,1.92,4.69,1.89,7.07,5.51,7.22,10.51.11,3.59.08,7.18.03,10.76-.1,6.64-3.32,10.78-9.74,12.55-2.11.58-4.27.97-6.39,1.51-6.59,1.69-8.9,7.31-5.41,13.14,1.04,1.74,2.18,3.43,3.2,5.18,3.58,6.13,3.01,11.06-1.88,16.1-2.07,2.13-4.18,4.22-6.31,6.28-5.78,5.61-9.81,6.17-16.83,2.32-1.78-.98-3.45-2.14-5.17-3.23-5.5-3.46-11.55-.86-12.96,5.54-.47,2.13-.92,4.28-1.6,6.35-2.3,6.93-5.86,9.6-13.1,9.85-3.12.11-6.26.14-9.38-.03-6.92-.39-10.57-3.41-12.41-10.03-.54-1.95-1.06-3.91-1.56-5.88-1.82-7.12-7.38-9.3-13.67-5.38-1.72,1.08-3.44,2.17-5.25,3.1-6.77,3.49-10.54,2.9-16-2.43-2.24-2.18-4.48-4.36-6.64-6.61-4.54-4.75-5.14-9-2.08-14.91,1-1.94,2.22-3.76,3.34-5.64,3.99-6.67,1.78-12-5.77-13.88-2.27-.57-4.6-.98-6.81-1.73-5.54-1.86-8.38-5.7-8.62-11.53-.1-2.49-.04-4.99-.03-7.49,0-10.62,2.79-13.93,13.35-16.38,3.18-.74,6.79-.41,8.51-4.61,1.5-3.67,2.02-6.66-.76-9.87-1.41-1.63-2.38-3.66-3.38-5.6-2.81-5.42-2.31-9.72,1.77-14.2,2.52-2.77,5.22-5.39,7.94-7.96,4.21-3.99,9.54-4.73,14.68-2.03,2.07,1.09,4.04,2.39,6.02,3.64,5.99,3.78,11.66,1.53,13.42-5.35.5-1.96.96-3.94,1.5-5.89.29-1.05.6-2.12,1.08-3.09,4.61-9.25,13.25-7.29,21.03-7.25,6.56.03,10.23,2.84,12.35,8.83.78,2.2,1.34,4.48,1.86,6.76,1.72,7.55,7.24,9.92,13.82,5.87,2-1.23,3.95-2.55,6.03-3.61,4.99-2.55,10.26-1.83,14.29,1.97,2.84,2.68,5.57,5.48,8.28,8.29,2.15,2.23,3.19,4.96,3.22,8.05ZM116.15,316.12c7.29,0,7.41-.14,8.65-6.52.5-2.6,1.13-5.18,1.81-7.74.45-1.7,1.28-3.33,2.95-4.05,8.86-3.82,17.66-9.63,26.87-.48,2.97,2.95,5.93,2.92,9.13-.6,3-3.28,5.53-5.86,1.78-10.16-5.49-6.31-6.67-12.65-2.45-20.77,2.93-5.64,5.45-9.82,12.24-10.17,2.14-.11,4.23-1.06,6.35-1.63,1.62-.43,2.69-1.19,3.03-3.07,1.47-8.07.12-10.17-7.86-11.88-2.29-.49-4.58-1.04-6.84-1.65-2.22-.6-3.73-1.97-4.8-4.1-4.68-9.29-7.73-18.43,1.22-27.1.43-.42.67-1.05.95-1.6.46-.89.41-1.75,0-2.68-2.82-6.28-8.67-8.33-14.08-4.14-5.98,4.63-11.71,6.2-18.26,1.6-.25-.17-.57-.29-.87-.34-7.45-1.23-10.24-6.29-10.92-13.12-.09-.93-.4-1.83-.51-2.76-.48-3.89-2.37-5.53-6.56-5.38-7.26.27-7.28.01-9.01,6.95-.45,1.81-.97,3.63-1.21,5.48-.53,4.02-3.06,5.73-6.51,7.66-9.15,5.14-17.41,5.77-25.38-1.96-1.24-1.2-2.93-1.66-4.77-.73-6.28,3.18-7.61,7.66-3.94,13.54,1.32,2.12,2.71,4.21,3.87,6.41.63,1.21,1.53,2.88,1.14,3.92-2.06,5.53-3.93,11.25-6.96,16.24-2.09,3.44-6.97,3.05-10.72,3.89-7.33,1.64-7.26,1.59-7.18,8.75.04,3.93,1.52,6.13,5.51,6.72,2.62.39,5.16,1.3,7.77,1.73,3.47.57,5.15,2.7,6.76,5.7,4.97,9.28,5.98,17.79-1.89,26.31-4.35,4.7,2.02,6.33,3.88,9.15,1.69,2.55,4.09,2.84,6.41.86,7.51-6.41,15.07-7.74,24.22-2.61,4.38,2.45,7.55,4.57,8.12,9.65.17,1.54.76,3.03.97,4.56.64,4.6,2.72,7.27,7.1,6.11Z"/><path class="cls-1" d="M313.81,147.85c-.03,2.42-.69,4.62-2.31,6.46-.93,1.05-1.92,2.05-2.92,3.04-9.8,9.82-11.31,10.02-23.34,3.18-4.28-2.43-8.34-.85-9.85,3.84-4.55,14.12-6.2,15.28-20.83,14.6-6.51-.3-9.69-3.05-11.83-9.35-1.18-3.46-.5-7.96-5.26-9.76-2.14-.81-3.78-1-5.61.41-1.23.95-2.59,1.75-3.94,2.53-2.04,1.19-4.19,2.16-6.6,2.24-8.38.26-12.15-6.41-16.5-11.62-3.5-4.19-1.95-9.15.78-13.54.74-1.19,1.57-2.34,2.26-3.56,2.25-3.98.46-8.22-4.03-9.4-3.48-.91-7.12-1.4-10.1-3.56-6.95-5.02-6.28-22.97.95-27.54,2.59-1.63,5.55-1.99,8.45-2.6,5.3-1.11,7.16-5.5,4.4-10.18-.79-1.35-1.72-2.62-2.39-4.02-.74-1.53-1.53-3.12-1.81-4.77-1.56-9.07,5.94-12.76,11.1-17.55,3.73-3.47,8.4-2.73,12.64-.11,1.73,1.06,3.39,2.26,5.2,3.17,3.64,1.83,7.68.05,8.94-3.82.05-.15.09-.3.12-.45,3.22-16.91,10.23-14.88,23.69-14.25,4.85.23,7.59,3.98,8.96,8.48.59,1.93.86,3.97,1.46,5.9,1.35,4.39,5.58,6.02,9.65,3.76,1.77-.99,3.44-2.16,5.23-3.12,5.28-2.82,9.37-2.29,13.69,1.73,1.37,1.28,2.67,2.63,3.99,3.96,7.25,7.25,7.64,10.83,2.14,19.67-4.08,6.57-2.52,10.24,5.08,11.88,11.74,2.54,17.36,17.31,10.42,27.24-2.67,3.83-6.84,4.7-10.92,5.74-7.09,1.81-8.57,5.28-4.78,11.47,1.88,3.06,3.87,6.08,3.86,9.88ZM302.01,146.83c-.33-.68-.52-1.5-1.02-2.05-6.13-6.66-6.3-13.74-1.62-21.21.16-.26.21-.59.28-.89.83-3.22,3.01-5.02,6.17-5.71,2.14-.47,4.28-.94,6.45-1.25,3.37-.48,4.17-2.53,4.13-5.62-.04-2.95-.41-5.4-3.95-5.69-8.06-.66-13.35-4.48-14.96-12.68-.09-.45-.33-.88-.59-1.27-2.14-3.31-1.71-6.47.47-9.58.98-1.4,1.68-3.03,2.75-4.35,2.5-3.07,1.67-5.24-.92-8-2.88-3.05-4.99-1.97-7.61-.11-1.9,1.36-3.94,2.54-5.97,3.71-1.53.88-3.21,1.33-4.95.65-7.93-3.13-16.64-5.41-16.73-16.54-.03-3.52-2.31-4.46-5.71-4.51-3.63-.06-5.07,1.49-5.59,4.76-.36,2.3-1.02,4.56-1.57,6.83-.46,1.89-1.34,3.59-3.17,4.42-7.73,3.49-15.42,8.43-23.4.35-2.6-2.63-4.77-1.31-7.1.98-2.39,2.35-3.32,4.45-.94,7.18,4.95,5.68,6.26,11.64,1.71,18.23-.68.99-.82,2.35-1.25,3.52-.82,2.18-2.31,3.69-4.59,4.32-2.41.66-4.81,1.44-7.27,1.84-3.25.52-4.9,1.82-4.85,5.48.05,3.54,1.04,5.66,4.75,6.15,1.86.24,3.68.74,5.52,1.12,3.54.71,5.81,2.7,6.89,6.23.73,2.37,1.76,4.67,2.85,6.91,1.44,2.95,1.26,5.72-.45,8.44-1.16,1.85-2.21,3.8-3.57,5.5-1.99,2.49-1.35,4.22.7,6.42,2.75,2.96,5.25,3.54,8.44.9,1.19-.98,2.65-1.66,3.98-2.46,4.8-2.89,18.61,1.06,21.12,6.1.55,1.1.78,2.36,1.09,3.57.38,1.51.81,3.02,1.02,4.56.47,3.48,2.46,4.53,5.83,4.54,3.41.01,5.29-1.13,5.81-4.56.33-2.15,1.01-4.25,1.46-6.38.49-2.3,1.74-4.02,3.86-4.99,7.72-3.51,15.47-7.58,23.06.3.21.22.52.34.79.5,1.35.84,2.77,1.8,4.19.25,1.64-1.79,4.06-3.02,4.45-5.88Z"/><path class="cls-1" d="M333.85,153.62c-.35-.23-.5-.41-.6-.39-4,.97-8.27,1.7-9.61-3.47-1.26-4.87,2.88-6.26,6.4-7.69,3.62-1.47,7.22-3,10.88-4.35,5.03-1.84,7.69-.63,9.65,4.19,1.65,4.04,3.39,8.05,4.93,12.13,1.14,3.03,1.78,6.24-1.51,8.41-3.32,2.18-5.94.71-7.98-2.19-2.18-3.09-2.68-.13-3.32,1.03-6.15,11.07-14.25,20.52-24.15,28.35-32.5,25.68-82.43,28.36-117.73-3.37-8.82-7.92-17.4-16.14-26.97-23.23-14-10.37-29.7-15.49-47.04-16.53-25.15-1.5-47.65,5.27-67.38,20.77-16.07,12.62-26.89,28.94-32.79,48.49-.23.75-.41,1.51-.64,2.25-1.02,3.27-2.85,5.92-6.67,5.07-3.97-.89-4.88-4.03-4.08-7.68,1.41-6.43,3.86-12.53,6.6-18.47,19.94-43.23,69.09-68.39,116.29-60.56,22.82,3.78,41.01,15.13,57.53,30.3,10.47,9.61,20.9,19.28,34.1,25.3,36.41,16.64,85.6-.6,103.33-36.31.33-.66.53-1.39.76-2.04Z"/><path class="cls-1" d="M16.65,291.54c-1.18,1.58-1.79,2.68-2.66,3.5-1.88,1.76-4.07,2.27-6.44.92-2.48-1.42-3.75-3.67-2.66-6.29,2.39-5.75,4.95-11.46,7.88-16.95,1.69-3.17,4.82-3.02,7.82-1.59,4.23,2.01,8.45,4.04,12.66,6.11,3.31,1.62,6.2,3.78,4.48,7.95-1.7,4.11-5.07,4.04-8.65,2.4-.39-.18-.86-.18-1.84-.37,4.25,11.08,10.37,20.59,18.31,28.76,25.21,25.95,55.99,36.32,91.38,28.67,37.06-8.01,61.38-31.17,73.15-67.26,2-6.14,2.66-12.48,3.61-18.79.53-3.55,1.84-6.72,5.96-6.42,4.36.32,5.4,3.66,5.07,7.51-2.07,23.97-11.08,45.06-27.39,62.71-39.69,42.95-102.23,47.95-148.36,11.93-13.25-10.35-23.27-23.44-30.39-38.69-.52-1.11-1.04-2.22-1.92-4.08Z"/><path class="cls-1" d="M181.35,62.88c2.27-.72,3.69-1.33,5.19-1.61,3.01-.55,5.24.67,6.34,3.52,1.07,2.76,0,5.2-2.42,6.38-5.46,2.67-11.02,5.26-16.95,6.76-3.25.82-5.8-.42-7.1-3.76-1.58-4.07-3.28-8.09-4.9-12.14-1.38-3.45-2.68-7.05,1.52-9.47,4.02-2.32,6.32.61,8.79,3.77,1.38-2.3,2.64-4.36,3.86-6.45C204.58.62,271.92-10.62,315.36,26.47c13.04,11.13,22.16,24.83,27.95,40.84,1.05,2.91,1.65,5.8-.91,8.26-3.05,2.93-7.36,1.53-9.11-3.15-3.01-8.06-6.53-15.81-11.55-22.89-26.69-37.63-81.14-45.13-117.11-16.14-9.77,7.88-17.41,17.35-23.28,29.48Z"/><path class="cls-1" d="M79.5,246.64c.09-20.33,17.09-37.24,37.41-37.23,20.66.01,37.57,17.27,37.43,38.21-.14,20.71-17.04,37.17-37.96,36.97-20.85-.2-36.98-16.79-36.88-37.95ZM116.8,273.17c14.74.02,26.45-11.34,26.55-25.77.11-14.77-11.55-26.49-26.38-26.52-14.83-.03-26.48,11.55-26.53,26.36-.05,14.38,11.67,25.91,26.35,25.93Z"/><path class="cls-1" d="M225.96,110.04c-.02-18.54,13.99-32.64,32.44-32.64,17.98,0,32.69,14.44,32.77,32.16.08,18.31-14.66,33.06-32.97,32.99-18.04-.07-32.22-14.36-32.24-32.52ZM258.59,131.07c12.28-.04,21.23-9,21.21-21.24-.03-11.8-9.6-21.46-21.34-21.52-11.75-.07-21.7,10.02-21.57,21.87.12,11.87,9.54,20.93,21.7,20.89Z"/></g></svg>