<?xml version="1.0" encoding="UTF-8"?><svg id="Layer_2" xmlns="http://www.w3.org/2000/svg" viewBox="0 0 160 160.09"><defs><style>.cls-1{fill:#166f80;}</style></defs><g id="Layer_1-2"><path class="cls-1" d="M159.99,80c.57,43.77-36.01,80.1-79.94,80.09C36.1,160.09-.03,123.76,0,79.99.03,36.26,36.18-.06,80.16,0c43.82.06,80.34,36.27,79.83,80ZM146.13,80.03c.35-36.11-29.82-66.09-66-66.13-36.18-.04-66.13,29.91-66.23,65.98-.1,36.29,29.99,66.29,66.08,66.33,36.21.03,66.55-29.99,66.15-66.18Z"/><path class="cls-1" d="M66.63,80.15c0-7.68.02-15.36-.02-23.04-.01-2.09.44-3.83,2.45-4.86,1.98-1.01,3.6-.2,5.18.95,10.41,7.57,20.82,15.13,31.22,22.7,3.82,2.78,3.87,5.66.06,8.44-10.39,7.59-20.82,15.13-31.22,22.7-1.66,1.21-3.4,1.94-5.39.89-2-1.05-2.32-2.89-2.3-4.95.04-7.61.02-15.22.02-22.83Z"/></g></svg>