<?xml version="1.0" encoding="UTF-8"?><svg id="Layer_2" xmlns="http://www.w3.org/2000/svg" viewBox="0 0 250 276.38"><defs><style>.cls-1{fill:#003143;stroke:#003143;stroke-miterlimit:10;stroke-width:5px;}</style></defs><g id="Layer_1-2"><path class="cls-1" d="M169.6,217.87c12.55,0,25.09-.05,37.64.04,2.73.02,4.41-.57,5.71-3.36,3.64-7.85,12.31-11.82,20.53-9.87,7.96,1.89,13.83,9.14,14.02,17.33.2,8.2-5.43,15.88-13.16,17.98-8.58,2.33-16.73-.91-20.89-8.84-1.68-3.2-3.66-4.14-7.12-4.12-24.62.14-49.25.07-73.87.08-5.35,0-5.37.02-5.38,5.22,0,4,.05,7.99,0,11.99-.03,2.23.93,3.17,3.17,3.16,10.32-.05,20.64-.05,30.95,0,2.16.01,3-1.22,3.83-2.95,4.28-8.93,13.83-12.97,22.6-9.66,9.34,3.52,14.07,12.89,11.35,22.52-1.95,6.9-8.25,12.09-15.64,12.87-7.2.76-14.55-2.98-17.71-9.68-1.46-3.1-3.26-3.98-6.46-3.92-9.38.18-18.76.13-28.14.03-2.83-.03-4.14.93-3.98,3.87.09,1.63-.06,3.3-.33,4.91-.93,5.56-4.6,8.66-10.32,8.39-8.74-.41-17.07-2.92-25.34-5.57-2.78-.89-5.55-1.93-8.2-3.16-5.87-2.72-8.64-8.71-6.8-14.95,1.8-6.1,5.05-11.62,7.71-17.36,1.21-2.61.69-4.15-1.59-5.56-2-1.23-3.95-2.53-5.84-3.93-2.07-1.54-2.7-3.64-1.31-5.88,1.45-2.34,3.64-2.97,6.06-1.47,2.99,1.85,6.03,3.67,8.76,5.86,3.97,3.18,4.87,8.44,2.58,13.47-2.28,5.03-4.7,9.99-6.98,15.02-1.83,4.03-1.16,5.75,2.93,7.41,8.4,3.42,17.17,5.51,26.06,7.14,2.45.45,3.39-.51,3.38-3.01-.06-15.16-.06-30.32,0-45.49,0-2.32-1.06-3.29-3.18-3.87-32.95-9.07-53.12-30.59-58.16-64.27-4.67-31.23,7.59-56.29,33.03-74.76,7.49-5.44,15.98-8.86,24.95-11.02,2.54-.61,3.39-1.83,3.38-4.39-.09-14.34-.09-28.68,0-43.02.02-2.74-.77-3.99-3.67-3.41-9.08,1.84-18.12,3.81-26.7,7.45-3.76,1.59-4.48,3.12-2.81,6.84,1.84,4.07,3.94,8.01,5.84,12.05,3.87,8.24,2.23,14.14-5.46,18.94-7.2,4.5-13.73,9.78-19.66,15.88-6.05,6.22-12.56,6.54-19.42,1.19-3.52-2.74-6.96-5.57-10.52-8.26-3.11-2.36-5.16-2.06-7.37,1.16-7.3,10.64-12.65,22.22-16.38,34.56-.94,3.12.96,4.65,3.62,5.32,5,1.27,10.07,2.24,15.04,3.6,7.25,1.98,10.81,7.44,9.85,14.82-1.16,8.91-1.11,17.8.11,26.7.96,7.01-2.73,12.83-9.56,14.78-4.73,1.35-9.57,2.3-14.36,3.42-4.23.99-5.27,2.63-3.99,6.83,3.62,11.89,9.02,22.93,16,33.19,2.28,3.34,4.48,3.66,7.65,1.18,3.78-2.97,7.47-6.07,11.29-8.99,5.93-4.52,12.37-4.1,17.83,1.02,1.45,1.36,3,2.63,4.43,4.02,1.99,1.93,2.88,4.14.78,6.49-1.99,2.22-4.31,2.12-6.55.29-1.63-1.34-3.27-2.69-4.76-4.17-2.26-2.24-4.46-2.2-6.84-.25-3.72,3.05-7.43,6.12-11.25,9.04-7.1,5.43-14.6,4.19-19.71-3.22-7.86-11.4-13.7-23.79-17.84-36.99-2.39-7.64,1.77-14.9,9.55-16.81,4.78-1.17,9.58-2.28,14.38-3.34,3.08-.68,4.34-2.58,3.94-5.63-1.27-9.6-1.3-19.19-.04-28.79.39-3.02-1.1-4.57-3.96-5.2-5.03-1.12-10.07-2.26-15.05-3.57-7.28-1.91-11.34-8.86-9.15-16.12,4.17-13.81,10.17-26.79,18.53-38.58,4.3-6.06,11.97-7.23,18.03-2.84,3.89,2.82,7.58,5.92,11.37,8.88,3.54,2.77,5.29,2.7,8.48-.58,6.26-6.42,13.16-12.01,20.87-16.6,3.29-1.96,3.78-3.83,2.1-7.41-2.14-4.57-4.5-9.05-6.5-13.68-2.97-6.91-.07-13.99,6.8-16.94,9.53-4.1,19.49-6.75,29.7-8.38,3.8-.61,7.71-1.08,11,1.96,2.74,2.53,3.57,5.75,3.55,9.24-.01,2.57,1.06,3.54,3.59,3.52,9.97-.07,19.93-.09,29.9.01,2.57.03,3.64-1.24,4.66-3.38,4.64-9.76,16.3-13.23,25.7-7.8,8.99,5.19,11.6,17.31,5.62,26.1-7.81,11.48-25.25,10.11-31.24-2.62-1.33-2.82-2.87-3.69-5.85-3.64-9.49.18-18.99.15-28.49.02-2.91-.04-3.99.96-3.89,3.87.16,4.46.11,8.93.02,13.4-.05,2.51.87,3.6,3.48,3.6,25.91-.05,51.83-.07,77.74.03,2.91.01,3.7-1.77,4.77-3.79,4.03-7.62,12.52-11.51,20.43-9.47,8.31,2.15,13.97,9.27,14.02,17.67.05,8.26-5.65,15.57-13.89,17.81-7.5,2.04-16.28-1.28-19.78-8.48-2.08-4.28-4.63-5.12-8.95-5.09-24.27.2-48.54.15-72.81.04-3.34-.02-5.06.49-5.24,4.46-.28,6.27-2.92,8.85-9.03,10.44-28.05,7.31-45.96,25.02-51.88,53.42-7.58,36.37,15.34,71.29,51.27,79.72,6.33,1.48,8.82,3.99,9.66,10.39.35,2.68,1.44,3.55,4.06,3.53,12.9-.09,25.79-.04,38.69-.04ZM229.23,213.23c-5.15-.02-9.1,3.89-9.18,9.09-.08,5.26,4.07,9.51,9.23,9.44,5.07-.07,9.45-4.5,9.4-9.5-.06-4.82-4.43-9.01-9.44-9.03ZM229.33,42.52c-5.4.03-9.32,3.97-9.29,9.33.03,5,4.12,9.11,9.17,9.2,4.87.09,9.48-4.52,9.45-9.45-.02-4.82-4.44-9.11-9.34-9.08ZM172.34,252.05c0,5.12,4.31,9.37,9.42,9.28,5.03-.09,9.1-4.27,9.04-9.28-.05-5.01-4.16-9.17-9.13-9.22-5.37-.06-9.33,3.85-9.34,9.22ZM181.36,12.92c-5.06.02-9.06,4.16-9.02,9.32.04,4.99,4.36,9.31,9.23,9.23,5.1-.08,9.22-4.19,9.24-9.22.02-5.2-4.19-9.35-9.44-9.33Z"/><path class="cls-1" d="M162.25,172.77c12.42,0,24.85.14,37.27-.03,16.76-.23,31.59-14.2,33.07-30.3,1.94-21.15-12.91-35.98-28.26-38.3-7.31-1.11-14.75-.27-22.13-.43-3.63-.08-7.27.04-10.88-.29-2.57-.23-4.41-1.75-4.24-4.67.15-2.67,1.91-4.24,4.36-4.2,12.15.21,24.38-1.39,36.45,1.16,17.99,3.81,31.6,19.67,33.53,38.04,2.67,25.32-16.93,48.27-44.11,48.32-23.56.04-47.12.05-70.68,0-28-.07-48.46-24.82-43.39-52.4,3.56-19.38,21.82-34.92,41.6-35.22,9.61-.15,19.22-.05,28.83-.02,3.84.01,5.94,1.63,6,4.44.05,2.82-1.99,4.71-5.78,4.77-9.26.13-18.53.34-27.78.01-14.82-.53-31.15,10-34.49,29.62-2.8,16.44,7.88,33.1,24.32,38.26,3.26,1.02,6.66,1.26,10.08,1.26,12.07-.02,24.15,0,36.22,0v-.02Z"/><path class="cls-1" d="M156.49,146.59c-.87,2.63-.39,4.74-.53,6.81-.25,3.68-2.01,5.97-4.67,5.97-2.74,0-4.55-2.23-4.56-5.95-.05-10.56-.05-21.11,0-31.67.02-3.75,1.5-5.5,5.14-5.84,4.31-.39,8.64-.53,12.87.83,5.6,1.81,8.9,5.7,9.47,11.46.53,5.3-1.55,9.77-6.3,12.41-2.79,1.55-2.36,2.84-.57,4.73,1.86,1.95,3.65,3.97,5.34,6.06,1.8,2.23,2.48,4.75,0,6.86-2.45,2.08-4.77,1.17-6.74-1.05-3.02-3.41-6.05-6.81-9.45-10.63ZM159.11,133.89c3.73.13,5.92-1.48,5.97-4.38.04-2.77-1.75-4.26-5.12-4.52-2.76-.21-4.33.63-3.97,3.68.26,2.2-1.08,5.38,3.12,5.22Z"/><path class="cls-1" d="M188.2,137.6c0-5.28-.06-10.56.03-15.85.06-4.03,1.74-5.79,5.78-5.97,3.27-.15,6.55-.22,9.81.3,7.6,1.2,12.98,7.2,12.81,14.37-.17,7.38-5.87,13.26-13.63,14.06q-5.99.62-6,6.65c0,1.29.05,2.59-.06,3.87-.22,2.55-1.53,4.28-4.19,4.29-2.81,0-4.36-1.78-4.44-4.47-.16-5.28-.09-10.56-.11-15.84,0-.47,0-.94,0-1.41ZM197.03,130.2c-.11,2.74-.61,5.52,3.78,5.22,4.47-.3,6.49-1.61,6.51-5.05.02-3.6-2.16-5.11-6.6-5.43-4.56-.32-3.64,2.7-3.69,5.26Z"/><path class="cls-1" d="M122.28,116.21c2.34,0,4.69-.11,7.02.03,2.66.16,4.47,1.46,4.47,4.37,0,2.9-1.77,4.22-4.46,4.38-2.22.13-4.45.18-6.67.04-2.98-.19-3.16,1.63-3.06,3.84.1,2.06-.51,4.48,2.91,4.33,1.98-.09,4-.12,5.96.12,2.4.3,4.29,1.51,4.34,4.23.05,2.62-1.57,4.18-4,4.6-2.06.35-4.19.35-6.29.31-3.03-.06-2.93,1.93-2.94,4.04-.01,2.04.06,3.79,2.84,3.76,2.45-.03,4.92.03,7.35.31,2.52.29,4.07,1.77,3.96,4.48-.12,2.69-1.81,4.12-4.3,4.22-4.67.18-9.36.19-14.04.05-2.89-.09-4.58-1.88-4.6-4.76-.07-11.26-.08-22.53.01-33.79.03-2.94,1.93-4.43,4.79-4.54,2.22-.09,4.45-.02,6.67-.02h0Z"/></g></svg>