<?xml version="1.0" encoding="UTF-8"?><svg id="Layer_2" xmlns="http://www.w3.org/2000/svg" viewBox="0 0 250 415.11"><defs><style>.cls-1{fill:#003143;}</style></defs><g id="Layer_1-2"><path class="cls-1" d="M240.99,47.97c-15.45-15.45-33.47-27.44-53.1-35.57C168.23,4.27,146.95,0,125,0,81.14,0,39.95,17.04,9.01,47.97c-4.74,4.74-4.74,12.44,0,17.18,4.74,4.75,12.43,4.74,17.18,0C62.7,28.64,114.54,16.64,161.18,29.06c22.96,6.11,44.66,18.12,62.63,36.09,2.37,2.37,5.48,3.56,8.59,3.56s6.22-1.19,8.59-3.56c4.74-4.74,4.74-12.44,0-17.18Z"/><path class="cls-1" d="M143.49,45.44c-36.56-5.66-75.26,5.54-103.36,33.65-4.74,4.74-4.74,12.44,0,17.18,2.37,2.37,5.48,3.56,8.59,3.56s6.22-1.19,8.59-3.56c19-19,44.06-28.3,69.01-27.96,24.07.33,48.05,9.63,66.37,27.96,4.75,4.74,12.44,4.74,17.18,0,4.74-4.74,4.74-12.44,0-17.18-18.69-18.69-42.06-29.89-66.38-33.65Z"/><path class="cls-1" d="M125,87.98c-3,0-5.96.19-8.9.53-16.95,1.96-32.63,9.48-44.85,21.7-4.74,4.74-4.74,12.43,0,17.18,4.74,4.74,12.44,4.74,17.18,0,5.61-5.61,12.3-9.76,19.6-12.28,5.39-1.86,11.1-2.84,16.97-2.84,13.83,0,26.82,5.37,36.57,15.12,2.37,2.37,5.48,3.56,8.59,3.56s6.22-1.19,8.59-3.56c4.75-4.74,4.75-12.43,0-17.18-14.34-14.34-33.43-22.23-53.75-22.23Z"/><path class="cls-1" d="M87.48,177.17v-37.31h75.07v37.31h3.69c10.76,0,21.52,0,32.28,0,16.04,0,26.63,10.54,26.68,26.64.05,17.51.11,35.02-.08,52.53-.03,3.06.98,4.28,3.75,5.02,3.86,1.02,7.63,2.41,11.43,3.67,7.98,2.65,11.26,8.66,9,16.7-6.09,21.62-12.24,43.22-18.36,64.83-1.7,6-3.4,12.01-5.17,18.28-20.9-.2-36.88-10.14-50.54-24.8-30.65,34.05-72.03,31.86-100.34-.02-13.64,14.66-29.62,24.61-50.57,24.82-2.95-10.36-5.84-20.49-8.72-30.62-4.92-17.28-9.85-34.56-14.76-51.84-2.5-8.79.63-14.65,9.31-17.5,3.89-1.28,7.75-2.7,11.69-3.78,2.35-.64,3.18-1.69,3.16-4.22-.12-18-.1-36-.05-54,.03-12.32,7.53-22.1,19.12-24.94,2.16-.53,4.44-.72,6.67-.74,10.95-.07,21.91-.03,32.87-.03,1.17,0,2.33,0,3.87,0ZM208.34,335.43c4.75-16.84,9.39-33.31,14.04-49.8-.77-.34-1.2-.57-1.66-.72-31.06-10.2-62.12-20.42-93.21-30.53-1.53-.5-3.51-.48-5.05.02-28.6,9.25-57.17,18.6-85.75,27.93-3.03.99-6.04,2.01-9.19,3.06,4.79,16.75,9.47,33.11,14.24,49.78,14.2-8.35,22.19-22.19,33.32-33.04.86.97,1.7,1.91,2.54,2.86,6.42,7.24,12.52,14.8,19.31,21.67,16.99,17.2,36.36,17.82,54.32,1.77,4.78-4.27,8.77-9.44,13.08-14.23,3.62-4.02,7.17-8.1,10.65-12.05,11.32,11,19.18,24.97,33.35,33.27ZM49.95,251.81c1.16-.34,1.99-.55,2.81-.82,23.09-7.58,46.17-15.21,69.29-22.68,1.79-.58,4.09-.62,5.87-.04,22.67,7.33,45.28,14.81,67.91,22.26,1.35.44,2.71.84,4.19,1.29v-49.55H49.95v49.55ZM112.69,177.15c7.98,0,15.59.03,23.2-.06.58,0,1.61-.88,1.63-1.37.14-3.66.08-7.33.08-11.01h-24.91v12.45Z"/><path class="cls-1" d="M74.98,373.6c11.17,7.59,23.11,12.7,36.27,14.79,22.13,3.52,42.52-1.14,61.28-13.17,1.91-1.22,3.11-1.35,5.09-.06,15.09,9.86,31.56,15.22,49.74,14.9,7.42-.13,14.84-.02,22.52-.02v24.51c-.28.13-.46.28-.64.28-24.84.79-49.54.7-72.39-11.35-.92-.48-2.51-.44-3.47.02-16.52,7.96-33.9,11.74-52.22,11.1-15.25-.54-29.74-4.17-43.47-10.79-1.97-.95-3.44-.95-5.41,0-15.73,7.6-32.34,11.4-49.85,11.15-7.32-.1-14.64-.02-22.19-.02v-24.9c1.03,0,2.16.01,3.29,0,9.77-.13,19.58.19,29.31-.52,14.62-1.07,27.84-6.56,40.04-14.56.65-.43,1.32-.84,2.11-1.35Z"/></g></svg>