<?xml version="1.0" encoding="UTF-8"?>
<svg xmlns="http://www.w3.org/2000/svg" version="1.1" viewBox="0 0 123 123">
  <defs>
    <style>
      .cls-1 {
        fill: #fff;
      }

      .cls-2 {
        fill: #50b18c;
      }
    </style>
  </defs>
  <!-- Generator: Adobe Illustrator 28.7.7, SVG Export Plug-In . SVG Version: 1.2.0 Build 194)  -->
  <g>
    <g id="Layer_1">
      <g id="Layer_1-2" data-name="Layer_1">
        <g id="bg_shapes">
          <circle class="cls-2" cx="61.5" cy="61.5" r="61.5"/>
        </g>
        <path class="cls-1" d="M48.7,79.1c-3.4,0-6.1,2.7-6.1,6.1s2.7,6.1,6.1,6.1,6.1-2.7,6.1-6.1-2.7-6.1-6.1-6.1ZM48.7,88.2c-1.7,0-3.1-1.4-3.1-3.1s1.4-3.1,3.1-3.1,3.1,1.4,3.1,3.1-1.4,3.1-3.1,3.1Z"/>
        <path class="cls-1" d="M74.1,79.1c-3.4,0-6.1,2.7-6.1,6.1s2.7,6.1,6.1,6.1,6.1-2.7,6.1-6.1h0c0-3.4-2.8-6.1-6.1-6.1ZM74.1,88.2c-1.7,0-3.1-1.4-3.1-3.1s1.4-3.1,3.1-3.1,3.1,1.4,3.1,3.1h0c0,1.7-1.4,3.1-3.1,3.1Z"/>
        <path class="cls-1" d="M84.4,42.6c-.3-.3-.7-.5-1.1-.5l-41.8-1-1.4-6.7c0-.7-.8-1.2-1.5-1.2h-8.2c-.8,0-1.5.7-1.5,1.5s.7,1.5,1.5,1.5h7l7.6,37.5c0,.7.8,1.2,1.5,1.2h27.8c2.7,0,5.3,1.1,7.3,3,.6.5,1.6.5,2.1,0s.5-1.5,0-2.1h0c-2.5-2.4-5.8-3.7-9.3-3.8h-26.5l-.8-4.2,9.7-.3h.9l9.9-.3c.2.2.5.3.8.3h0c.4,0,.7,0,1-.4l9.8-.3c.7,0,1.3-.5,1.4-1.2l1.3-6.9c0-.2.2-.5.2-.7v-.2l2.6-14c0-.2,0-.7-.3-1v-.2ZM58,56.4l-.2-4.3h10.1l-.3,4.3h-9.6ZM67.3,59.4l-.3,4.8-8.5.2-.3-5h9.1ZM43.8,52h11l.3,4.4h-10.3l-1-4.4ZM57.6,49l-.3-4.6,11,.3-.3,4.4h-10.4ZM70.8,52h9.3l-.8,4.4h-8.8l.3-4.4ZM80.7,49h-9.7l.3-4.3,10.1.3s-.7,4-.7,4ZM54.3,44.4l.3,4.7h-11.5c0,0-1-5.1-1-5.1,0,0,12.2.4,12.2.4ZM45.3,59.4h9.9l.3,5.1-9.1.2s-1.1-5.3-1.1-5.3ZM70,64.1l.3-4.6h8.4l-.8,4.4-7.9.2Z"/>
      </g>
    </g>
  </g>
</svg>