<?xml version="1.0" encoding="UTF-8"?>
<svg xmlns="http://www.w3.org/2000/svg" version="1.1" viewBox="0 0 123 123">
  <defs>
    <style>
      .cls-1, .cls-2 {
        fill: #fff;
      }

      .cls-2 {
        fill-rule: evenodd;
      }

      .cls-3 {
        fill: #50b18c;
      }
    </style>
  </defs>
  <!-- Generator: Adobe Illustrator 28.7.7, SVG Export Plug-In . SVG Version: 1.2.0 Build 194)  -->
  <g>
    <g id="Layer_1">
      <g id="Layer_1-2" data-name="Layer_1">
        <g id="bg_shapes">
          <circle class="cls-3" cx="61.5" cy="61.5" r="61.5"/>
        </g>
        <path class="cls-2" d="M69.5,31.1c-2.4,2.8-4.6,5.9-6.6,9-1.6,2.9-3.1,6.1-3.1,7.8,0,3.5,3,7.2,6.8,7.2s6.8-3.6,6.8-7.2-1.6-5-3.2-8c-1.7-3.2-.7-8.8-.7-8.8h0ZM66.6,52.1c-2,0-3.7-2.2-3.7-4.3.2-1.6.4-3.3.8-4.8.3.7.8,3.9.9,4.5-.2-1.3.6,2.7,1.9,4.7h0Z"/>
        <path class="cls-2" d="M80.6,20.8s-4.4,5.2-5.7,7.5c-.9,1.4-1.5,3-1.8,4.6,0,2.5,1.8,4.7,4.3,4.8s4.7-1.8,4.8-4.3v-.4c0-1.1-.9-3.1-2-5-1.2-2.2.4-7.2.4-7.2Z"/>
        <path class="cls-1" d="M75.9,92.8c-.8,0-1.5-.6-1.5-1.4l-.2-4.3c-.4-.2-.8-.4-1.2-.6l-3.6,2.3c-.7.4-1.6.2-2.1-.5l-5.8-9.2c-.4-.7-.2-1.6.5-2.1l3.6-2.3v-1.3l-3.8-2c-.4-.2-.6-.5-.7-.9,0-.4,0-.8,0-1.1l5.1-9.6c.2-.4.5-.6.9-.7.4,0,.8,0,1.1,0l3.8,2c.2,0,.4-.3.6-.4l.6-.3-.2-4.3c0-.4,0-.8.4-1.1.3-.3.6-.5,1-.5l10.9-.4c.4,0,.8,0,1.1.4.3.3.5.6.5,1l.2,4.3,1.2.6,3.7-2.2c.7-.4,1.6-.2,2.1.5h0l5.8,9.2c.4.7.2,1.6-.4,2.1h0l-3.6,2.3v1.3l3.8,2c.3.2.6.5.7.9s0,.8,0,1.1l-5.1,9.6c-.4.7-1.3,1-2,.6l-3.8-2c-.2,0-.4.3-.6.4l-.6.3.2,4.3c0,.8-.6,1.5-1.4,1.6l-10.9.4h-.3ZM73.1,83.2c.3,0,.6,0,.8.3.7.5,1.5.9,2.3,1.2.6.2,1,.7,1,1.3v3.8c0,0,8-.3,8-.3v-3.8c-.2-.6.2-1.1.7-1.4h0c.4-.2.7-.4,1.1-.6.3-.2.7-.5,1-.7h0c.5-.4,1.1-.5,1.6-.2l3.3,1.8,3.7-7-3.3-1.8c-.5-.3-.8-.8-.8-1.4v-2.7c0-.6.2-1.2.7-1.5l3.1-2-4.2-6.7-3.1,2c-.5.3-1.1.3-1.6,0-.7-.5-1.5-.9-2.4-1.2-.6-.2-.9-.7-.9-1.3l-.3-3.8-7.9.3v3.7c.2.6-.2,1.1-.7,1.4h0c-.7.4-1.4.8-2.1,1.4-.5.4-1.1.5-1.7.2l-3.3-1.8-3.7,7,3.3,1.8c.5.3.8.8.8,1.4v2.6c0,.6-.2,1.2-.7,1.5l-3.2,2,4.2,6.7,3.2-2c.2-.2.5-.2.8-.3h.3ZM80.7,79.1c-3.1,0-5.6-2.5-5.6-5.6s2.5-5.6,5.6-5.6,3.7,1,4.7,2.6h0c1.6,2.6.8,6.1-1.8,7.7-.9.6-1.9.8-3,.9h.1ZM80.7,70.9c-1.2,0-2.2.8-2.5,2-.2,1.4.9,2.7,2.3,2.9,1.2,0,2.3-.6,2.7-1.7.2-.7,0-1.4-.3-1.9h0c-.4-.6-.9-1-1.6-1.1h-.6v-.2Z"/>
        <path class="cls-1" d="M47.7,91.8h-13c-.8,0-1.5-.7-1.5-1.5v-5.3c-.6-.3-1.1-.6-1.6-1l-4.6,2.6c-.7.4-1.6,0-2-.6l-6.5-11.2c-.4-.7-.1-1.6.5-2l4.6-2.7v-1.9l-4.5-2.7c-.7-.4-1-1.3-.6-2h0l6.5-11.2c.4-.7,1.3-.9,2-.5l4.6,2.6c.3-.2.5-.3.8-.5s.6-.3.8-.4v-5.3c0-.8.7-1.5,1.5-1.5h13c.8,0,1.5.7,1.5,1.5v5.3c.6.3,1.1.6,1.7.9l4.6-2.6c.7-.4,1.6,0,2,.5l6.6,11.3c.4.7.2,1.6-.5,2h0l-4.6,2.6v1.9l4.6,2.7c.7.4.9,1.3.5,2l-6.6,11.3c-.2.3-.5.6-.9.7s-.8,0-1.1-.2l-4.6-2.7-.8.5c-.3.2-.6.3-.9.4v5.3c0,.8-.6,1.5-1.5,1.5h0v.2ZM36.2,88.8h10v-4.8c0-.6.3-1.1.9-1.4.5-.2,1-.4,1.5-.7.4-.2.8-.5,1.2-.8h0c.5-.4,1.1-.5,1.6-.2l4.1,2.4,5-8.7-4.1-2.4c-.5-.3-.8-.9-.7-1.5,0-1.1,0-2.2,0-3.2,0-.6.2-1.2.7-1.5l4.1-2.4-5-8.7-4.1,2.4c-.5.3-1.2.3-1.6,0-.9-.6-1.8-1.2-2.8-1.6-.5-.2-.9-.8-.9-1.4v-4.8h-10v4.8c0,.6-.4,1.1-.9,1.4h0c-.5.2-.9.5-1.3.7-.4.3-.9.5-1.3.9h0c-.5.4-1.1.4-1.6.2l-4.1-2.4-5,8.6,4.1,2.4c.5.3.8.9.7,1.5-.1,1.1-.1,2.1,0,3.2,0,.6-.2,1.2-.7,1.5l-4.1,2.4,5,8.7,4.1-2.3c.5-.3,1.2-.3,1.6,0,.9.6,1.8,1.1,2.8,1.6.5.2.9.8.9,1.4,0,0,0,4.7,0,4.7ZM41.2,76.7c-4.1,0-7.5-3.4-7.4-7.5,0-.6,0-1.3.3-1.9.5-1.9,1.8-3.5,3.5-4.5,3.6-2.1,8.1-.8,10.2,2.7h0c2.1,3.6.9,8.1-2.7,10.2-1.1.7-2.4,1-3.7,1h-.2ZM41.2,64.8c-.8,0-1.6.2-2.2.6-2.1,1.2-2.9,4-1.7,6.1s4,2.9,6.1,1.7,2.9-4,1.7-6.1h0c-.6-1-1.6-1.8-2.7-2.1-.4,0-.8-.2-1.2-.2h0Z"/>
      </g>
    </g>
  </g>
</svg>