<?xml version="1.0" encoding="UTF-8"?>
<svg xmlns="http://www.w3.org/2000/svg" version="1.1" viewBox="0 0 123 123">
  <defs>
    <style>
      .cls-1, .cls-2 {
        fill: #fff;
      }

      .cls-2 {
        fill-rule: evenodd;
      }

      .cls-3 {
        fill: #50b18c;
      }
    </style>
  </defs>
  <!-- Generator: Adobe Illustrator 28.7.7, SVG Export Plug-In . SVG Version: 1.2.0 Build 194)  -->
  <g>
    <g id="Layer_1">
      <g id="Layer_1-2" data-name="Layer_1">
        <g id="bg_shapes">
          <circle class="cls-3" cx="61.5" cy="61.5" r="61.5"/>
        </g>
        <path class="cls-1" d="M61.3,62.4c-.5,0-1-.2-1.4-.5l-.2-.2c-.8-.8-.8-2.1,0-2.8.7-.7,1.9-.8,2.7,0l.2.2c.8.8.8,2,0,2.8s-.9.6-1.4.6h.1Z"/>
        <path class="cls-1" d="M83,83c-.5,0-1-.2-1.4-.6l-.3-.3c-.8-.8-.8-2,0-2.8s2-.8,2.8,0l.3.3c.8.8.8,2,0,2.8s-.9.6-1.5.6h0ZM75.8,76.2c-.5,0-1-.2-1.4-.6l-.3-.3c-.8-.8-.8-2,0-2.8s2-.8,2.8,0l.3.3c.8.8.8,2,0,2.8s-.9.6-1.5.6h0ZM68.6,69.3c-.5,0-1-.2-1.4-.6l-.3-.3c-.8-.8-.8-2,0-2.8s2-.8,2.8,0l.3.3c.8.8.8,2,0,2.8s-.9.6-1.5.6h0Z"/>
        <path class="cls-1" d="M90.1,89.8c-.5,0-1-.2-1.4-.6l-.2-.2c-.8-.8-.8-2,0-2.8s2-.8,2.8,0l.2.2c.8.8.8,2,0,2.8s-.9.6-1.5.6h0Z"/>
        <path class="cls-1" d="M32.1,89.8c-1.1,0-2-.9-2-2s.2-1.1.6-1.5l.2-.2c.7-.8,2-1,2.8-.3s1,2,.3,2.8c0,0-.2.2-.3.3l-.2.2c-.4.4-.9.6-1.4.6h0Z"/>
        <path class="cls-1" d="M39.2,83c-1.1,0-2-.9-2-2s.2-1.1.6-1.4l.3-.3c.8-.8,2.1-.7,2.8,0,.8.8.7,2.1,0,2.8l-.3.3c-.4.4-.9.6-1.4.5h0ZM46.5,76.1c-1.1,0-2-.9-2-2s.2-1.1.6-1.5l.3-.3c.8-.8,2.1-.7,2.8,0,.8.8.7,2.1,0,2.8h0l-.3.3c-.4.4-.9.6-1.4.6h0ZM53.7,69.2c-1.1,0-2-.9-2-2s.2-1.1.6-1.5l.3-.3c.8-.8,2.1-.7,2.8,0s.7,2.1,0,2.8l-.3.3c-.4.4-.9.6-1.4.6h0Z"/>
        <path class="cls-1" d="M60.9,62.4c-1.1,0-2-.9-2-2s.2-1,.6-1.4l.2-.2c.8-.8,2.1-.7,2.8,0s.7,2.1,0,2.8l-.2.2c-.4.3-.9.5-1.4.5h0Z"/>
        <path class="cls-2" d="M31.1,60.2c-5,0-9,4-9,9s9,18.5,9,18.5c0,0,9-13.5,9-18.5s-4-9-9-9ZM31.1,73.2c-2.2,0-4-1.8-4-4s1.8-4,4-4,4,1.8,4,4h0c0,2.2-1.8,4-4,4h0Z"/>
        <path class="cls-2" d="M91.9,60.2c-5,0-9,4-9,9s9,18.5,9,18.5c0,0,9-13.5,9-18.5s-4-9-9-9ZM91.9,73.2c-2.2,0-4-1.8-4-4s1.8-4,4-4,4,1.8,4,4-1.8,4-4,4h0Z"/>
        <path class="cls-2" d="M61.5,33.2c-5,0-9,4-9,9s9,18.5,9,18.5c0,0,9-13.5,9-18.5s-4-9-9-9ZM61.5,46.2c-2.2,0-4-1.8-4-4s1.8-4,4-4,4,1.8,4,4-1.8,4-4,4h0Z"/>
      </g>
    </g>
  </g>
</svg>