<?xml version="1.0" encoding="UTF-8"?>
<svg xmlns="http://www.w3.org/2000/svg" version="1.1" viewBox="0 0 123 123">
  <defs>
    <style>
      .cls-1 {
        fill: #fff;
      }

      .cls-2 {
        fill: #50b18c;
      }
    </style>
  </defs>
  <!-- Generator: Adobe Illustrator 28.7.7, SVG Export Plug-In . SVG Version: 1.2.0 Build 194)  -->
  <g>
    <g id="Layer_1">
      <g id="Layer_1-2" data-name="Layer_1">
        <g id="bg_shapes">
          <circle class="cls-2" cx="61.5" cy="61.5" r="61.5"/>
        </g>
        <path class="cls-1" d="M62.6,91.6h-.3c-.6,0-1.1-.7-1.2-1.3,0,0-.4-4.8-1-8.1-.8,3.3-1.7,8.2-1.7,8.2-.2.8-.9,1.3-1.8,1.2-.5,0-.9-.4-1.1-.9l-6.6-15.5c-2.4.3-6.9.5-10.2.7-.8,2.2-2.7,8.1-4.9,15.6l-2.9-.8c2.8-9.5,5.2-16.6,5.2-16.7.2-.6.7-1,1.4-1,5.1-.2,10.9-.6,11.8-.8.7-.3,1.6,0,1.9.8l5.2,12.1c.3-1.7.7-3.4,1.1-4.8-.2-.2-.6-.6-.9-.8-1.5-1.3-3.1-2.8-2.4-4.6s3.1-2,5.6-2,5,.2,5.8,2-.8,3.4-2.1,4.7l-.6.7c.3,1.4.6,3.3.8,5l7.2-12.7c.4-.5,1.1-.7,1.7-.5,2.8.8,10.8,1,13.6,1h0c.7,0,1.3.5,1.5,1.1,0,0,2.2,8.7,4,15.3l-2.9.8c-1.4-5.3-3.1-11.8-3.7-14.4-4.1,0-8.1-.2-12.1-.8l-9,15.7c-.3.5-.7.8-1.3.8h-.1ZM57.4,76.1c.4.4.9.9,1.2,1.2.6.5,1.1,1,1.5,1.6.3-.5.7-.9,1.1-1.3.4-.4.9-.9,1.2-1.4-.9-.2-1.8-.3-2.8-.2-.8,0-1.6,0-2.4.2h.2Z"/>
        <path class="cls-1" d="M60.9,52.2c-3.6,0-7.2-.4-10.8-1.3l-.8-.2c-2.2-.6-5-1.4-6-3.8-.3-.6-.5-1.2-.4-1.8-.3,0-.6-.2-.8-.3-.4,0-.8-.3-1.2-.5-1.8-1-4.1-2.6-4-6.4,0-.4.2-.7.4-1,.2-.2.3-.4.5-.7.3-.6.8-1.2,1.4-1.7,2.9-2.1,6.6-3,10.5-4h.4c0-.1.2-.1.2-.1l5.5-.7h2.3c.2,0,.4-.1.7-.1,9,0,15.2,1,20.3,3.1h0c2.7,1.1,6.1,2.6,5.9,7.2,0,.4-.2.7-.4,1,0,0-.2.3-.2.4,0,.3-.3.6-.5.9-.9,1.2-3.3,2.5-5.1,3.2,0,3.3-3,4.3-5.2,5.1l-.8.3c-3.8,1.2-7.7,1.7-11.6,1.6l-.3-.2ZM46,45.3s0,.2.2.3c.3,1.1,2.3,1.6,4,2.1l.8.3c5.9,1.7,15.3,1.6,20.5-.3l.9-.3c2.8-1,3.4-1.3,3.1-3.1,0-.8.4-1.5,1.1-1.7,1.7-.5,3.2-1.3,4.6-2.5,0,0,.2-.3.2-.4,0-.2.2-.4.3-.6,0-2-1.3-2.7-4.1-3.9-4.6-1.9-10.5-2.8-18.8-2.9-.6.2-1.2.2-1.8,0h-.9l-5.9.8c-3.6.9-7,1.7-9.4,3.5-.2.2-.4.5-.5.8,0,.2-.3.5-.5.7,0,1.4.8,2.3,2.4,3.2.3,0,.5.2.8.3,1.1.4,2.6.9,3,2.3,0,.4,0,.8,0,1.2h0Z"/>
        <path class="cls-1" d="M60.6,48.3c-1.6,0-3.2-.8-4.2-2.1-1.5-1.6-1.9-4-1.1-6,.7-1.4,1.9-2.5,3.3-3.2.3,0,.7-.2,1-.2h.2l.3-.2h.5c3.8,0,5.8,2.7,6,5.2.2,3-1.8,5.8-4.8,6.4-.4,0-.7,0-1.1,0h-.1ZM60.8,39.6c-.3,0-.5,0-.8,0h-.3c-.7.3-1.3.9-1.6,1.6-.3,1,0,2.1.6,2.9.5.7,1.4,1.1,2.3,1,1.6-.2,2.7-1.6,2.5-3.2-.2-1.4-1.4-2.4-2.8-2.4h0Z"/>
        <path class="cls-1" d="M61.2,70.9c-2.1,0-4.1-.6-6-1.6-5.2-2.7-10.7-9.9-10.7-17s.2-.9.6-1.2c.4-.3.8-.4,1.3-.3,1,.3,2,.6,3,1s2.1.8,3.2,1c4.7,1.2,12.9.8,17.2-.3.5-.2,1.1-.3,1.7-.4,1.1,0,2.1-.4,3-1,.3-.3.6-.4,1-.4h.3c.8,0,1.5.7,1.5,1.5h0c0,7.8-6.4,16.3-13.6,18.2-.8.2-1.6.3-2.4.3v.2ZM47.7,54.5c.9,5.1,5.1,10.2,8.8,12.2.8.4,3.6,1.7,6.3,1,4.7-1.2,10-6.8,11.1-12.9-.6.2-1.3.3-2,.5-.5,0-1,.2-1.5.3-4.7,1.2-13.3,1.7-18.7.3-1.2-.3-2.3-.7-3.4-1.1l-.6-.2h0Z"/>
      </g>
    </g>
  </g>
</svg>