<?xml version="1.0" encoding="UTF-8"?>
<svg xmlns="http://www.w3.org/2000/svg" version="1.1" viewBox="0 0 123 123">
  <defs>
    <style>
      .cls-1, .cls-2 {
        fill: #fff;
      }

      .cls-2 {
        fill-rule: evenodd;
      }

      .cls-3 {
        fill: #50b18c;
      }
    </style>
  </defs>
  <!-- Generator: Adobe Illustrator 28.7.7, SVG Export Plug-In . SVG Version: 1.2.0 Build 194)  -->
  <g>
    <g id="Layer_1">
      <g id="Layer_1-2" data-name="Layer_1">
        <g id="bg_shapes">
          <circle class="cls-3" cx="61.5" cy="61.5" r="61.5"/>
        </g>
        <g id="ship">
          <path class="cls-1" d="M90.7,89h-58.4l-10.8-10.6h56.1v-7.6h15.8v7.6h8.1l-10.7,10.6h0ZM33.8,85.3h55.4l3.3-3.2h-2.8v-7.6h-8.4v7.6H30.5l3.3,3.2Z"/>
          <path class="cls-1" d="M31.6,72.6h11.3v3.7h-11.3s0-3.7,0-3.7Z"/>
          <path class="cls-1" d="M44.7,72.6h11.3v3.7h-11.3v-3.7Z"/>
          <path class="cls-1" d="M57.9,72.6h11.3v3.7h-11.3s0-3.7,0-3.7Z"/>
        </g>
        <polygon class="cls-2" points="36.8 59.8 25.8 49.8 28.1 46.8 36.3 54.4 51.5 34 54.8 36.4 36.8 59.8"/>
        <rect class="cls-1" x="65.8" y="35.8" width="27" height="4"/>
        <rect class="cls-1" x="65.8" y="45.8" width="27" height="4"/>
        <rect class="cls-1" x="65.8" y="55.8" width="27" height="4"/>
      </g>
    </g>
  </g>
</svg>