<?xml version="1.0" encoding="UTF-8"?>
<svg xmlns="http://www.w3.org/2000/svg" version="1.1" viewBox="0 0 123 123">
  <defs>
    <style>
      .cls-1 {
        fill: #fff;
      }

      .cls-2 {
        fill: #50b18c;
      }
    </style>
  </defs>
  <!-- Generator: Adobe Illustrator 28.7.7, SVG Export Plug-In . SVG Version: 1.2.0 Build 194)  -->
  <g>
    <g id="Layer_1">
      <g id="Layer_1-2" data-name="Layer_1">
        <g id="bg_shapes">
          <circle class="cls-2" cx="61.5" cy="61.5" r="61.5"/>
        </g>
        <g>
          <path class="cls-1" d="M104,46.2c-3.7,6.2-9,9.7-16.4,9.3-1,0-2.1-.4-3.1-.5-.2,0-.6,0-.7.3-2.2,3.9-4.3,7.7-6.5,11.7.7.4,1.3.7,1.9,1.1,2.3,1.6,4.6,3,6.7,4.8,1.2,1.1,2.2,2.6,3,4,1.6,3,3,6.1,4.4,9.1.6,1.3.5,2.5-.5,3.5-1,1.1-2.3,1.5-3.8,1.1-1.1-.3-1.7-1.1-2.1-2.1-1.3-2.8-2.6-5.5-4-8.3-.6-1.3-1.6-2.5-2.8-3.3-3-2.1-6-4-9.3-5.4-.5-.2-.8-.2-1.2.3-3.7,4.1-8.4,6.2-13.9,6-2.8,0-5.3-.9-7.7-2.3-1.8-1.1-2.3-2.9-1.4-4.6.9-1.8,2.9-2.5,4.7-1.7.6.3,1.1.6,1.7.8,3,1.2,5.8.6,8.4-1.2,2.2-1.5,3.8-3.6,5.1-5.9,2.2-4.3,4.5-8.5,6.7-12.8,0,0,0-.2.2-.4-2.8-.9-5.5-.8-7.9.9-1.4.9-2.5,2.2-3.5,3.4-1.6,1.7-3.7,2.1-5.4.7-1.3-1-1.6-2.5-.7-3.9,3.7-5.2,8.5-8.6,15.2-8.3,2.8,0,5.4.9,7.8,2.2,1.7.9,3.4,1.9,5.1,2.8,5,2.5,9.5,1.5,13-2.9.2-.3.4-.5.6-.8,1.9-2.1,5.1-1.6,6.3,1,0,0,0,.2.2.3v1.1h0Z"/>
          <path class="cls-1" d="M79.4,39.1c0-3.7,3.1-6.8,6.8-6.8s6.8,3.1,6.8,6.8-3.1,6.8-6.8,6.8-6.8-3-6.8-6.8Z"/>
          <path class="cls-1" d="M43.1,64.4h-13.2c-.6,0-1-.5-1-1.1-.1-.6.3-1.1.9-1.2h27.1c.3.3.8.8.7,1.2,0,.4-.6.8-.9,1.1h-13.6Z"/>
          <path class="cls-1" d="M34.8,50.3h-12.6c-1.2,0-1.8-.5-1.8-1.3s.6-1.2,1.7-1.2h25.4c1,0,1.6.5,1.6,1.2s-.6,1.2-1.6,1.2h-12.7Z"/>
          <path class="cls-1" d="M58.4,35.6h13.2c.6,0,1,.5,1,1.1s-.3,1.1-.9,1.3h-26.6c-.6,0-1-.6-1-1.2s.4-1.1,1.1-1.2h.8c4.1,0,8.2,0,12.4,0Z"/>
          <path class="cls-1" d="M32,80.1h-11.8c-.8,0-1.2-.5-1.2-1.2s.3-1.1,1-1.3h23.1c1.3,0,1.9.4,1.9,1.2s-.6,1.3-1.9,1.3h-11.1Z"/>
        </g>
      </g>
    </g>
  </g>
</svg>