<?xml version="1.0" encoding="UTF-8"?>
<svg xmlns="http://www.w3.org/2000/svg" version="1.1" viewBox="0 0 123 123">
  <defs>
    <style>
      .cls-1 {
        fill: #fff;
      }

      .cls-2 {
        fill: #50b18c;
      }
    </style>
  </defs>
  <!-- Generator: Adobe Illustrator 28.7.7, SVG Export Plug-In . SVG Version: 1.2.0 Build 194)  -->
  <g>
    <g id="Layer_1">
      <g id="Layer_1-2" data-name="Layer_1">
        <g id="bg_shapes">
          <circle class="cls-2" cx="61.5" cy="61.5" r="61.5"/>
        </g>
        <path class="cls-1" d="M75.3,53.8h-18.1c-.8,0-1.5-.7-1.5-1.5v-18.1c0-.8.7-1.5,1.5-1.5s1.5.7,1.5,1.5v16.6h16.6c.8,0,1.5.7,1.5,1.5s-.7,1.5-1.5,1.5Z"/>
        <path class="cls-1" d="M55.4,62.8h-11.9c-.8,0-1.5-.7-1.5-1.5s.7-1.5,1.5-1.5h11.9c.8,0,1.5.7,1.5,1.5s-.7,1.5-1.5,1.5Z"/>
        <path class="cls-1" d="M51.4,71.9h-7.9c-.8,0-1.5-.7-1.5-1.5s.7-1.5,1.5-1.5h7.9c.8,0,1.5.7,1.5,1.5s-.7,1.5-1.5,1.5Z"/>
        <path class="cls-1" d="M52.6,53.8h-9.1c-.8,0-1.5-.7-1.5-1.5s.7-1.5,1.5-1.5h9.1c.8,0,1.5.7,1.5,1.5s-.7,1.5-1.5,1.5Z"/>
        <path class="cls-1" d="M52.6,44.7h-9.1c-.8,0-1.5-.7-1.5-1.5s.7-1.5,1.5-1.5h9.1c.8,0,1.5.7,1.5,1.5s-.7,1.5-1.5,1.5Z"/>
        <path class="cls-1" d="M86.2,90.3c-.4,0-.7,0-1-.4l-10.3-9.2c-4.3,3.5-10.5,3.1-14.3-1h0c-2.3-3.1-5.3-10.3,0-16.1,3.9-4.2,10.5-4.5,14.7-.7.2.2.4.4.7.7,3.7,4.1,4.2,10.3,1,14.9l10.3,9.1c.6.5.7,1.5,0,2.1s-.7.5-1.1.5h0ZM62.8,77.8c2.8,3,7.4,3.2,10.5.5.2,0,.3-.3.5-.5h0c3.1-3.4,3.1-8.6,0-12-2.7-3-7.4-3.3-10.5-.5-.2.2-.4.3-.5.5-4.8,5.1-.4,11.3,0,12Z"/>
        <path class="cls-1" d="M52.7,83.2h-16c-.8,0-1.5-.7-1.5-1.5v-47.6c0-.8.7-1.5,1.5-1.5h22.7c.4,0,.8.2,1.1.4l15.8,15.9c.3.3.4.6.4,1v5.7c0,.8-.7,1.5-1.5,1.5s-1.5-.7-1.5-1.5v-5l-15-15h-20.5v44.6h14.5c.8,0,1.5.7,1.5,1.5s-.7,1.5-1.5,1.5Z"/>
      </g>
    </g>
  </g>
</svg>