<?xml version="1.0" encoding="UTF-8"?>
<svg xmlns="http://www.w3.org/2000/svg" version="1.1" viewBox="0 0 123 123">
  <defs>
    <style>
      .cls-1 {
        fill: #fff;
        fill-rule: evenodd;
      }

      .cls-2 {
        fill: #50b18c;
      }
    </style>
  </defs>
  <!-- Generator: Adobe Illustrator 28.7.7, SVG Export Plug-In . SVG Version: 1.2.0 Build 194)  -->
  <g>
    <g id="Layer_1">
      <g id="Layer_1-2" data-name="Layer_1">
        <g id="bg_shapes">
          <circle class="cls-2" cx="61.5" cy="61.5" r="61.5"/>
        </g>
        <path class="cls-1" d="M87.9,46.1h-6.8v3.3h-24.3l4.7,4.6h25.3l4.7-4.6h-3.5v-3.4h0ZM81.1,27.8l-2.8-1.8-6.1,10-3.5-3.4-1.9,2.6,6.2,6,8.2-13.4h0ZM94.7,70.1V20.2c0-2.8.2-3.4-1.2-5-1.1-1.3-2.6-2.1-4.3-2.1h-32c-1,.9-2.5,1.3-3.2,2.4l-.8,2.2v33.5c-3.4,2.2-6.6,4.7-9.6,7.4-.8.9-1.4,2-1.6,3.2-1.3,6-2.5,12.1-4,17.8-.6,2.4-.5,4.6-1.3,6.8-1.3,2.7-2.9,5.3-4.8,7.7-.6.8-1.7,2-2.4,2.9-.4.5-.7,1-1,1.5-.2.6.1,1.3.8,1.6h.5c1,0,3.9-3.8,5.4-6,1.5-2.1,2.8-4.4,3.8-6.8,2.1-7.4,3.9-17.3,5.7-25.9,1.3-3.3,5.9-5.2,8.1-7h.3v20.9c0,.5.3,1,.8,1.3,4.5.5,6.5-6.5,9-10.1,1.1-1.6,1.5-2.7,4-3.4s3,.3,3,.3c0,.4-.2.9-.4,1.3-2,4.1-3.8,8.3-5.4,12.5-2,5.9.2,8-4.8,15.5-3.6,5.3-7.3,4.6-9.6,6.3-3.2,2.3-6.3,4.9-7.3,9.3-.2,1.1.5,1.2.8,1.6.5,0,1-.2,1.4-.5.7-.7,1-2.1,1.7-3.3.7-1.2,1.6-2.3,2.6-3.2,2.2-2,5.3-2.5,7.9-4.2,4-2.5,6.2-6.3,8-11h24.7c6.5,0,1.6,0,3.5-1.3,1.2-.9,1.8-3,1.8-4.7v-11.5h-.1ZM91.3,84.1c-.5.7-1.3,1-2.1.9h-24c.3-1.4.3-3.2.6-4.7s.9-2.4,1-3.7l1.4-2.7c.3-2,3.4-8.5,4.6-10-.2-3.5-4.2-4.4-7.6-3-2.9,1.2-4.7,3.9-6.2,7.1-.8,1.6-1.7,3.1-2.7,4.6h-.3s0-50.3,0-54.2,1.2-2.4,3.8-2.4h29.9q.2-.1,0-.1c1.3.1,2.3,1.2,2.5,2.5v63.7c0,.8-.3,1.6-.7,2.2h0v-.2ZM72.5,48.2h4.9v-1.6h-4.9v1.6ZM66.8,48.2h4.9v-1.6h-4.9v1.6ZM66,46.6h-4.9v1.6h4.9v-1.6ZM73.9,78.9c-1.1,0-2.1.5-2.1,1.1s.9,1.1,2.1,1.1,2-.5,2-1.1-.9-1.1-2-1.1Z"/>
      </g>
    </g>
  </g>
</svg>