<?xml version="1.0" encoding="UTF-8"?>
<svg xmlns="http://www.w3.org/2000/svg" version="1.1" viewBox="0 0 123 123">
  <defs>
    <style>
      .cls-1 {
        fill: #fff;
      }

      .cls-2 {
        fill: #50b18c;
      }
    </style>
  </defs>
  <!-- Generator: Adobe Illustrator 28.7.7, SVG Export Plug-In . SVG Version: 1.2.0 Build 194)  -->
  <g>
    <g id="Layer_1">
      <g id="Layer_1-2" data-name="Layer_1">
        <g id="bg_shapes">
          <circle class="cls-2" cx="61.3" cy="61.5" r="61.5"/>
        </g>
        <g id="dry_dock_icon">
          <path class="cls-1" d="M41,89.9c-5.7,0-10.3-4.6-10.3-10.3v-21.7h2.6v21.7c0,4.3,3.5,7.7,7.8,7.8h40.7c4.3,0,7.7-3.5,7.8-7.8v-21.7h2.6v21.7c0,5.7-4.6,10.3-10.3,10.3h-40.9Z"/>
          <path class="cls-1" d="M50,80.9c-5.6,0-10.3-15.6-10.3-28.4v-1.3h4.5v-9h4.5v-9h25.2v9h4.5v9h4.5v1.3c0,7.3-3.6,28.4-10.3,28.4h-22.6ZM42.3,54.7c.5,12.3,4.9,23.1,7.6,23.6h10.9v-24.6h-18.6v.9h.1ZM63.4,78.3h9.4c3.1-.8,7-14.4,7.5-23.6v-.9h-16.9v24.6h0ZM46.8,51.2h29.1v-6.5h-4.5v-9h-20v9h-4.5v6.5h-.1Z"/>
        </g>
      </g>
    </g>
  </g>
</svg>