<?xml version="1.0" encoding="UTF-8"?>
<svg xmlns="http://www.w3.org/2000/svg" version="1.1" viewBox="0 0 123 123">
  <defs>
    <style>
      .cls-1 {
        fill: #fff;
      }

      .cls-2 {
        fill: #50b18c;
      }
    </style>
  </defs>
  <!-- Generator: Adobe Illustrator 28.7.7, SVG Export Plug-In . SVG Version: 1.2.0 Build 194)  -->
  <g>
    <g id="Layer_1">
      <g id="Layer_1-2" data-name="Layer_1">
        <g id="bg_shapes">
          <circle class="cls-2" cx="61.5" cy="61.5" r="61.5"/>
        </g>
        <path class="cls-1" d="M89.5,90.2h-56c-.8,0-1.5-.7-1.5-1.5v-36c0-.8.7-1.5,1.5-1.5h56c.8,0,1.5.7,1.5,1.5v36c0,.8-.7,1.5-1.5,1.5ZM35,87.2h53v-33h-53v33Z"/>
        <path class="cls-1" d="M67.7,67.2h-12.4c-.8,0-1.5-.7-1.5-1.5v-5c0-.8.7-1.5,1.5-1.5h12.4c.8,0,1.5.7,1.5,1.5v5c0,.8-.7,1.5-1.5,1.5ZM56.8,64.2h9.4v-2h-9.4s0,2,0,2Z"/>
        <path class="cls-1" d="M71,79.2h-19c-.8,0-1.5-.7-1.5-1.5v-5c0-.8.7-1.5,1.5-1.5s1.5.7,1.5,1.5v3.5h16v-3.5c0-.8.7-1.5,1.5-1.5s1.5.7,1.5,1.5v5c0,.8-.7,1.5-1.5,1.5Z"/>
        <path class="cls-1" d="M83.5,50.8c-.8,0-1.5-.7-1.5-1.5v-4.5h-41v4.5c0,.8-.7,1.5-1.5,1.5s-1.5-.7-1.5-1.5v-7.5h47v7.5c0,.8-.7,1.5-1.5,1.5Z"/>
        <path class="cls-1" d="M79.8,40.8c-.8,0-1.5-.7-1.5-1.5v-3.5h-33.7v3.5c0,.8-.7,1.5-1.5,1.5s-1.5-.7-1.5-1.5v-6.5h39.7v6.5c0,.8-.7,1.5-1.5,1.5Z"/>
      </g>
    </g>
  </g>
</svg>